<?xml version="1.0" encoding="utf-8"?>
<!-- Generator: Adobe Illustrator 16.0.0, SVG Export Plug-In . SVG Version: 6.00 Build 0)  -->
<!DOCTYPE svg PUBLIC "-//W3C//DTD SVG 1.1//EN" "http://www.w3.org/Graphics/SVG/1.1/DTD/svg11.dtd">
<svg version="1.1" id="圖層_1" xmlns="http://www.w3.org/2000/svg" xmlns:xlink="http://www.w3.org/1999/xlink" x="0px" y="0px"
	 width="430.297px" height="81.528px" viewBox="0 0 430.297 81.528" enable-background="new 0 0 430.297 81.528"
	 xml:space="preserve">
<g>
	<g>
		<path fill="#716F6E" d="M99.497,75.771c-15.87,0-28.782-12.911-28.782-28.782c0-12.103,7.431-22.742,18.646-26.944v-9.598h4.2
			v12.634l-1.468,0.463c-10.274,3.241-17.177,12.663-17.177,23.445c0,13.555,11.027,24.583,24.582,24.583
			c13.555,0,24.583-11.028,24.583-24.583c0-10.589-6.748-19.958-16.79-23.314l-1.435-0.479V10.447h4.2v9.767
			c10.961,4.315,18.225,14.889,18.225,26.776C128.28,62.86,115.368,75.771,99.497,75.771z"/>
		<path fill="#716F6E" d="M112.207,12.547H86.788c-1.16,0-2.1-0.94-2.1-2.1s0.94-2.1,2.1-2.1h25.419c1.16,0,2.1,0.94,2.1,2.1
			S113.367,12.547,112.207,12.547z"/>
	</g>
	<g>
		<path fill="#DF8E2D" d="M98.03,39.855c-6.811,3.079-14.796-0.338-18.242-2.158c-1.853,3.13-2.921,6.737-2.921,10.589
			c0,0.145,0.008,0.286,0.011,0.428l0.224,2.67c1.575,10.451,10.993,18.483,22.379,18.483c12.491,0,22.616-9.661,22.616-21.581
			c0-4.568-0.471-8.742-3.01-12.231C113.805,33.856,105.579,36.444,98.03,39.855"/>
		<g>
			<path fill="#FFFFFF" d="M97.967,60.079c-0.382,0.368-1.071,0.903-2.341,0.903c-0.459,0-1.347-0.03-2.204-0.857
				c-0.842-0.826-1.393-2.173-1.393-4.637c0-1.913,0.444-3.015,0.903-3.734c0.275-0.429,0.521-0.643,0.673-0.796
				c0.566-0.475,1.255-0.719,1.99-0.734c0.275-0.016,1.194,0,1.928,0.505c0.138,0.092,0.383,0.245,0.643,0.566
				c1.255,1.484,1.224,3.948,1.224,4.331C99.39,57.11,99.084,58.978,97.967,60.079z M96.727,52.963
				c-0.061-0.138-0.352-0.873-1.086-0.842c-0.214,0.015-0.352,0.092-0.429,0.138c-0.306,0.184-0.52,0.505-0.704,1.24
				c-0.138,0.566-0.214,1.271-0.214,2.495c0,0.199,0,1.01,0.199,1.806c0.26,1.041,0.75,1.286,1.225,1.286
				c0.153,0,0.474-0.031,0.719-0.307c0.582-0.643,0.658-2.372,0.658-3.137C97.095,55.58,97.11,53.881,96.727,52.963z"/>
		</g>
		<g>
			<path fill="#FFFFFF" d="M103.326,54.997v-7.576c-0.214,0.092-0.352,0.153-0.566,0.199c-0.429,0.107-1.179,0.123-1.623,0.123
				l0.016-1.576l0.551-0.046c0.704-0.062,1.117-0.306,1.377-0.475c0.107-0.077,0.352-0.229,0.551-0.505
				c0.138-0.184,0.199-0.322,0.306-0.521h1.867v10.376H103.326z"/>
		</g>
		<g>
			<path fill="#DF8E2D" d="M98.734,30.384v-4.962c-0.141,0.06-0.231,0.1-0.371,0.13c-0.281,0.07-0.772,0.08-1.062,0.08l0.01-1.033
				l0.361-0.03c0.461-0.04,0.732-0.201,0.902-0.311c0.07-0.05,0.23-0.15,0.361-0.331c0.09-0.121,0.13-0.21,0.201-0.341h1.223v6.797
				H98.734z"/>
		</g>
		<g>
			<path fill="#DF8E2D" d="M105.268,34.344c-0.213,0.204-0.596,0.502-1.303,0.502c-0.255,0-0.749-0.017-1.226-0.477
				c-0.468-0.46-0.774-1.209-0.774-2.58c0-1.064,0.247-1.677,0.502-2.077c0.153-0.238,0.29-0.358,0.375-0.443
				c0.315-0.264,0.698-0.4,1.106-0.409c0.153-0.008,0.665,0,1.073,0.281c0.076,0.051,0.213,0.136,0.357,0.315
				c0.698,0.826,0.681,2.197,0.681,2.409C106.06,32.692,105.89,33.73,105.268,34.344z M104.579,30.384
				c-0.034-0.077-0.196-0.485-0.604-0.468c-0.119,0.009-0.196,0.051-0.239,0.077c-0.17,0.102-0.289,0.281-0.392,0.69
				c-0.077,0.315-0.119,0.707-0.119,1.388c0,0.111,0,0.562,0.111,1.005c0.145,0.579,0.417,0.715,0.681,0.715
				c0.085,0,0.264-0.017,0.4-0.17c0.323-0.358,0.366-1.32,0.366-1.746C104.783,31.84,104.792,30.896,104.579,30.384z"/>
		</g>
		<g>
			<path fill="#DF8E2D" d="M96.921,37.49c-0.263,0.253-0.737,0.621-1.611,0.621c-0.316,0-0.927-0.021-1.516-0.589
				c-0.579-0.568-0.958-1.495-0.958-3.19c0-1.316,0.305-2.074,0.621-2.569c0.189-0.295,0.358-0.442,0.463-0.547
				c0.39-0.326,0.864-0.495,1.369-0.505c0.189-0.011,0.821,0,1.326,0.348c0.095,0.063,0.264,0.168,0.442,0.389
				c0.863,1.021,0.842,2.716,0.842,2.98C97.9,35.448,97.689,36.732,96.921,37.49z M96.068,32.595
				c-0.042-0.095-0.242-0.6-0.748-0.579c-0.147,0.01-0.242,0.063-0.295,0.095c-0.21,0.126-0.358,0.347-0.484,0.853
				c-0.095,0.39-0.147,0.874-0.147,1.716c0,0.137,0,0.695,0.137,1.242c0.179,0.716,0.516,0.885,0.842,0.885
				c0.105,0,0.326-0.021,0.495-0.211c0.4-0.442,0.453-1.632,0.453-2.158C96.321,34.395,96.331,33.226,96.068,32.595z"/>
		</g>
	</g>
	<g>
		<g>
			<g>
				<path fill="#716F6E" d="M42.67,20.777V9.667h3.068c3.916,0,5.873,1.805,5.873,5.416c0,1.715-0.543,3.093-1.631,4.134
					c-1.087,1.041-2.542,1.561-4.366,1.561H42.67z M43.972,10.844V19.6h1.658c1.457,0,2.59-0.39,3.401-1.17s1.217-1.885,1.217-3.316
					c0-2.846-1.514-4.269-4.541-4.269H43.972z"/>
				<path fill="#706E6D" d="M45.615,20.927h-3.094V9.517h3.218c3.997,0,6.023,1.873,6.023,5.566c0,1.75-0.564,3.177-1.677,4.242
					C48.973,20.388,47.469,20.927,45.615,20.927z M42.82,20.627h2.794c1.775,0,3.209-0.511,4.263-1.52
					c1.051-1.006,1.584-2.361,1.584-4.025c0-3.543-1.872-5.266-5.723-5.266H42.82V20.627z M45.63,19.75h-1.808v-9.055h1.886
					c3.112,0,4.69,1.487,4.69,4.419c0,1.467-0.425,2.619-1.263,3.424C48.299,19.342,47.12,19.75,45.63,19.75z M44.122,19.45h1.508
					c1.41,0,2.519-0.379,3.297-1.128c0.777-0.747,1.171-1.827,1.171-3.208c0-2.771-1.436-4.119-4.391-4.119h-1.586V19.45z"/>
			</g>
			<g>
				<path fill="#716F6E" d="M58.513,20.777h-1.271v-1.24h-0.031c-0.553,0.951-1.366,1.426-2.441,1.426
					c-0.79,0-1.409-0.209-1.855-0.628c-0.447-0.418-0.67-0.973-0.67-1.666c0-1.482,0.873-2.345,2.619-2.588l2.378-0.333
					c0-1.348-0.545-2.022-1.635-2.022c-0.956,0-1.818,0.325-2.588,0.976v-1.302c0.78-0.496,1.679-0.744,2.696-0.744
					c1.865,0,2.797,0.987,2.797,2.96V20.777z M57.242,16.764l-1.914,0.264c-0.589,0.083-1.033,0.229-1.333,0.438
					c-0.299,0.209-0.449,0.58-0.449,1.112c0,0.388,0.138,0.704,0.415,0.949c0.276,0.246,0.645,0.368,1.104,0.368
					c0.63,0,1.151-0.221,1.562-0.663c0.411-0.441,0.616-1,0.616-1.677V16.764z"/>
				<path fill="#706E6D" d="M54.77,21.113c-0.826,0-1.484-0.225-1.958-0.668c-0.477-0.445-0.718-1.043-0.718-1.775
					c0-1.562,0.925-2.483,2.749-2.736l2.247-0.315c-0.033-1.171-0.519-1.742-1.483-1.742c-0.915,0-1.753,0.316-2.491,0.941
					l-0.247,0.208v-1.708l0.069-0.044c0.801-0.509,1.735-0.767,2.777-0.767c1.956,0,2.947,1.046,2.947,3.11v5.31h-1.571v-0.939
					C56.524,20.735,55.746,21.113,54.77,21.113z M55.607,13.577c0.814,0,1.785,0.377,1.785,2.172v0.13l-2.507,0.352
					c-1.676,0.233-2.49,1.031-2.49,2.439c0,0.655,0.204,1.164,0.623,1.556c0.416,0.39,1.006,0.587,1.753,0.587
					c1.027,0,1.783-0.442,2.311-1.351l0.043-0.075h0.236l0.031,0.15v1.09h0.971v-5.01c0-1.891-0.866-2.81-2.647-2.81
					c-0.954,0-1.81,0.228-2.546,0.677v0.908C53.901,13.851,54.72,13.577,55.607,13.577z M55.064,20.044
					c-0.496,0-0.9-0.137-1.204-0.406c-0.309-0.274-0.465-0.631-0.465-1.062c0-0.581,0.172-0.997,0.513-1.235
					c0.318-0.222,0.789-0.377,1.398-0.463l2.084-0.287v0.962c0,0.713-0.221,1.312-0.656,1.779
					C56.298,19.805,55.735,20.044,55.064,20.044z M57.092,16.936l-1.743,0.24c-0.562,0.079-0.989,0.217-1.268,0.412
					c-0.255,0.179-0.385,0.511-0.385,0.989c0,0.346,0.119,0.62,0.364,0.837c0.247,0.219,0.584,0.331,1.004,0.331
					c0.592,0,1.067-0.201,1.452-0.615c0.382-0.411,0.576-0.94,0.576-1.575V16.936z"/>
			</g>
			<g>
				<path fill="#716F6E" d="M63.81,20.7c-0.3,0.166-0.695,0.248-1.186,0.248c-1.39,0-2.084-0.775-2.084-2.324v-4.696h-1.364v-1.084
					h1.364v-1.937l1.271-0.411v2.348h1.999v1.084h-1.999v4.471c0,0.532,0.09,0.912,0.271,1.139c0.181,0.228,0.48,0.341,0.899,0.341
					c0.32,0,0.597-0.088,0.829-0.263V20.7z"/>
				<path fill="#706E6D" d="M62.625,21.098c-1.483,0-2.234-0.833-2.234-2.474v-4.546h-1.364v-1.384h1.364v-1.896l1.571-0.507v2.404
					h1.999v1.384h-1.999v4.321c0,0.495,0.08,0.847,0.238,1.046c0.15,0.188,0.413,0.284,0.782,0.284c0.289,0,0.531-0.076,0.739-0.233
					l0.24-0.181v1.474l-0.078,0.043C63.562,21.008,63.139,21.098,62.625,21.098z M59.326,13.778h1.364v4.846
					c0,1.463,0.633,2.174,1.935,2.174c0.421,0,0.769-0.064,1.036-0.19v-0.727c-0.203,0.098-0.431,0.147-0.679,0.147
					c-0.465,0-0.807-0.134-1.017-0.397c-0.204-0.257-0.303-0.66-0.303-1.232v-4.621h1.999v-0.785h-1.999v-2.292l-0.971,0.314v1.978
					h-1.364V13.778z"/>
			</g>
			<g>
				<path fill="#716F6E" d="M70.409,20.777h-1.271v-1.24h-0.031c-0.553,0.951-1.366,1.426-2.441,1.426
					c-0.79,0-1.409-0.209-1.855-0.628c-0.447-0.418-0.67-0.973-0.67-1.666c0-1.482,0.873-2.345,2.619-2.588l2.378-0.333
					c0-1.348-0.545-2.022-1.635-2.022c-0.956,0-1.818,0.325-2.588,0.976v-1.302c0.78-0.496,1.679-0.744,2.696-0.744
					c1.865,0,2.797,0.987,2.797,2.96V20.777z M69.138,16.764l-1.914,0.264c-0.589,0.083-1.033,0.229-1.333,0.438
					c-0.299,0.209-0.449,0.58-0.449,1.112c0,0.388,0.138,0.704,0.415,0.949c0.276,0.246,0.645,0.368,1.104,0.368
					c0.63,0,1.151-0.221,1.562-0.663c0.411-0.441,0.616-1,0.616-1.677V16.764z"/>
				<path fill="#706E6D" d="M66.666,21.113c-0.826,0-1.484-0.225-1.958-0.668C64.231,20,63.99,19.402,63.99,18.67
					c0-1.562,0.925-2.483,2.749-2.736l2.247-0.315c-0.033-1.171-0.519-1.742-1.483-1.742c-0.915,0-1.753,0.316-2.491,0.941
					l-0.247,0.208v-1.708l0.069-0.044c0.801-0.509,1.735-0.767,2.777-0.767c1.956,0,2.947,1.046,2.947,3.11v5.31h-1.571v-0.939
					C68.42,20.735,67.642,21.113,66.666,21.113z M67.503,13.577c0.814,0,1.785,0.377,1.785,2.172v0.13L66.78,16.23
					c-1.676,0.233-2.49,1.031-2.49,2.439c0,0.655,0.204,1.164,0.623,1.556c0.416,0.39,1.006,0.587,1.753,0.587
					c1.027,0,1.783-0.442,2.311-1.351l0.043-0.075h0.236l0.031,0.15v1.09h0.971v-5.01c0-1.891-0.866-2.81-2.647-2.81
					c-0.954,0-1.81,0.228-2.546,0.677v0.908C65.797,13.851,66.616,13.577,67.503,13.577z M66.96,20.044
					c-0.496,0-0.9-0.137-1.204-0.406c-0.309-0.274-0.465-0.631-0.465-1.062c0-0.581,0.172-0.997,0.513-1.235
					c0.318-0.222,0.789-0.377,1.398-0.463l2.084-0.287v0.962c0,0.713-0.221,1.312-0.656,1.779
					C68.194,19.805,67.631,20.044,66.96,20.044z M68.988,16.936l-1.743,0.24c-0.562,0.079-0.989,0.217-1.268,0.412
					c-0.255,0.179-0.385,0.511-0.385,0.989c0,0.346,0.119,0.62,0.364,0.837c0.247,0.219,0.584,0.331,1.004,0.331
					c0.592,0,1.067-0.201,1.452-0.615c0.382-0.411,0.576-0.94,0.576-1.575V16.936z"/>
			</g>
		</g>
		<g>
			<g>
				<path fill="#716F6E" d="M23.141,25.535v1.116h-1.085v8.879h1.085v1.116h-3.471V35.53h1.084v-8.879h-1.084v-1.116H23.141z"/>
				<path fill="#706E6D" d="M23.291,36.796H19.52V35.38h1.084v-8.58H19.52v-1.416h3.771v1.416h-1.085v8.58h1.085V36.796z
					 M19.819,36.496h3.171V35.68h-1.085v-9.179h1.085v-0.816h-3.171v0.816h1.084v9.179h-1.084V36.496z"/>
			</g>
			<g>
				<path fill="#716F6E" d="M30.599,36.646h-1.271v-4.525c0-1.684-0.615-2.526-1.844-2.526c-0.635,0-1.161,0.239-1.577,0.717
					c-0.416,0.478-0.624,1.081-0.624,1.809v4.525h-1.271v-7.934h1.271v1.317h0.031c0.599-1.002,1.467-1.503,2.604-1.503
					c0.868,0,1.531,0.28,1.991,0.841s0.689,1.37,0.689,2.429V36.646z"/>
				<path fill="#706E6D" d="M30.749,36.796h-1.57v-4.675c0-1.599-0.554-2.376-1.694-2.376c-0.596,0-1.074,0.218-1.463,0.666
					c-0.39,0.447-0.587,1.022-0.587,1.71v4.675h-1.571v-8.234h1.571v1.022c0.611-0.802,1.445-1.208,2.484-1.208
					c0.911,0,1.62,0.301,2.107,0.896c0.48,0.585,0.724,1.434,0.724,2.524V36.796z M29.478,36.496h0.971v-4.701
					c0-1.019-0.221-1.804-0.655-2.333c-0.434-0.529-1.048-0.786-1.875-0.786c-1.09,0-1.899,0.468-2.475,1.43l-0.044,0.073h-0.235
					l-0.031-0.15v-1.167h-0.971v7.634h0.971v-4.375c0-0.763,0.222-1.405,0.66-1.908c0.443-0.51,1.012-0.768,1.69-0.768
					c1.323,0,1.994,0.9,1.994,2.676V36.496z"/>
			</g>
			<g>
				<path fill="#716F6E" d="M31.735,36.359v-1.364c0.692,0.511,1.454,0.767,2.286,0.767c1.116,0,1.673-0.372,1.673-1.116
					c0-0.212-0.048-0.391-0.143-0.539c-0.096-0.147-0.225-0.277-0.388-0.391s-0.354-0.216-0.573-0.306
					c-0.22-0.09-0.456-0.185-0.709-0.283c-0.352-0.14-0.66-0.28-0.926-0.422c-0.266-0.142-0.488-0.302-0.667-0.48
					s-0.312-0.381-0.403-0.608c-0.09-0.227-0.136-0.493-0.136-0.798c0-0.372,0.085-0.701,0.256-0.988s0.397-0.527,0.682-0.721
					s0.608-0.34,0.973-0.438c0.364-0.098,0.74-0.147,1.127-0.147c0.687,0,1.302,0.119,1.844,0.356v1.286
					c-0.583-0.382-1.255-0.573-2.015-0.573c-0.237,0-0.452,0.027-0.643,0.081c-0.191,0.054-0.355,0.131-0.492,0.229
					c-0.137,0.099-0.243,0.216-0.318,0.353c-0.075,0.137-0.112,0.288-0.112,0.454c0,0.207,0.038,0.379,0.112,0.519
					s0.185,0.263,0.329,0.372c0.145,0.108,0.32,0.207,0.527,0.294c0.207,0.088,0.441,0.183,0.705,0.287
					c0.351,0.134,0.666,0.272,0.945,0.415c0.279,0.142,0.516,0.302,0.712,0.48s0.348,0.383,0.454,0.616
					c0.105,0.232,0.159,0.509,0.159,0.829c0,0.393-0.086,0.733-0.26,1.023c-0.173,0.289-0.404,0.529-0.693,0.72
					c-0.289,0.191-0.623,0.333-1,0.426c-0.377,0.093-0.772,0.14-1.186,0.14C33.042,36.832,32.334,36.674,31.735,36.359z"/>
				<path fill="#706E6D" d="M33.858,36.982c-0.837,0-1.575-0.165-2.193-0.49l-0.08-0.042v-1.752l0.239,0.177
					c0.663,0.489,1.402,0.738,2.197,0.738c1.523,0,1.523-0.727,1.523-0.966c0-0.184-0.039-0.333-0.119-0.457
					c-0.084-0.129-0.201-0.248-0.348-0.35c-0.152-0.107-0.335-0.205-0.544-0.291c-0.219-0.09-0.454-0.184-0.706-0.282
					c-0.357-0.142-0.674-0.286-0.942-0.43c-0.278-0.148-0.514-0.319-0.702-0.507c-0.192-0.192-0.339-0.414-0.437-0.659
					c-0.097-0.244-0.146-0.531-0.146-0.853c0-0.397,0.093-0.755,0.277-1.064c0.181-0.304,0.425-0.563,0.726-0.768
					c0.297-0.202,0.639-0.357,1.018-0.459c0.376-0.101,0.769-0.152,1.166-0.152c0.705,0,1.346,0.124,1.904,0.369l0.09,0.039v1.662
					l-0.232-0.152c-0.556-0.364-1.206-0.549-1.933-0.549c-0.223,0-0.426,0.025-0.602,0.076c-0.172,0.049-0.322,0.118-0.445,0.206
					c-0.12,0.086-0.209,0.185-0.273,0.302c-0.063,0.116-0.094,0.241-0.094,0.382c0,0.18,0.032,0.331,0.095,0.448
					c0.063,0.119,0.16,0.228,0.287,0.323c0.135,0.101,0.302,0.194,0.496,0.276c0.206,0.087,0.439,0.182,0.701,0.285
					c0.353,0.135,0.675,0.276,0.958,0.42c0.289,0.147,0.54,0.317,0.745,0.503c0.211,0.191,0.376,0.415,0.49,0.665
					c0.114,0.251,0.172,0.551,0.172,0.891c0,0.418-0.094,0.789-0.281,1.1c-0.184,0.308-0.433,0.566-0.74,0.768
					c-0.302,0.2-0.654,0.35-1.046,0.447C34.693,36.934,34.282,36.982,33.858,36.982z M31.885,36.268
					c0.559,0.275,1.222,0.415,1.973,0.415c0.4,0,0.787-0.045,1.149-0.135c0.359-0.088,0.68-0.225,0.953-0.406
					c0.269-0.177,0.487-0.403,0.647-0.672c0.158-0.264,0.239-0.583,0.239-0.946c0-0.296-0.049-0.555-0.146-0.767
					c-0.097-0.212-0.237-0.403-0.418-0.567c-0.186-0.168-0.414-0.322-0.679-0.458c-0.274-0.139-0.587-0.277-0.931-0.408
					c-0.266-0.104-0.502-0.2-0.71-0.289c-0.216-0.092-0.404-0.197-0.559-0.312c-0.163-0.123-0.288-0.264-0.372-0.421
					c-0.086-0.161-0.13-0.36-0.13-0.59c0-0.189,0.044-0.366,0.13-0.525c0.085-0.156,0.207-0.291,0.362-0.402
					c0.151-0.108,0.333-0.193,0.538-0.251c0.204-0.057,0.434-0.086,0.684-0.086c0.688,0,1.313,0.154,1.865,0.458v-0.921
					c-0.5-0.203-1.069-0.306-1.694-0.306c-0.372,0-0.737,0.048-1.088,0.142c-0.346,0.093-0.658,0.233-0.927,0.417
					c-0.264,0.18-0.479,0.407-0.637,0.673c-0.156,0.262-0.235,0.568-0.235,0.911c0,0.284,0.042,0.534,0.125,0.742
					c0.083,0.208,0.207,0.395,0.37,0.558c0.167,0.167,0.379,0.32,0.631,0.454c0.258,0.138,0.564,0.278,0.91,0.416
					c0.253,0.098,0.49,0.192,0.711,0.283c0.229,0.094,0.432,0.203,0.602,0.322c0.178,0.125,0.322,0.27,0.427,0.432
					c0.111,0.172,0.167,0.381,0.167,0.621c0,0.578-0.316,1.266-1.823,1.266c-0.766,0-1.483-0.212-2.136-0.631V36.268z"/>
			</g>
			<g>
				<path fill="#716F6E" d="M38.806,26.697c-0.228,0-0.421-0.078-0.581-0.232c-0.16-0.155-0.24-0.351-0.24-0.589
					s0.08-0.435,0.24-0.593s0.354-0.236,0.581-0.236c0.232,0,0.43,0.079,0.593,0.236s0.244,0.355,0.244,0.593
					c0,0.227-0.082,0.421-0.244,0.581S39.039,26.697,38.806,26.697z M39.426,36.646h-1.271v-7.934h1.271V36.646z"/>
				<path fill="#706E6D" d="M39.576,36.796h-1.571v-8.234h1.571V36.796z M38.305,36.496h0.971v-7.634h-0.971V36.496z M38.806,26.847
					c-0.266,0-0.497-0.092-0.685-0.274c-0.19-0.184-0.286-0.418-0.286-0.697c0-0.278,0.096-0.513,0.285-0.7
					c0.188-0.186,0.419-0.279,0.687-0.279c0.272,0,0.506,0.094,0.697,0.278c0.192,0.187,0.29,0.422,0.29,0.701
					c0,0.268-0.097,0.499-0.289,0.688C39.313,26.752,39.079,26.847,38.806,26.847z M38.806,25.197c-0.188,0-0.344,0.063-0.476,0.193
					c-0.132,0.129-0.196,0.289-0.196,0.486c0,0.197,0.064,0.354,0.195,0.481c0.268,0.259,0.699,0.255,0.964-0.007
					c0.134-0.132,0.2-0.287,0.2-0.474c0-0.197-0.065-0.355-0.199-0.485C39.16,25.26,39,25.197,38.806,25.197z"/>
			</g>
			<g>
				<path fill="#716F6E" d="M47.977,36.011c0,2.913-1.395,4.37-4.184,4.37c-0.981,0-1.839-0.186-2.572-0.558v-1.271
					c0.894,0.496,1.746,0.744,2.557,0.744c1.953,0,2.929-1.038,2.929-3.115v-0.868h-0.031c-0.604,1.012-1.513,1.519-2.727,1.519
					c-0.987,0-1.781-0.353-2.383-1.058s-0.903-1.652-0.903-2.84c0-1.348,0.324-2.42,0.973-3.215
					c0.648-0.795,1.535-1.193,2.662-1.193c1.069,0,1.862,0.429,2.378,1.286h0.031v-1.1h1.271V36.011z M46.707,33.059v-1.17
					c0-0.63-0.213-1.17-0.639-1.62c-0.426-0.449-0.957-0.674-1.592-0.674c-0.786,0-1.4,0.285-1.844,0.856s-0.667,1.37-0.667,2.398
					c0,0.883,0.213,1.59,0.639,2.119c0.426,0.53,0.991,0.794,1.693,0.794c0.713,0,1.292-0.253,1.739-0.759
					S46.707,33.849,46.707,33.059z"/>
				<path fill="#706E6D" d="M43.793,40.531c-1,0-1.889-0.193-2.64-0.574l-0.082-0.042v-1.618l0.223,0.124
					c0.867,0.481,1.703,0.725,2.484,0.725c1.87,0,2.779-0.97,2.779-2.965v-0.425c-0.624,0.814-1.499,1.226-2.608,1.226
					c-1.028,0-1.868-0.374-2.497-1.11c-0.623-0.73-0.938-1.718-0.938-2.937c0-1.377,0.338-2.491,1.006-3.31
					c0.675-0.829,1.609-1.249,2.778-1.249c0.962,0,1.721,0.337,2.26,1.004v-0.818h1.57v7.449
					C48.127,39.01,46.669,40.531,43.793,40.531z M41.371,39.729c0.691,0.333,1.506,0.501,2.422,0.501c2.714,0,4.034-1.38,4.034-4.22
					v-7.149h-0.971v1.1h-0.235l-0.075-0.072c-0.492-0.817-1.228-1.214-2.25-1.214c-1.074,0-1.93,0.383-2.545,1.138
					c-0.623,0.764-0.939,1.814-0.939,3.121c0,1.146,0.292,2.068,0.867,2.743c0.569,0.667,1.332,1.005,2.269,1.005
					c1.168,0,2.018-0.473,2.598-1.445l0.044-0.073h0.235l0.031,0.15v0.868c0,2.167-1.036,3.265-3.079,3.265
					c-0.765,0-1.573-0.216-2.407-0.644V39.729z M44.297,35.913c-0.747,0-1.356-0.286-1.81-0.85
					c-0.446-0.555-0.672-1.299-0.672-2.213c0-1.057,0.235-1.895,0.698-2.49c0.472-0.606,1.132-0.914,1.962-0.914
					c0.675,0,1.248,0.242,1.701,0.721c0.451,0.477,0.68,1.056,0.68,1.723v1.17c0,0.824-0.238,1.512-0.708,2.044
					C45.674,35.64,45.051,35.913,44.297,35.913z M44.475,29.745c-0.743,0-1.308,0.261-1.726,0.798
					c-0.421,0.541-0.635,1.317-0.635,2.306c0,0.844,0.204,1.525,0.606,2.025c0.4,0.497,0.916,0.739,1.577,0.739
					c0.674,0,1.206-0.232,1.627-0.708c0.42-0.476,0.633-1.097,0.633-1.846v-1.17c0-0.595-0.196-1.091-0.598-1.517
					C45.558,29.95,45.073,29.745,44.475,29.745z"/>
			</g>
			<g>
				<path fill="#716F6E" d="M56.357,36.646h-1.271v-4.571c0-1.653-0.615-2.479-1.844-2.479c-0.62,0-1.142,0.239-1.565,0.717
					c-0.424,0.478-0.635,1.091-0.635,1.84v4.494h-1.271V24.899h1.271v5.129h0.031c0.609-1.002,1.477-1.503,2.604-1.503
					c1.787,0,2.681,1.077,2.681,3.231V36.646z"/>
				<path fill="#706E6D" d="M56.507,36.796h-1.57v-4.721c0-1.567-0.554-2.33-1.694-2.33c-0.581,0-1.056,0.218-1.453,0.667
					c-0.396,0.447-0.598,1.032-0.598,1.74v4.644h-1.571V24.75h1.571v4.839c0.618-0.805,1.452-1.212,2.484-1.212
					c1.878,0,2.831,1.137,2.831,3.381V36.796z M55.237,36.496h0.971v-4.739c0-2.073-0.828-3.081-2.531-3.081
					c-1.08,0-1.89,0.468-2.476,1.431l-0.043,0.072h-0.234l-0.031-0.15v-4.979h-0.971v11.447h0.971v-4.344
					c0-0.784,0.227-1.436,0.673-1.939c0.451-0.509,1.015-0.767,1.677-0.767c1.323,0,1.994,0.885,1.994,2.629V36.496z"/>
			</g>
			<g>
				<path fill="#716F6E" d="M61.655,36.568c-0.3,0.166-0.695,0.248-1.186,0.248c-1.39,0-2.084-0.775-2.084-2.324v-4.696h-1.364
					v-1.084h1.364v-1.937l1.271-0.411v2.348h1.999v1.084h-1.999v4.471c0,0.532,0.09,0.912,0.271,1.139
					c0.181,0.228,0.48,0.341,0.899,0.341c0.32,0,0.597-0.088,0.829-0.263V36.568z"/>
				<path fill="#706E6D" d="M60.47,36.966c-1.483,0-2.234-0.833-2.234-2.474v-4.546h-1.364v-1.384h1.364v-1.896l1.571-0.507v2.404
					h1.999v1.384h-1.999v4.321c0,0.495,0.08,0.847,0.238,1.046c0.15,0.188,0.413,0.284,0.782,0.284c0.289,0,0.531-0.076,0.739-0.233
					l0.24-0.181v1.474L61.728,36.7C61.407,36.876,60.984,36.966,60.47,36.966z M57.171,29.646h1.364v4.846
					c0,1.463,0.633,2.174,1.935,2.174c0.421,0,0.769-0.064,1.036-0.19V35.75c-0.203,0.098-0.431,0.147-0.679,0.147
					c-0.465,0-0.807-0.134-1.017-0.397c-0.204-0.257-0.303-0.66-0.303-1.232v-4.621h1.999v-0.785h-1.999V26.57l-0.971,0.314v1.978
					h-1.364V29.646z"/>
			</g>
			<g>
				<path fill="#716F6E" d="M62.094,36.359v-1.364c0.692,0.511,1.454,0.767,2.286,0.767c1.116,0,1.673-0.372,1.673-1.116
					c0-0.212-0.048-0.391-0.143-0.539c-0.096-0.147-0.225-0.277-0.388-0.391s-0.354-0.216-0.573-0.306
					c-0.22-0.09-0.456-0.185-0.709-0.283c-0.352-0.14-0.66-0.28-0.926-0.422c-0.266-0.142-0.488-0.302-0.667-0.48
					s-0.312-0.381-0.403-0.608c-0.09-0.227-0.136-0.493-0.136-0.798c0-0.372,0.085-0.701,0.256-0.988s0.397-0.527,0.682-0.721
					s0.608-0.34,0.973-0.438c0.364-0.098,0.74-0.147,1.127-0.147c0.687,0,1.302,0.119,1.844,0.356v1.286
					c-0.583-0.382-1.255-0.573-2.015-0.573c-0.237,0-0.452,0.027-0.643,0.081c-0.191,0.054-0.355,0.131-0.492,0.229
					c-0.137,0.099-0.243,0.216-0.318,0.353c-0.075,0.137-0.112,0.288-0.112,0.454c0,0.207,0.038,0.379,0.112,0.519
					s0.185,0.263,0.329,0.372c0.145,0.108,0.32,0.207,0.527,0.294c0.207,0.088,0.441,0.183,0.705,0.287
					c0.351,0.134,0.666,0.272,0.945,0.415c0.279,0.142,0.516,0.302,0.712,0.48s0.348,0.383,0.454,0.616
					c0.105,0.232,0.159,0.509,0.159,0.829c0,0.393-0.086,0.733-0.26,1.023c-0.173,0.289-0.404,0.529-0.693,0.72
					c-0.289,0.191-0.623,0.333-1,0.426c-0.377,0.093-0.772,0.14-1.186,0.14C63.401,36.832,62.693,36.674,62.094,36.359z"/>
				<path fill="#706E6D" d="M64.217,36.982c-0.837,0-1.575-0.165-2.193-0.49l-0.08-0.042v-1.752l0.239,0.177
					c0.663,0.489,1.402,0.738,2.197,0.738c1.523,0,1.523-0.727,1.523-0.966c0-0.184-0.039-0.333-0.119-0.457
					c-0.084-0.129-0.201-0.248-0.348-0.35c-0.152-0.107-0.335-0.205-0.544-0.291c-0.219-0.09-0.454-0.184-0.706-0.282
					c-0.357-0.142-0.674-0.286-0.942-0.43c-0.278-0.148-0.514-0.319-0.702-0.507c-0.192-0.192-0.339-0.414-0.437-0.659
					c-0.097-0.244-0.146-0.531-0.146-0.853c0-0.397,0.093-0.755,0.277-1.064c0.181-0.304,0.425-0.563,0.726-0.768
					c0.297-0.202,0.639-0.357,1.018-0.459c0.376-0.101,0.769-0.152,1.166-0.152c0.705,0,1.346,0.124,1.904,0.369l0.09,0.039v1.662
					l-0.232-0.152c-0.556-0.364-1.206-0.549-1.933-0.549c-0.223,0-0.426,0.025-0.602,0.076c-0.172,0.049-0.322,0.118-0.445,0.206
					c-0.12,0.086-0.209,0.185-0.273,0.302c-0.063,0.116-0.094,0.241-0.094,0.382c0,0.18,0.032,0.331,0.095,0.448
					c0.063,0.119,0.16,0.228,0.287,0.323c0.135,0.101,0.302,0.194,0.496,0.276c0.206,0.087,0.439,0.182,0.701,0.285
					c0.353,0.135,0.675,0.276,0.958,0.42c0.289,0.147,0.54,0.317,0.746,0.503c0.211,0.191,0.375,0.415,0.489,0.665
					c0.114,0.251,0.172,0.551,0.172,0.891c0,0.418-0.094,0.789-0.281,1.1c-0.184,0.308-0.433,0.566-0.74,0.768
					c-0.302,0.2-0.654,0.35-1.046,0.447C65.052,36.934,64.641,36.982,64.217,36.982z M62.244,36.268
					c0.559,0.275,1.222,0.415,1.973,0.415c0.4,0,0.787-0.045,1.149-0.135c0.359-0.088,0.68-0.225,0.953-0.406
					c0.269-0.177,0.487-0.403,0.647-0.672c0.158-0.264,0.239-0.583,0.239-0.946c0-0.296-0.049-0.555-0.146-0.767
					c-0.097-0.212-0.237-0.403-0.417-0.567c-0.186-0.168-0.415-0.322-0.68-0.458c-0.274-0.14-0.587-0.277-0.931-0.408
					c-0.266-0.104-0.502-0.2-0.71-0.289c-0.216-0.092-0.404-0.197-0.559-0.312c-0.163-0.123-0.288-0.264-0.372-0.421
					c-0.086-0.161-0.13-0.36-0.13-0.59c0-0.189,0.044-0.366,0.13-0.525c0.085-0.156,0.207-0.291,0.362-0.402
					c0.151-0.108,0.333-0.193,0.538-0.251c0.204-0.057,0.434-0.086,0.684-0.086c0.688,0,1.313,0.154,1.865,0.458v-0.921
					c-0.5-0.203-1.069-0.306-1.694-0.306c-0.372,0-0.737,0.048-1.088,0.142c-0.346,0.093-0.658,0.233-0.927,0.417
					c-0.264,0.18-0.479,0.407-0.637,0.673c-0.156,0.262-0.235,0.568-0.235,0.911c0,0.284,0.042,0.534,0.125,0.742
					c0.083,0.208,0.207,0.395,0.37,0.558c0.167,0.167,0.379,0.32,0.631,0.454c0.258,0.138,0.564,0.278,0.91,0.416
					c0.253,0.098,0.49,0.192,0.711,0.283c0.229,0.094,0.432,0.203,0.602,0.322c0.178,0.125,0.322,0.27,0.427,0.432
					c0.111,0.172,0.167,0.381,0.167,0.621c0,0.578-0.316,1.266-1.823,1.266c-0.766,0-1.483-0.212-2.136-0.631V36.268z"/>
			</g>
		</g>
		<g>
			<g>
				<path fill="#716F6E" d="M19.088,53.29h-1.55l-1.859-3.115c-0.17-0.289-0.336-0.536-0.496-0.74
					c-0.16-0.204-0.324-0.371-0.492-0.5c-0.168-0.129-0.349-0.224-0.542-0.283c-0.194-0.06-0.412-0.089-0.655-0.089h-1.069v4.727
					h-1.302V42.179h3.316c0.485,0,0.934,0.061,1.344,0.182c0.411,0.121,0.767,0.306,1.069,0.554s0.539,0.557,0.709,0.926
					c0.17,0.37,0.256,0.802,0.256,1.298c0,0.388-0.058,0.743-0.174,1.065c-0.116,0.323-0.282,0.611-0.496,0.864
					c-0.214,0.253-0.473,0.469-0.775,0.647s-0.642,0.316-1.019,0.415v0.031c0.186,0.083,0.348,0.177,0.484,0.283
					c0.137,0.106,0.268,0.231,0.392,0.376c0.124,0.145,0.247,0.309,0.368,0.492c0.122,0.183,0.257,0.396,0.407,0.639L19.088,53.29z
					 M12.425,43.356v4.029h1.767c0.326,0,0.626-0.049,0.903-0.147s0.515-0.239,0.717-0.422c0.201-0.183,0.359-0.408,0.473-0.674
					c0.113-0.266,0.17-0.564,0.17-0.895c0-0.594-0.192-1.058-0.577-1.391c-0.385-0.333-0.941-0.5-1.67-0.5H12.425z"/>
				<path fill="#706E6D" d="M19.359,53.439h-1.905l-1.903-3.188c-0.167-0.283-0.33-0.526-0.485-0.724
					c-0.152-0.194-0.309-0.353-0.465-0.474c-0.154-0.118-0.32-0.205-0.495-0.258c-0.179-0.055-0.384-0.083-0.611-0.083h-0.919v4.727
					h-1.602V42.029h3.466c0.498,0,0.965,0.063,1.387,0.188c0.428,0.126,0.806,0.322,1.122,0.582c0.318,0.261,0.571,0.59,0.75,0.979
					c0.179,0.388,0.27,0.846,0.27,1.361c0,0.403-0.062,0.779-0.183,1.116c-0.121,0.337-0.297,0.644-0.522,0.91
					c-0.225,0.265-0.499,0.494-0.813,0.68c-0.224,0.132-0.47,0.244-0.734,0.333c0.077,0.046,0.149,0.095,0.215,0.146
					c0.145,0.112,0.284,0.246,0.414,0.397c0.129,0.151,0.257,0.322,0.379,0.507c0.123,0.184,0.258,0.398,0.409,0.643L19.359,53.439z
					 M17.624,53.14h1.194l-1.941-3.11c-0.149-0.242-0.284-0.454-0.404-0.636c-0.116-0.175-0.236-0.336-0.357-0.478
					c-0.116-0.136-0.241-0.255-0.369-0.355c-0.127-0.099-0.28-0.188-0.454-0.264l-0.089-0.04v-0.214l0.112-0.06
					c0.361-0.094,0.691-0.228,0.98-0.399c0.286-0.168,0.534-0.375,0.737-0.615c0.202-0.239,0.36-0.514,0.469-0.818
					c0.11-0.305,0.166-0.646,0.166-1.015c0-0.471-0.082-0.887-0.242-1.235c-0.16-0.347-0.385-0.641-0.668-0.873
					c-0.285-0.234-0.627-0.411-1.017-0.525c-0.395-0.117-0.833-0.176-1.302-0.176h-3.167V53.14h1.002v-4.727h1.219
					c0.256,0,0.492,0.032,0.699,0.096c0.208,0.064,0.407,0.167,0.59,0.307c0.176,0.136,0.351,0.312,0.518,0.526
					c0.164,0.208,0.334,0.463,0.508,0.757L17.624,53.14z M14.191,47.535h-1.917v-4.329h1.932c0.762,0,1.356,0.18,1.768,0.536
					c0.417,0.361,0.629,0.867,0.629,1.504c0,0.349-0.062,0.669-0.182,0.954c-0.122,0.285-0.293,0.529-0.51,0.726
					c-0.215,0.196-0.474,0.349-0.768,0.453C14.854,47.483,14.533,47.535,14.191,47.535z M12.575,47.235h1.617
					c0.307,0,0.594-0.047,0.853-0.138c0.256-0.091,0.48-0.223,0.666-0.392c0.185-0.168,0.331-0.377,0.436-0.623
					c0.105-0.246,0.158-0.527,0.158-0.835c0-0.554-0.172-0.972-0.525-1.278c-0.355-0.307-0.884-0.463-1.572-0.463h-1.632V47.235z"/>
			</g>
			<g>
				<path fill="#716F6E" d="M25.599,49.64h-5.602c0.021,0.883,0.258,1.565,0.713,2.045s1.08,0.721,1.875,0.721
					c0.894,0,1.715-0.294,2.464-0.883v1.193c-0.697,0.506-1.619,0.759-2.766,0.759c-1.121,0-2.001-0.36-2.642-1.081
					s-0.961-1.734-0.961-3.041c0-1.234,0.35-2.241,1.05-3.018c0.7-0.777,1.569-1.166,2.607-1.166c1.039,0,1.842,0.336,2.41,1.007
					c0.568,0.671,0.853,1.604,0.853,2.797V49.64z M24.297,48.563c-0.005-0.733-0.182-1.304-0.531-1.712
					c-0.349-0.408-0.833-0.612-1.453-0.612c-0.6,0-1.108,0.214-1.526,0.643c-0.418,0.429-0.677,0.989-0.775,1.681H24.297z"/>
				<path fill="#706E6D" d="M22.283,53.625c-1.16,0-2.087-0.38-2.754-1.131c-0.663-0.746-0.999-1.802-0.999-3.141
					c0-1.267,0.366-2.316,1.089-3.119c0.726-0.807,1.641-1.215,2.718-1.215c1.08,0,1.929,0.357,2.524,1.061
					c0.589,0.696,0.888,1.669,0.888,2.894v0.816h-5.596c0.042,0.767,0.266,1.37,0.666,1.792c0.423,0.447,1.017,0.674,1.766,0.674
					c0.855,0,1.653-0.287,2.371-0.852l0.243-0.19v1.579l-0.062,0.045C24.417,53.36,23.457,53.625,22.283,53.625z M22.337,45.319
					c-0.989,0-1.829,0.375-2.496,1.117c-0.671,0.745-1.012,1.727-1.012,2.917c0,1.263,0.311,2.252,0.923,2.941
					c0.608,0.684,1.459,1.031,2.53,1.031c1.075,0,1.955-0.231,2.616-0.687V51.82c-0.708,0.489-1.486,0.736-2.314,0.736
					c-0.834,0-1.502-0.258-1.984-0.768c-0.479-0.506-0.732-1.228-0.754-2.145l-0.003-0.153h5.605v-0.517
					c0-1.151-0.275-2.06-0.817-2.7C24.097,45.641,23.324,45.319,22.337,45.319z M24.448,48.713H19.84l0.024-0.171
					c0.102-0.721,0.377-1.315,0.816-1.765c0.445-0.457,0.995-0.688,1.634-0.688c0.663,0,1.189,0.224,1.566,0.664
					c0.371,0.434,0.562,1.042,0.567,1.809L24.448,48.713z M20.189,48.413h3.954c-0.027-0.622-0.191-1.115-0.491-1.465
					c-0.322-0.376-0.759-0.56-1.338-0.56c-0.562,0-1.027,0.196-1.419,0.598C20.536,47.354,20.299,47.833,20.189,48.413z"/>
			</g>
			<g>
				<path fill="#716F6E" d="M26.263,53.003v-1.364c0.692,0.511,1.454,0.767,2.286,0.767c1.116,0,1.673-0.372,1.673-1.116
					c0-0.212-0.048-0.391-0.143-0.539c-0.096-0.147-0.225-0.277-0.388-0.391s-0.354-0.216-0.573-0.306
					c-0.22-0.09-0.456-0.185-0.709-0.283c-0.352-0.14-0.66-0.28-0.926-0.422c-0.266-0.142-0.488-0.302-0.667-0.48
					s-0.312-0.381-0.403-0.608c-0.09-0.227-0.136-0.493-0.136-0.798c0-0.372,0.085-0.701,0.256-0.988s0.397-0.527,0.682-0.721
					s0.608-0.34,0.973-0.438c0.364-0.098,0.74-0.147,1.127-0.147c0.687,0,1.302,0.119,1.844,0.356v1.286
					c-0.583-0.382-1.255-0.573-2.015-0.573c-0.237,0-0.452,0.027-0.643,0.081c-0.191,0.054-0.355,0.131-0.492,0.229
					c-0.137,0.099-0.243,0.216-0.318,0.353c-0.075,0.137-0.112,0.288-0.112,0.454c0,0.207,0.038,0.379,0.112,0.519
					s0.185,0.263,0.329,0.372c0.145,0.108,0.32,0.207,0.527,0.294c0.207,0.088,0.441,0.183,0.705,0.287
					c0.351,0.134,0.666,0.272,0.945,0.415c0.279,0.142,0.516,0.302,0.712,0.48s0.348,0.383,0.454,0.616
					c0.105,0.232,0.159,0.509,0.159,0.829c0,0.393-0.086,0.733-0.26,1.023c-0.173,0.289-0.404,0.529-0.693,0.72
					c-0.289,0.191-0.623,0.333-1,0.426c-0.377,0.093-0.772,0.14-1.186,0.14C27.57,53.476,26.862,53.318,26.263,53.003z"/>
				<path fill="#706E6D" d="M28.386,53.625c-0.837,0-1.575-0.165-2.193-0.49l-0.08-0.042v-1.752l0.239,0.177
					c0.663,0.489,1.402,0.738,2.197,0.738c1.523,0,1.523-0.727,1.523-0.966c0-0.184-0.039-0.333-0.119-0.457
					c-0.084-0.129-0.201-0.248-0.348-0.35c-0.152-0.107-0.335-0.205-0.544-0.291c-0.219-0.09-0.454-0.184-0.706-0.282
					c-0.357-0.142-0.674-0.286-0.942-0.43c-0.278-0.148-0.514-0.319-0.702-0.507c-0.192-0.192-0.339-0.414-0.437-0.659
					c-0.097-0.244-0.146-0.531-0.146-0.853c0-0.397,0.093-0.755,0.277-1.064c0.181-0.304,0.425-0.563,0.726-0.768
					c0.297-0.202,0.639-0.357,1.018-0.459c0.376-0.101,0.769-0.152,1.166-0.152c0.705,0,1.346,0.124,1.904,0.369l0.09,0.039v1.662
					l-0.232-0.152c-0.556-0.364-1.206-0.549-1.933-0.549c-0.223,0-0.426,0.025-0.602,0.076c-0.172,0.049-0.322,0.118-0.445,0.206
					c-0.12,0.086-0.209,0.185-0.273,0.302c-0.063,0.116-0.094,0.241-0.094,0.382c0,0.18,0.032,0.331,0.095,0.448
					c0.063,0.119,0.16,0.228,0.287,0.323c0.135,0.101,0.302,0.194,0.496,0.276c0.206,0.087,0.439,0.182,0.701,0.285
					c0.353,0.135,0.675,0.276,0.958,0.42c0.289,0.147,0.54,0.317,0.746,0.503c0.211,0.191,0.375,0.415,0.489,0.665
					c0.114,0.251,0.172,0.551,0.172,0.891c0,0.418-0.094,0.789-0.281,1.1c-0.184,0.308-0.433,0.566-0.74,0.768
					c-0.302,0.2-0.654,0.35-1.046,0.447C29.221,53.577,28.81,53.625,28.386,53.625z M26.413,52.911
					c0.559,0.275,1.222,0.415,1.973,0.415c0.4,0,0.787-0.045,1.149-0.135c0.359-0.088,0.68-0.225,0.953-0.406
					c0.269-0.177,0.487-0.403,0.647-0.672c0.158-0.264,0.239-0.583,0.239-0.946c0-0.296-0.049-0.555-0.146-0.767
					c-0.097-0.212-0.237-0.403-0.417-0.567c-0.186-0.168-0.415-0.322-0.68-0.458c-0.274-0.14-0.587-0.277-0.931-0.408
					c-0.266-0.104-0.502-0.2-0.71-0.289c-0.216-0.092-0.404-0.197-0.559-0.312c-0.163-0.123-0.288-0.264-0.372-0.421
					c-0.086-0.161-0.13-0.36-0.13-0.59c0-0.189,0.044-0.366,0.13-0.525c0.085-0.156,0.207-0.291,0.362-0.402
					c0.151-0.108,0.333-0.193,0.538-0.251c0.204-0.057,0.434-0.086,0.684-0.086c0.688,0,1.313,0.154,1.865,0.458v-0.921
					c-0.5-0.203-1.069-0.306-1.694-0.306c-0.372,0-0.737,0.048-1.088,0.142c-0.346,0.093-0.658,0.233-0.927,0.417
					c-0.264,0.18-0.479,0.407-0.637,0.673c-0.156,0.262-0.235,0.568-0.235,0.911c0,0.284,0.042,0.534,0.125,0.742
					c0.083,0.208,0.207,0.395,0.37,0.558c0.167,0.167,0.379,0.32,0.631,0.454c0.258,0.138,0.564,0.278,0.91,0.416
					c0.253,0.098,0.49,0.192,0.711,0.283c0.229,0.094,0.432,0.203,0.602,0.322c0.178,0.125,0.322,0.27,0.427,0.432
					c0.111,0.172,0.167,0.381,0.167,0.621c0,0.578-0.316,1.266-1.823,1.266c-0.766,0-1.483-0.212-2.136-0.631V52.911z"/>
			</g>
			<g>
				<path fill="#716F6E" d="M39.06,49.64h-5.602c0.021,0.883,0.258,1.565,0.713,2.045s1.08,0.721,1.875,0.721
					c0.894,0,1.715-0.294,2.464-0.883v1.193c-0.697,0.506-1.619,0.759-2.766,0.759c-1.121,0-2.001-0.36-2.642-1.081
					s-0.961-1.734-0.961-3.041c0-1.234,0.35-2.241,1.05-3.018c0.7-0.777,1.569-1.166,2.607-1.166c1.039,0,1.842,0.336,2.41,1.007
					c0.568,0.671,0.853,1.604,0.853,2.797V49.64z M37.758,48.563c-0.005-0.733-0.182-1.304-0.531-1.712
					c-0.349-0.408-0.833-0.612-1.453-0.612c-0.6,0-1.108,0.214-1.526,0.643c-0.418,0.429-0.677,0.989-0.775,1.681H37.758z"/>
				<path fill="#706E6D" d="M35.744,53.625c-1.16,0-2.087-0.38-2.754-1.131c-0.663-0.746-0.999-1.802-0.999-3.141
					c0-1.267,0.366-2.316,1.089-3.119c0.726-0.807,1.641-1.215,2.718-1.215c1.08,0,1.929,0.357,2.524,1.061
					c0.589,0.696,0.888,1.669,0.888,2.894v0.816h-5.596c0.042,0.767,0.266,1.37,0.666,1.792c0.423,0.447,1.017,0.674,1.766,0.674
					c0.855,0,1.653-0.287,2.371-0.852l0.243-0.19v1.579l-0.062,0.045C37.878,53.36,36.917,53.625,35.744,53.625z M35.798,45.319
					c-0.989,0-1.829,0.375-2.496,1.117c-0.671,0.745-1.012,1.727-1.012,2.917c0,1.263,0.311,2.252,0.923,2.941
					c0.608,0.684,1.459,1.031,2.53,1.031c1.075,0,1.955-0.231,2.616-0.687V51.82c-0.708,0.489-1.486,0.736-2.314,0.736
					c-0.834,0-1.502-0.258-1.984-0.768c-0.479-0.506-0.732-1.228-0.754-2.145l-0.003-0.153h5.605v-0.517
					c0-1.151-0.275-2.06-0.817-2.7C37.558,45.641,36.785,45.319,35.798,45.319z M37.909,48.713h-4.608l0.024-0.171
					c0.102-0.721,0.377-1.315,0.816-1.765c0.445-0.457,0.995-0.688,1.634-0.688c0.663,0,1.189,0.224,1.566,0.664
					c0.371,0.434,0.562,1.042,0.567,1.809L37.909,48.713z M33.65,48.413h3.954c-0.027-0.622-0.191-1.115-0.491-1.465
					c-0.322-0.376-0.759-0.56-1.338-0.56c-0.562,0-1.027,0.196-1.419,0.598C33.997,47.354,33.76,47.833,33.65,48.413z"/>
			</g>
			<g>
				<path fill="#716F6E" d="M45.883,53.29h-1.271v-1.24h-0.031c-0.553,0.951-1.366,1.426-2.441,1.426
					c-0.79,0-1.409-0.209-1.855-0.628c-0.447-0.418-0.67-0.973-0.67-1.666c0-1.482,0.873-2.345,2.619-2.588l2.378-0.333
					c0-1.348-0.545-2.022-1.635-2.022c-0.956,0-1.818,0.325-2.588,0.976v-1.302c0.78-0.496,1.679-0.744,2.696-0.744
					c1.865,0,2.797,0.987,2.797,2.96V53.29z M44.612,49.276l-1.914,0.264c-0.589,0.083-1.033,0.229-1.333,0.438
					c-0.299,0.209-0.449,0.58-0.449,1.112c0,0.388,0.138,0.704,0.415,0.949c0.276,0.246,0.645,0.368,1.104,0.368
					c0.63,0,1.151-0.221,1.562-0.663c0.411-0.441,0.616-1,0.616-1.677V49.276z"/>
				<path fill="#706E6D" d="M42.141,53.625c-0.826,0-1.484-0.225-1.958-0.668c-0.477-0.445-0.718-1.043-0.718-1.775
					c0-1.562,0.925-2.483,2.749-2.736l2.247-0.315c-0.033-1.171-0.519-1.742-1.483-1.742c-0.915,0-1.753,0.316-2.491,0.941
					l-0.247,0.208v-1.708l0.069-0.044c0.801-0.509,1.735-0.767,2.777-0.767c1.956,0,2.947,1.046,2.947,3.11v5.31h-1.571V52.5
					C43.895,53.248,43.116,53.625,42.141,53.625z M42.978,46.089c0.814,0,1.785,0.377,1.785,2.172v0.13l-2.507,0.352
					c-1.676,0.233-2.49,1.031-2.49,2.439c0,0.655,0.204,1.164,0.623,1.556c0.416,0.39,1.006,0.587,1.753,0.587
					c1.027,0,1.783-0.442,2.311-1.351l0.043-0.075h0.236l0.031,0.15v1.09h0.971v-5.01c0-1.891-0.866-2.81-2.647-2.81
					c-0.954,0-1.81,0.228-2.546,0.677v0.908C41.272,46.363,42.091,46.089,42.978,46.089z M42.435,52.556
					c-0.496,0-0.9-0.137-1.204-0.406c-0.309-0.274-0.465-0.631-0.465-1.062c0-0.581,0.172-0.997,0.513-1.235
					c0.318-0.222,0.789-0.377,1.398-0.463l2.084-0.287v0.962c0,0.713-0.221,1.312-0.656,1.779
					C43.668,52.317,43.106,52.556,42.435,52.556z M44.462,49.448l-1.743,0.24c-0.562,0.079-0.989,0.217-1.268,0.412
					c-0.255,0.179-0.385,0.511-0.385,0.989c0,0.346,0.119,0.62,0.364,0.837c0.247,0.219,0.584,0.331,1.004,0.331
					c0.592,0,1.067-0.201,1.452-0.615c0.382-0.411,0.576-0.94,0.576-1.575V49.448z"/>
			</g>
			<g>
				<path fill="#716F6E" d="M51.638,46.642c-0.222-0.17-0.542-0.256-0.961-0.256c-0.542,0-0.996,0.256-1.36,0.767
					c-0.364,0.511-0.546,1.209-0.546,2.092v4.044H47.5v-7.934h1.271v1.635h0.031c0.181-0.558,0.457-0.993,0.829-1.306
					s0.788-0.469,1.248-0.469c0.331,0,0.583,0.036,0.759,0.108V46.642z"/>
				<path fill="#706E6D" d="M48.921,53.439H47.35v-8.234h1.571v1.125c0.166-0.302,0.371-0.557,0.613-0.76
					c0.398-0.334,0.851-0.504,1.344-0.504c0.354,0,0.621,0.039,0.816,0.12l0.093,0.038v1.722l-0.241-0.185
					c-0.194-0.149-0.487-0.225-0.87-0.225c-0.495,0-0.9,0.23-1.238,0.704c-0.344,0.483-0.518,1.158-0.518,2.005V53.439z
					 M47.65,53.14h0.971v-3.895c0-0.911,0.193-1.644,0.574-2.179c0.393-0.551,0.891-0.83,1.482-0.83c0.32,0,0.592,0.049,0.811,0.146
					v-0.95c-0.152-0.043-0.356-0.065-0.609-0.065c-0.427,0-0.804,0.142-1.151,0.434c-0.349,0.293-0.612,0.709-0.783,1.237
					l-0.034,0.104h-0.259l-0.031-0.15v-1.485H47.65V53.14z"/>
			</g>
			<g>
				<path fill="#716F6E" d="M57.425,52.925c-0.609,0.367-1.333,0.55-2.169,0.55c-1.131,0-2.044-0.368-2.739-1.104
					c-0.695-0.736-1.042-1.69-1.042-2.863c0-1.307,0.375-2.356,1.124-3.149s1.749-1.189,2.999-1.189
					c0.698,0,1.312,0.129,1.844,0.387v1.302c-0.589-0.413-1.219-0.62-1.891-0.62c-0.811,0-1.476,0.291-1.995,0.872
					s-0.779,1.344-0.779,2.29c0,0.93,0.244,1.664,0.732,2.201s1.143,0.806,1.964,0.806c0.692,0,1.343-0.23,1.952-0.689V52.925z"/>
				<path fill="#706E6D" d="M55.256,53.625c-1.169,0-2.127-0.387-2.848-1.151c-0.719-0.762-1.083-1.76-1.083-2.966
					c0-1.34,0.392-2.435,1.165-3.252c0.775-0.82,1.82-1.236,3.107-1.236c0.717,0,1.36,0.135,1.91,0.402l0.084,0.041v1.684
					l-0.236-0.166c-0.561-0.393-1.167-0.592-1.805-0.592c-0.773,0-1.39,0.269-1.883,0.822c-0.491,0.55-0.741,1.287-0.741,2.189
					c0,0.887,0.233,1.594,0.693,2.1c0.463,0.509,1.069,0.757,1.854,0.757c0.655,0,1.282-0.222,1.862-0.659l0.24-0.181v1.594
					l-0.073,0.043C56.872,53.433,56.116,53.625,55.256,53.625z M55.597,45.319c-1.201,0-2.173,0.384-2.89,1.143
					c-0.718,0.76-1.083,1.786-1.083,3.046c0,1.127,0.337,2.056,1.001,2.76c0.662,0.702,1.547,1.057,2.63,1.057
					c0.772,0,1.451-0.164,2.02-0.486v-0.834c-0.566,0.366-1.171,0.551-1.802,0.551c-0.861,0-1.56-0.288-2.075-0.854
					c-0.512-0.563-0.771-1.337-0.771-2.302c0-0.979,0.275-1.783,0.817-2.39c0.546-0.611,1.255-0.921,2.107-0.921
					c0.611,0,1.195,0.166,1.741,0.493v-0.93C56.801,45.431,56.231,45.319,55.597,45.319z"/>
			</g>
			<g>
				<path fill="#716F6E" d="M65.155,53.29h-1.271v-4.571c0-1.653-0.615-2.479-1.844-2.479c-0.62,0-1.142,0.239-1.565,0.717
					c-0.424,0.478-0.635,1.091-0.635,1.84v4.494h-1.271V41.543h1.271v5.129h0.031c0.609-1.002,1.477-1.503,2.604-1.503
					c1.787,0,2.681,1.077,2.681,3.231V53.29z"/>
				<path fill="#706E6D" d="M65.305,53.439h-1.57v-4.721c0-1.567-0.554-2.33-1.694-2.33c-0.581,0-1.056,0.218-1.453,0.667
					c-0.396,0.447-0.598,1.032-0.598,1.74v4.644h-1.571V41.393h1.571v4.839c0.618-0.805,1.452-1.212,2.484-1.212
					c1.878,0,2.831,1.137,2.831,3.381V53.439z M64.035,53.14h0.971V48.4c0-2.073-0.828-3.081-2.531-3.081
					c-1.08,0-1.89,0.468-2.476,1.431l-0.043,0.072h-0.234l-0.031-0.15v-4.979h-0.971V53.14h0.971v-4.344
					c0-0.784,0.227-1.436,0.673-1.939c0.451-0.509,1.015-0.767,1.677-0.767c1.323,0,1.994,0.885,1.994,2.629V53.14z"/>
			</g>
		</g>
		<g>
			<g>
				<path fill="#716F6E" d="M53.656,69.158h-5.765v-11.11h1.302v9.933h4.463V69.158z"/>
				<path fill="#706E6D" d="M53.806,69.309h-6.064V57.897h1.602v9.933h4.463V69.309z M48.042,69.008h5.465v-0.877h-4.463v-9.933
					h-1.002V69.008z"/>
			</g>
			<g>
				<path fill="#716F6E" d="M60.093,69.158h-1.271v-1.239h-0.031c-0.553,0.95-1.366,1.425-2.441,1.425
					c-0.79,0-1.409-0.209-1.855-0.627c-0.447-0.419-0.67-0.974-0.67-1.666c0-1.482,0.873-2.345,2.619-2.588l2.378-0.333
					c0-1.349-0.545-2.022-1.635-2.022c-0.956,0-1.818,0.325-2.588,0.977v-1.302c0.78-0.496,1.679-0.744,2.696-0.744
					c1.865,0,2.797,0.986,2.797,2.96V69.158z M58.822,65.145l-1.914,0.264c-0.589,0.083-1.033,0.229-1.333,0.438
					c-0.299,0.209-0.449,0.58-0.449,1.112c0,0.387,0.138,0.703,0.415,0.949c0.276,0.245,0.645,0.367,1.104,0.367
					c0.63,0,1.151-0.221,1.562-0.662s0.616-1.001,0.616-1.678V65.145z"/>
				<path fill="#706E6D" d="M56.35,69.494c-0.826,0-1.484-0.225-1.958-0.668c-0.477-0.446-0.718-1.044-0.718-1.775
					c0-1.562,0.925-2.482,2.749-2.736L58.67,64c-0.033-1.172-0.519-1.742-1.483-1.742c-0.915,0-1.753,0.316-2.491,0.94l-0.247,0.209
					V61.7l0.069-0.045c0.801-0.509,1.735-0.768,2.777-0.768c1.956,0,2.947,1.047,2.947,3.11v5.311h-1.571v-0.939
					C58.104,69.116,57.326,69.494,56.35,69.494z M57.187,61.957c0.814,0,1.785,0.377,1.785,2.173v0.131l-2.507,0.351
					c-1.676,0.233-2.49,1.031-2.49,2.439c0,0.654,0.204,1.163,0.623,1.557c0.416,0.389,1.006,0.586,1.753,0.586
					c1.027,0,1.783-0.441,2.311-1.35l0.043-0.075h0.236l0.031,0.15v1.089h0.971v-5.01c0-1.891-0.866-2.81-2.647-2.81
					c-0.954,0-1.81,0.228-2.546,0.677v0.908C55.481,62.231,56.3,61.957,57.187,61.957z M56.645,68.425
					c-0.496,0-0.9-0.137-1.204-0.405c-0.309-0.275-0.465-0.632-0.465-1.062c0-0.582,0.173-0.997,0.513-1.235
					c0.322-0.225,0.779-0.376,1.398-0.463l2.084-0.287v0.962c0,0.713-0.221,1.312-0.656,1.78
					C57.877,68.186,57.315,68.425,56.645,68.425z M58.672,65.316l-1.743,0.24c-0.562,0.079-0.989,0.218-1.268,0.412
					c-0.255,0.179-0.385,0.511-0.385,0.989c0,0.345,0.119,0.619,0.364,0.837c0.247,0.219,0.584,0.329,1.004,0.329
					c0.592,0,1.067-0.2,1.452-0.614c0.382-0.41,0.576-0.94,0.576-1.575V65.316z"/>
			</g>
			<g>
				<path fill="#716F6E" d="M63.011,68.012H62.98v1.146h-1.271V57.411h1.271v5.208h0.031c0.625-1.055,1.539-1.581,2.743-1.581
					c1.017,0,1.814,0.355,2.39,1.065c0.576,0.71,0.864,1.662,0.864,2.855c0,1.327-0.323,2.39-0.968,3.188
					c-0.646,0.798-1.529,1.196-2.65,1.196C64.341,69.344,63.548,68.9,63.011,68.012z M62.98,64.812v1.107
					c0,0.656,0.213,1.213,0.639,1.67s0.967,0.686,1.623,0.686c0.77,0,1.373-0.294,1.809-0.883s0.655-1.407,0.655-2.456
					c0-0.884-0.204-1.575-0.612-2.077c-0.408-0.501-0.961-0.751-1.658-0.751c-0.739,0-1.333,0.257-1.782,0.771
					C63.205,63.393,62.98,64.036,62.98,64.812z"/>
				<path fill="#706E6D" d="M65.39,69.494c-0.95,0-1.708-0.353-2.26-1.047v0.861h-1.571V57.261h1.571v4.909
					c0.639-0.851,1.52-1.282,2.624-1.282c1.06,0,1.903,0.378,2.507,1.121c0.595,0.734,0.897,1.727,0.897,2.95
					c0,1.355-0.337,2.46-1.001,3.283C67.483,69.072,66.553,69.494,65.39,69.494z M62.83,67.861h0.234l0.075,0.073
					c0.512,0.847,1.249,1.259,2.25,1.259c1.083,0,1.912-0.373,2.533-1.141c0.621-0.768,0.935-1.809,0.935-3.094
					c0-1.152-0.279-2.082-0.831-2.761c-0.543-0.67-1.309-1.01-2.273-1.01c-1.158,0-2.013,0.493-2.614,1.507l-0.043,0.074h-0.235
					l-0.031-0.15v-5.058h-0.971v11.446h0.971V67.861z M65.242,68.425c-0.696,0-1.279-0.247-1.733-0.733
					c-0.451-0.483-0.679-1.08-0.679-1.772v-1.107c0-0.809,0.239-1.492,0.711-2.032c0.477-0.546,1.115-0.822,1.895-0.822
					c0.742,0,1.338,0.271,1.774,0.807c0.429,0.527,0.646,1.258,0.646,2.172c0,1.076-0.23,1.933-0.684,2.545
					C66.708,68.107,66.059,68.425,65.242,68.425z M65.436,62.258c-0.7,0-1.246,0.235-1.669,0.719
					c-0.422,0.484-0.637,1.102-0.637,1.835v1.107c0,0.623,0.196,1.136,0.599,1.567c0.4,0.43,0.895,0.638,1.513,0.638
					c0.726,0,1.278-0.269,1.688-0.821c0.415-0.561,0.625-1.356,0.625-2.367c0-0.843-0.195-1.51-0.578-1.982
					C66.597,62.485,66.092,62.258,65.436,62.258z"/>
			</g>
		</g>
	</g>
	<g>
		<g>
			<path fill="#716F6E" d="M167.016,57.031h-16.448l1.032,1.355c-4.275,2.158-8.808,3.736-13.595,4.734l-1.072-1.963
				c4.437-0.741,8.652-2.117,12.645-4.127h-6.434V41.857h23.873V57.031z M148.828,37.933h-11.593v-2.084h11.593V37.933z
				 M148.504,30.467h-10.439v-1.983h10.439V30.467z M164.871,46.167V43.8h-19.523v2.367H164.871z M164.871,50.598v-2.569h-19.523
				v2.569H164.871z M164.871,55.069v-2.61h-19.523v2.61H164.871z M173.227,39.248l-0.911,2.023
				c-5.301-0.782-9.428-2.394-12.382-4.835c-2.374,2.279-5.537,3.851-9.488,4.714l-1.113-1.982
				c5.084-0.782,8.591-2.853,10.521-6.211l2.266,0.405c-0.081,0.337-0.398,0.877-0.951,1.619
				C163.961,37.272,167.98,38.695,173.227,39.248z M172.357,31.661c-1.403,1.983-2.698,3.548-3.884,4.694l-1.578-1.497
				c1.065-1.079,2.07-2.252,3.014-3.521h-15.153c-1.12,1.417-2.381,2.658-3.783,3.723l-1.437-1.436
				c2.374-1.781,4.377-4.215,6.009-7.304l2.023,0.708l-1.315,2.286h16.104V31.661z M172.984,61.26l-0.991,1.901
				c-4.033-1.511-8.039-2.67-12.018-3.479l1.032-1.861C165.31,58.697,169.302,59.844,172.984,61.26z"/>
			<path fill="#716F6E" d="M172.351,64.097l-0.622-0.233c-3.973-1.488-7.978-2.648-11.904-3.446l-1.002-0.204l1.348-2.432h-8.09
				l0.661,0.869l-0.805,0.406c-4.313,2.177-8.95,3.792-13.78,4.799l-0.544,0.113l-1.844-3.377l1.04-0.174
				c3.205-0.535,6.323-1.419,9.309-2.637h-3.724V41.107h7.17l-1.361-2.425h-11.717v-3.584h13.093v3.269
				c4.632-0.783,7.87-2.729,9.626-5.786l0.263-0.458l3.567,0.637l-0.185,0.773c-0.08,0.333-0.29,0.751-0.653,1.293
				c2.643,1.94,6.375,3.175,11.109,3.674l1.031,0.109l-1.569,3.485l-0.561-0.083c-5.115-0.755-9.228-2.299-12.236-4.591
				c-1.788,1.581-3.983,2.814-6.555,3.686h14.35v16.674h-3.492c3.17,0.771,6.179,1.701,8.979,2.778l0.785,0.302L172.351,64.097z
				 M138.089,61.713l0.305,0.558c4.206-0.92,8.256-2.315,12.058-4.153l-0.378-0.496l-0.16,0.08
				C146.182,59.579,142.209,60.927,138.089,61.713z M161.124,59.157c3.476,0.758,7.003,1.788,10.51,3.071l0.294-0.565
				c-3.258-1.203-6.794-2.21-10.533-2.996L161.124,59.157z M149.054,56.281h17.212V42.607h-22.373v13.674H149.054z M159.897,35.432
				l0.515,0.426c2.729,2.256,6.581,3.797,11.454,4.585l0.257-0.57c-4.881-0.641-8.723-2.09-11.431-4.314l-0.553-0.454l0.427-0.574
				c0.18-0.241,0.32-0.442,0.43-0.609l-0.769-0.137c-1.942,3.052-5.207,5.045-9.724,5.938l0.32,0.57
				c3.548-0.852,6.435-2.33,8.589-4.398L159.897,35.432z M137.985,37.183h10.093v-0.584h-10.093V37.183z M165.621,55.819h-21.023
				v-4.11h21.023V55.819z M146.098,54.319h18.023v-1.11h-18.023V54.319z M165.621,51.348h-21.023v-4.069h21.023V51.348z
				 M146.098,49.848h18.023v-1.069h-18.023V49.848z M165.621,46.917h-21.023V43.05h21.023V46.917z M146.098,45.417h18.023V44.55
				h-18.023V45.417z M168.478,37.393l-2.654-2.518l0.538-0.544c0.694-0.703,1.368-1.454,2.012-2.244h-13.258
				c-1.098,1.344-2.338,2.544-3.689,3.57l-0.521,0.396l-2.511-2.51l0.692-0.519c2.274-1.706,4.224-4.079,5.796-7.054l0.301-0.571
				l3.486,1.22l-1.12,1.945h15.558v3.335l-0.138,0.195c-1.424,2.012-2.761,3.627-3.976,4.8L168.478,37.393z M167.959,34.833
				l0.499,0.473c0.973-1.013,2.029-2.316,3.149-3.885v-1.357h-16.651l1.511-2.627l-0.568-0.199c-1.46,2.62-3.217,4.785-5.236,6.452
				l0.369,0.369c1.146-0.931,2.198-2.001,3.135-3.187l0.225-0.285h17.01l-0.892,1.198C169.708,32.862,168.853,33.885,167.959,34.833
				z M149.254,31.217h-11.939v-3.483h11.939V31.217z M138.814,29.717h8.939v-0.483h-8.939V29.717z"/>
		</g>
		<g>
			<path fill="#716F6E" d="M184.456,45.135c-0.971,4.721-2.252,8.612-3.844,11.673l-2.084-0.91
				c1.619-2.981,2.947-6.778,3.986-11.391L184.456,45.135z M195.199,42.141h-6.393v20.677h-2.145V42.141h-7.668v-1.982h7.668V26.481
				h2.145v13.677h6.393V42.141z M184.213,36.84l-2.063,0.829c-0.473-2.023-1.484-4.491-3.035-7.405l1.861-0.829
				C182.541,32.214,183.619,34.682,184.213,36.84z M195.401,51.548l-2.165,0.708c-0.324-1.875-1.181-4.235-2.569-7.081l1.922-0.668
				C193.978,47.368,194.916,49.714,195.401,51.548z M195.725,30.184c-0.89,3.062-1.895,5.645-3.015,7.749l-1.982-0.971
				c1.214-2.036,2.246-4.545,3.095-7.526L195.725,30.184z M214.621,51.548l-4.269,0.83v10.521h-2.104V52.803l-12.847,2.408
				l-0.283-2.084l13.13-2.488V26.603h2.104v23.63l3.986-0.749L214.621,51.548z M205.254,46.491l-1.619,1.659
				c-1.403-2.09-3.662-4.396-6.778-6.919l1.558-1.518C201.099,41.885,203.379,44.144,205.254,46.491z M205.962,35.323l-1.619,1.598
				c-1.672-1.888-3.891-3.776-6.656-5.665l1.437-1.538C201.417,31.175,203.696,33.043,205.962,35.323z"/>
			<path fill="#716F6E" d="M211.102,63.648h-3.604v-9.942l-12.734,2.386l-0.461-3.396l-1.657,0.542l-0.148-0.855
				c-0.31-1.795-1.152-4.109-2.504-6.879l-0.371-0.76l3.35-1.165l0.292,0.6c1.404,2.891,2.367,5.305,2.862,7.176l0.181,0.685
				l-0.703,0.23l11.894-2.254V25.853h3.604V49.33l3.872-0.727l0.487,3.547l-4.358,0.847V63.648z M208.998,62.148h0.604V51.76
				l4.18-0.812l-0.08-0.58l-4.1,0.77V27.353h-0.604v23.906l-13.042,2.472l0.082,0.597l12.96-2.429V62.148z M191.706,45.609
				c1.017,2.171,1.72,4.072,2.096,5.674l0.68-0.223c-0.469-1.538-1.233-3.424-2.279-5.624L191.706,45.609z M189.556,63.567h-3.645
				V42.891h-7.668v-3.482h7.668V25.731h3.645v13.677h6.393v1.66l2.421-2.357l0.518,0.419c2.715,2.197,5.054,4.517,6.953,6.893
				l0.414,0.518l-2.727,2.793l-0.514-0.767c-1.354-2.018-3.584-4.291-6.627-6.754l-0.437-0.354v1.431h-6.393V63.567z
				 M187.411,62.067h0.645V41.391h6.393v-0.482h-6.393V27.231h-0.645v13.677h-7.668v0.482h7.668V62.067z M197.981,41.183
				c2.48,2.064,4.406,4.009,5.745,5.8l0.524-0.537c-1.628-1.963-3.572-3.885-5.792-5.728L197.981,41.183z M180.954,57.776
				l-3.475-1.518l0.39-0.718c1.577-2.905,2.894-6.672,3.914-11.198l0.18-0.801l3.363,1.087l-0.136,0.658
				c-0.98,4.766-2.297,8.759-3.913,11.868L180.954,57.776z M179.566,55.533l0.695,0.304c1.337-2.745,2.453-6.167,3.321-10.196
				l-0.522-0.168C182.122,49.424,180.949,52.801,179.566,55.533z M193.031,38.925l-3.365-1.648l0.417-0.7
				c1.175-1.97,2.19-4.442,3.018-7.347l0.227-0.795l3.308,1.302l-0.191,0.657c-0.9,3.096-1.934,5.751-3.073,7.892L193.031,38.925z
				 M191.775,36.64l0.604,0.296c0.882-1.774,1.698-3.889,2.431-6.306l-0.5-0.196C193.589,32.8,192.739,34.881,191.775,36.64z
				 M181.618,38.691l-0.199-0.852c-0.456-1.951-1.454-4.381-2.966-7.223l-0.378-0.71l3.22-1.434l0.335,0.595
				c1.587,2.818,2.699,5.366,3.307,7.574l0.178,0.645L181.618,38.691z M180.15,30.625c1.171,2.276,2.012,4.298,2.51,6.032
				l0.642-0.258c-0.556-1.782-1.444-3.794-2.648-5.998L180.15,30.625z M204.307,38.011l-0.525-0.593
				c-1.624-1.833-3.816-3.698-6.518-5.542l-0.722-0.493L199,28.752l0.525,0.333c2.328,1.479,4.672,3.4,6.968,5.708l0.531,0.534
				L204.307,38.011z M198.827,31.135c2.204,1.559,4.063,3.137,5.544,4.705l0.525-0.518c-1.872-1.826-3.769-3.38-5.653-4.631
				L198.827,31.135z"/>
		</g>
		<g>
			<path fill="#716F6E" d="M228.216,48.494c-2.252,6.285-4.572,11.006-6.959,14.162l-1.74-1.437
				c2.617-3.573,4.856-8.207,6.717-13.898L228.216,48.494z M228.338,42.485l-1.417,1.74c-1.888-1.902-4.249-3.81-7.081-5.726
				l1.376-1.659C224.076,38.782,226.449,40.664,228.338,42.485z M228.621,31.883l-1.355,1.821c-2.077-2.063-4.316-3.918-6.717-5.563
				l1.294-1.74C224.582,28.262,226.841,30.09,228.621,31.883z M254.396,59.419c0,0.903-0.273,1.679-0.819,2.326
				c-0.547,0.647-1.275,1.019-2.186,1.113c-0.91,0.094-1.878,0.142-2.903,0.142h-1.538L246,60.916
				c2.94,0.054,4.717,0.003,5.331-0.152c0.613-0.154,0.921-0.617,0.921-1.386V29.799h-20.313v33.059h-2.063V27.736h24.521V59.419z
				 M249.723,36.759h-15.538v-2.023h15.538V36.759z M248.185,55.575h-12.179V41.534h12.179V55.575z M245.959,53.551v-9.954h-7.81
				v9.954H245.959z"/>
			<path fill="#716F6E" d="M248.488,63.75h-2.02l-1.645-3.605l1.19,0.021c0.75,0.014,1.425,0.021,2.022,0.021
				c2.19,0,2.89-0.094,3.111-0.15c0.15-0.037,0.354-0.089,0.354-0.658V30.549h-18.813v33.059h-3.563V48.18l-0.203,0.567
				c-2.268,6.329-4.646,11.161-7.067,14.361l-0.472,0.624l-2.89-2.385l0.418-0.571c2.558-3.492,4.781-8.098,6.609-13.688
				l0.291-0.889l3.314,1.961v-5.455l-2.149,2.639l-0.587-0.592c-1.844-1.857-4.189-3.752-6.969-5.633l-0.686-0.463l2.339-2.82
				l0.563,0.383c2.879,1.956,5.309,3.881,7.221,5.725l0.267,0.257v-9.74l-1.775,2.384l-0.614-0.609
				c-2.034-2.021-4.259-3.864-6.612-5.477l-0.643-0.441l2.188-2.942l0.594,0.404c2.75,1.869,5.058,3.735,6.861,5.546v-4.341h26.021
				v32.433c0,1.08-0.335,2.025-0.996,2.81c-0.674,0.798-1.576,1.261-2.682,1.376C250.531,63.701,249.528,63.75,248.488,63.75z
				 M247.433,62.25h1.055c0.988,0,1.939-0.046,2.826-0.138c0.716-0.074,1.269-0.353,1.689-0.852
				c0.433-0.512,0.643-1.115,0.643-1.842V28.486h-23.021v33.623h0.563V29.049h21.813v30.329c0,1.105-0.542,1.875-1.488,2.113
				c-0.331,0.084-1.054,0.195-3.478,0.195c-0.271,0-0.559-0.001-0.862-0.004L247.433,62.25z M220.534,61.086l0.587,0.484
				c2.099-2.971,4.174-7.252,6.179-12.748l-0.648-0.384C224.93,53.49,222.876,57.737,220.534,61.086z M220.942,38.345
				c2.284,1.586,4.268,3.186,5.917,4.768l0.457-0.562c-1.639-1.52-3.639-3.099-5.96-4.706L220.942,38.345z M221.612,27.968
				c1.958,1.389,3.824,2.932,5.563,4.601l0.454-0.609c-1.533-1.48-3.417-3-5.616-4.531L221.612,27.968z M248.935,56.325h-13.679
				V40.784h13.679V56.325z M236.755,54.825h10.679V42.284h-10.679V54.825z M246.709,54.301h-9.31V42.848h9.31V54.301z M238.9,52.801
				h6.31v-8.454h-6.31V52.801z M250.473,37.509h-17.038v-3.523h17.038V37.509z M234.935,36.009h14.038v-0.523h-14.038V36.009z"/>
		</g>
		<g>
			<path fill="#716F6E" d="M297.328,46.834l-1.336,1.861c-2.414-0.917-4.747-2.063-7-3.439v1.7h-17.804v-1.538
				c-3.21,1.699-6.137,2.833-8.78,3.399l-1.133-1.861c4.113-0.836,7.694-2.367,10.743-4.593c-1.363-1.524-2.854-2.812-4.472-3.864
				c-1.295,0.877-2.374,1.544-3.237,2.003l-1.618-1.416c3.452-1.727,6.353-3.992,8.699-6.798l2.023,0.83l-1.355,1.497l7.587,1.699
				c-1.39,3.278-4.033,6.191-7.931,8.74h16.954c-3.399-2.145-6.178-5.071-8.336-8.781l1.78-1.011c1.134,2.023,2.502,3.77,4.107,5.24
				c1.604-1.538,2.987-3.075,4.147-4.613h-6.13v-1.78h8.497v1.78c-1.174,1.808-2.833,3.783-4.978,5.928
				C290.334,43.854,293.524,45.526,297.328,46.834z M274.628,56.404c-2.765,1.861-6.582,3.756-11.451,5.685l-1.396-1.881
				c3.654-1.2,7.425-2.995,11.31-5.382L274.628,56.404z M296.215,35.93h-2.084v-4.471h-29.497v4.35h-2.104v-6.292h16.023
				c-0.229-0.634-0.668-1.45-1.314-2.448l2.063-0.749c0.688,1.12,1.227,2.185,1.618,3.196h15.295V35.93z M295.911,52.762h-15.659
				v10.055h-2.104V52.762h-15.417v-2.043h33.18V52.762z M263.562,44.104l-0.081-1.821c1.888-0.296,3.749-0.782,5.584-1.457
				l0.223,1.861C267.196,43.402,265.287,43.874,263.562,44.104z M276.651,37.589l-6.333-1.315c-0.525,0.513-0.903,0.857-1.133,1.032
				c0.742,0.485,1.568,1.133,2.479,1.942c0.91,0.81,1.581,1.39,2.013,1.74C275.094,39.68,276.085,38.546,276.651,37.589z
				 M296.822,60.592l-1.315,1.7c-3.075-2.158-6.831-4.121-11.269-5.888l1.314-1.659C289.667,56.351,293.423,58.299,296.822,60.592z"
				/>
			<path fill="#716F6E" d="M281.002,63.567h-3.604V53.512h-15.417v-3.543h34.68v3.543h-15.659V63.567z M278.898,62.067h0.604V52.012
				h15.659v-0.543h-31.68v0.543h15.417V62.067z M295.662,63.317l-0.586-0.411c-3.015-2.116-6.755-4.069-11.115-5.805l-0.937-0.373
				l2.284-2.884l0.517,0.202c4.147,1.619,7.988,3.612,11.416,5.923l0.664,0.448L295.662,63.317z M285.447,56.085
				c3.801,1.571,7.124,3.312,9.9,5.187l0.388-0.502c-3.021-1.969-6.359-3.689-9.94-5.123L285.447,56.085z M262.918,62.998
				l-2.358-3.178l0.987-0.325c3.582-1.176,7.334-2.962,11.151-5.308l0.511-0.314l2.583,2.651l-0.745,0.502
				c-2.795,1.882-6.695,3.819-11.594,5.76L262.918,62.998z M262.995,60.586l0.439,0.593c4.124-1.658,7.486-3.305,10.02-4.905
				l-0.483-0.497C269.574,57.824,266.226,59.438,262.995,60.586z M262.045,49.662l-1.965-3.228l1.046-0.213
				c2.538-0.516,4.885-1.312,7.016-2.377c-1.601,0.483-3.104,0.819-4.481,1.003l-0.812,0.108l-0.147-3.31l0.663-0.104
				c0.276-0.043,0.554-0.091,0.83-0.144l-2.837-2.483l0.998-0.5c3.179-1.589,5.907-3.676,8.116-6.207h-5.088v4.35h-3.604v-7.792
				h15.603c-0.207-0.384-0.466-0.815-0.773-1.29l-0.512-0.791l3.524-1.279l0.319,0.521c0.601,0.978,1.099,1.931,1.484,2.839h15.54
				v7.914h-3.584v-0.408l-0.017,0.026c-1.083,1.668-2.587,3.495-4.475,5.439c2.382,1.75,5.299,3.225,8.683,4.388l0.953,0.328
				l-2.261,3.148l-0.539-0.205c-2.041-0.775-4.048-1.724-5.983-2.827v1.136h-19.304v-1.059c-2.838,1.416-5.482,2.391-7.873,2.903
				L262.045,49.662z M262.462,47.463l0.307,0.503c2.38-0.571,5.028-1.616,7.882-3.112l0.654-0.427
				c3.421-2.238,5.862-4.786,7.27-7.584l-7.936-1.777l1.502-1.659l-0.532-0.218c-2.108,2.416-4.659,4.448-7.599,6.055l0.398,0.349
				c0.758-0.429,1.67-1.003,2.718-1.714l0.412-0.279l0.418,0.271c1.665,1.083,3.22,2.426,4.621,3.993l0.553,0.617l-0.669,0.489
				C269.598,45.059,266.239,46.568,262.462,47.463z M289.299,44.565l0.084,0.051c2.036,1.244,4.166,2.309,6.339,3.17l0.416-0.58
				c-3.46-1.28-6.433-2.893-8.845-4.801l-0.661-0.523l0.596-0.596c2.025-2.025,3.625-3.915,4.758-5.622v-0.806h-6.997v0.28h6.886
				l-0.907,1.202c-1.178,1.562-2.601,3.144-4.228,4.703l-0.507,0.486l-0.519-0.474c-1.479-1.354-2.781-2.958-3.876-4.774
				l-0.467,0.265c2.032,3.284,4.619,5.931,7.698,7.874L289.299,44.565z M271.938,46.206h16.304v-0.402h-16.304V46.206z
				 M274.065,44.304h12.229c-2.441-1.897-4.536-4.26-6.251-7.052C278.812,39.823,276.808,42.187,274.065,44.304z M264.259,42.911
				l0.015,0.325c1.296-0.223,2.702-0.581,4.196-1.067l-0.039-0.327C267.058,42.3,265.66,42.658,264.259,42.911z M269.871,41.253
				l0.183,1.527c0.281-0.174,0.559-0.353,0.831-0.537C270.555,41.9,270.217,41.57,269.871,41.253z M267.548,39.402
				c-1.129,0.752-2.099,1.344-2.887,1.763l-0.425,0.226c1.476-0.28,2.945-0.683,4.383-1.201
				C268.269,39.914,267.911,39.651,267.548,39.402z M283.854,36.639c0.713,1.03,1.502,1.974,2.36,2.822
				c0.949-0.939,1.819-1.883,2.601-2.822H283.854z M282.398,34.237l0.369,0.658c0.229,0.41,0.47,0.809,0.721,1.196v-2.733h9.893
				v-1.15h-20.207l1.514,0.621l-1.209,1.335l6.49,1.454L282.398,34.237z M294.881,35.18h0.584v-4.914h-15.059l-0.186-0.479
				c-0.313-0.808-0.73-1.664-1.245-2.551l-0.611,0.222c0.415,0.699,0.709,1.293,0.894,1.803l0.364,1.005h-16.343v4.792h0.604v-4.35
				h30.997V35.18z M273.708,41.979l-0.504-0.41c-0.438-0.355-1.117-0.942-2.038-1.762c-0.879-0.781-1.684-1.412-2.391-1.875
				l-0.888-0.581l0.843-0.644c0.143-0.109,0.442-0.366,1.063-0.973l0.286-0.279l7.751,1.61l-0.534,0.903
				c-0.61,1.032-1.628,2.199-3.111,3.568L273.708,41.979z M270.396,37.238c0.553,0.411,1.144,0.896,1.766,1.449
				c0.601,0.534,1.096,0.967,1.484,1.299c0.714-0.687,1.297-1.32,1.745-1.893l-4.837-1.005
				C270.5,37.141,270.447,37.19,270.396,37.238z"/>
		</g>
		<g>
			<path fill="#716F6E" d="M338.844,38.54h-6.596l-0.364,4.188h-23.125l0.385-4.188h-6.353v-1.578h6.555l0.445-4.006h23.044
				l-0.405,4.006h6.414V38.54z M333.583,57.314h-16.771l0.91,1.295c-4.519,2.4-8.983,3.864-13.394,4.391l-1.234-1.923
				c4.572-0.485,8.909-1.739,13.009-3.763h-7.991V44.852h25.472V57.314z M337.306,34.655h-2.104V30.75h-28.749v3.743h-2.124V28.97
				h15.336c-0.338-0.701-0.695-1.295-1.072-1.781l1.982-0.708c0.351,0.513,0.836,1.342,1.457,2.489h15.274V34.655z M331.479,48.453
				v-1.902h-21.386v1.902H331.479z M331.479,52.054v-1.942h-21.386v1.942H331.479z M331.479,55.656v-1.942h-21.386v1.942H331.479z
				 M319.583,38.54h-8.295l-0.243,2.489h8.336L319.583,38.54z M319.987,34.615h-8.315l-0.263,2.347h8.376L319.987,34.615z
				 M330.104,38.54h-8.376l-0.202,2.489h8.376L330.104,38.54z M330.568,34.615h-8.416l-0.202,2.347h8.396L330.568,34.615z
				 M338.297,61.158l-0.81,1.801c-3.588-1.335-8.173-2.36-13.757-3.075l0.87-1.659C330.211,58.94,334.776,59.918,338.297,61.158z"/>
			<path fill="#716F6E" d="M337.884,63.906l-0.658-0.244c-3.519-1.31-8.092-2.33-13.591-3.034l-1.069-0.137l1.272-2.427h-5.582
				l0.568,0.809l-0.751,0.398c-4.58,2.434-9.175,3.938-13.656,4.474l-0.467,0.056l-2.145-3.341l1.209-0.129
				c3.273-0.348,6.455-1.107,9.495-2.267h-5.148V44.102h26.972v13.962h-5.641c3.875,0.645,7.179,1.444,9.854,2.387l0.77,0.271
				L337.884,63.906z M304.37,61.678l0.333,0.519c3.905-0.526,7.906-1.822,11.912-3.857l-0.23-0.327
				C312.599,59.873,308.563,61.104,304.37,61.678z M324.893,59.282c4.813,0.666,8.908,1.585,12.195,2.735l0.187-0.414
				c-3.236-1.058-7.351-1.921-12.252-2.568L324.893,59.282z M315.367,56.564h17.466V45.602h-23.972v10.962H315.367z M332.229,56.406
				h-22.886v-3.442h22.886V56.406z M310.844,54.906h19.886v-0.442h-19.886V54.906z M332.229,52.804h-22.886v-3.442h22.886V52.804z
				 M310.844,51.304h19.886v-0.442h-19.886V51.304z M332.229,49.203h-22.886v-3.402h22.886V49.203z M310.844,47.703h19.886v-0.402
				h-19.886V47.703z M332.571,43.478h-24.635l0.385-4.188h-6.28v-3.078h6.634l0.445-4.006h24.545l-0.405,4.006h6.334v3.078h-6.658
				L332.571,43.478z M309.581,41.978h21.615l0.364-4.188h6.533v-0.078H331.6l0.405-4.006h-21.543l-0.445,4.006h-6.476v0.078h6.425
				L309.581,41.978z M330.593,41.778h-9.881l0.324-3.989h9.881L330.593,41.778z M322.339,40.278h6.871l0.08-0.989h-6.871
				L322.339,40.278z M320.072,41.778h-9.854l0.39-3.989h9.789L320.072,41.778z M311.872,40.278h6.817l0.08-0.989h-6.801
				L311.872,40.278z M331.028,37.711h-9.896l0.331-3.847h9.929L331.028,37.711z M322.768,36.211h6.896l0.081-0.847h-6.903
				L322.768,36.211z M320.474,37.711h-9.903l0.431-3.847h9.804L320.474,37.711z M312.248,36.211h6.849l0.073-0.847h-6.827
				L312.248,36.211z M338.056,35.405h-3.604V31.5h-27.249v3.743h-3.624V28.22h14.819c-0.131-0.207-0.264-0.397-0.398-0.571
				l-0.635-0.818l3.503-1.251l0.326,0.478c0.325,0.475,0.746,1.185,1.283,2.162h15.579V35.405z M335.951,33.905h0.604V29.72h-14.971
				l-0.213-0.393c-0.438-0.809-0.809-1.458-1.105-1.94l-0.508,0.182c0.2,0.33,0.395,0.688,0.581,1.075l0.519,1.076h-15.78v4.023
				h0.624V30h30.249V33.905z"/>
		</g>
		<g>
			<path fill="#716F6E" d="M347.097,50.072c-0.135,3.736-0.513,7.088-1.133,10.055l-1.942-0.445
				c0.661-2.644,1.093-5.908,1.295-9.792L347.097,50.072z M359.074,29.719h-4.693v3.985h3.904v1.942h-3.904v3.884h3.904v2.043
				h-3.904v4.107h3.904c0.054,2.307,0.081,4.175,0.081,5.604c0,2.927-0.091,5.273-0.273,7.041c-0.182,1.767-0.476,2.91-0.88,3.429
				c-0.404,0.52-0.924,0.856-1.558,1.012c-0.635,0.155-1.774,0.233-3.419,0.233l-0.628-2.125c0.513,0.027,1.342,0.041,2.489,0.041
				c0.85,0,1.449-0.378,1.8-1.133c0.351-0.756,0.526-3.446,0.526-8.073c0-1.497-0.034-2.833-0.102-4.006h-10.176V27.695h12.928
				V29.719z M349.95,59.601l-1.7,0.243c0.054-1.295,0.081-2.556,0.081-3.784c0-2.158-0.081-4.087-0.242-5.786l1.577-0.243
				c0.229,3.871,0.345,6.326,0.345,7.364C350.011,58.164,349.99,58.899,349.95,59.601z M352.276,33.664v-3.945h-4.026v3.945H352.276
				z M352.276,39.531v-3.844h-4.026v3.844H352.276z M352.276,45.681v-4.107h-4.026v4.107H352.276z M353.146,57.941l-1.659,0.243
				c-0.095-3.075-0.385-5.766-0.87-8.072l1.538-0.344C352.613,52.007,352.944,54.732,353.146,57.941z M355.716,55.736l-1.416,0.344
				c-0.162-1.551-0.573-3.709-1.234-6.474l1.315-0.324C354.704,50.2,355.149,52.351,355.716,55.736z M380.357,36.597l-1.072,1.781
				c-4.046-2.158-7.391-5.085-10.034-8.781c-2.199,2.994-5.335,5.867-9.408,8.619l-1.274-1.74c4.68-3.035,8.079-6.38,10.196-10.035
				l2.104,0.668c-0.081,0.202-0.202,0.452-0.364,0.749C373.014,31.458,376.298,34.372,380.357,36.597z M368.846,59.014l-1.497,1.538
				c-0.472-0.729-1.524-1.902-3.156-3.521c-1.105,2.266-2.374,4.222-3.803,5.867l-1.7-1.153c2.819-3.372,4.688-7.087,5.604-11.147
				h-3.904v-9.853h7.91v9.853h-3.358l1.497,0.708c-0.404,1.363-0.877,2.617-1.416,3.763
				C366.425,56.31,367.699,57.625,368.846,59.014z M366.317,48.655v-5.968h-3.986v5.968H366.317z M374.693,37.832h-11.067v-1.983
				h11.067V37.832z M380.317,61.422l-1.538,1.437c-1.874-2.469-3.526-4.263-4.956-5.382c-1.133,2.077-2.421,3.958-3.864,5.645
				l-1.699-1.295c2.535-2.778,4.552-6.521,6.049-11.229h-3.844v-9.853h7.991v9.853h-3.439l1.335,0.708
				c-0.458,1.417-1.011,2.839-1.658,4.269C376.851,57.396,378.726,59.345,380.317,61.422z M376.514,48.655v-5.968h-4.106v5.968
				H376.514z"/>
			<path fill="#716F6E" d="M370.068,64.147l-2.915-2.222l0.553-0.605c0.179-0.196,0.355-0.397,0.529-0.604l-1.005,1.033l-0.512-0.79
				c-0.368-0.568-1.149-1.463-2.327-2.664c-1.017,1.927-2.17,3.638-3.436,5.096l-0.437,0.502l-2.635-1.787
				c-0.026,0.039-0.053,0.075-0.08,0.11c-0.508,0.653-1.171,1.083-1.971,1.279c-0.701,0.172-1.878,0.255-3.598,0.255h-0.561
				l-1.031-3.491l-3.182,0.455l0.038-0.901c0.053-1.286,0.08-2.549,0.08-3.752c0-0.555-0.006-1.097-0.017-1.624
				c-0.2,2.089-0.49,4.044-0.866,5.844l-0.156,0.749l-3.434-0.787l0.186-0.742c0.646-2.585,1.075-5.831,1.273-9.649l0.041-0.787
				l3.263,0.333l-0.005,0.152l2.5-0.385l0.014,0.232l2.357-0.528l0.009,0.043l1.861-0.458h-9.211V26.945h14.428v3.523h-4.693v2.485
				h3.904v2.311c4.114-2.804,7.167-5.896,9.08-9.2l0.303-0.521l3.448,1.094l-0.301,0.75c-0.049,0.121-0.109,0.257-0.184,0.409
				c2.398,3.323,5.538,6.061,9.336,8.143l0.686,0.375l-1.843,3.06l-0.628-0.335c-1.223-0.652-2.387-1.376-3.489-2.171v1.713h-12.567
				v-1.625c-0.826,0.635-1.697,1.262-2.613,1.88l-0.599,0.404l-2.084-2.845h-2.449v2.384h3.904v3.543h-3.904v2.607h3.887
				l0.018,0.732c0.054,2.314,0.081,4.188,0.081,5.622c0,2.942-0.094,5.336-0.277,7.118c-0.106,1.035-0.249,1.863-0.435,2.508
				c2.36-2.916,4.017-6.127,4.933-9.563h-3.697V39.995h9.41v11.353h-1.842l-0.051,0.171c-0.353,1.19-0.764,2.318-1.224,3.36
				c1.266,1.154,2.438,2.383,3.49,3.657l0.235,0.285c1.412-2.094,2.62-4.595,3.611-7.474h-3.556V39.995h9.491v11.353h-2.08
				l-0.061,0.189c-0.409,1.266-0.899,2.552-1.459,3.832c2.013,1.745,3.796,3.626,5.307,5.597l0.413,0.54l-2.642,2.468l-0.503-0.662
				c-1.535-2.022-2.927-3.593-4.147-4.68c-1.044,1.805-2.221,3.476-3.506,4.977L370.068,64.147z M352.621,61.656l0.175,0.591
				c1.575-0.021,2.325-0.122,2.682-0.209c0.47-0.115,0.844-0.358,1.144-0.744c0.144-0.184,0.5-0.847,0.726-3.045
				c0.179-1.73,0.27-4.073,0.27-6.963c0-1.271-0.021-2.889-0.064-4.854h-3.921v-5.607h3.904v-0.543h-3.904v-5.384h3.904v-0.442
				h-3.904v-5.485h4.693v-0.523h-11.428v18.509h10.134l0.041,0.707c0.068,1.188,0.103,2.55,0.103,4.049
				c0,6.296-0.318,7.791-0.596,8.388c-0.477,1.025-1.334,1.567-2.48,1.567C353.525,61.666,353.035,61.663,352.621,61.656z
				 M369.354,61.717l0.489,0.373c1.225-1.503,2.341-3.173,3.322-4.972l0.424-0.777l0.696,0.545c1.343,1.051,2.883,2.685,4.585,4.861
				l0.433-0.404c-1.462-1.829-3.173-3.574-5.093-5.195l-0.434-0.366l0.233-0.517c0.543-1.197,1.022-2.404,1.43-3.594l-0.589-0.312
				C373.453,55.57,371.607,59.049,369.354,61.717z M359.787,61.584l0.464,0.314c1.211-1.486,2.309-3.23,3.268-5.196l0.459-0.94
				l0.743,0.737c1.218,1.208,2.112,2.166,2.705,2.898l0.408-0.419c-1.005-1.168-2.116-2.292-3.309-3.347l-0.421-0.372l0.239-0.509
				c0.44-0.937,0.839-1.958,1.187-3.044l-0.656-0.31C363.951,55.058,362.243,58.479,359.787,61.584z M350.675,60.074l0.974,0.052
				c0.504,0.027,1.32,0.04,2.449,0.04c0.558,0,0.893-0.209,1.119-0.698c0.09-0.192,0.256-0.828,0.361-2.926l-1.746,0.425
				c0.022,0.305,0.043,0.615,0.062,0.928l0.044,0.688l-3.175,0.466l-0.018-0.554c-0.01,0.393-0.025,0.775-0.047,1.148
				L350.675,60.074z M344.926,59.119l0.454,0.104c0.484-2.542,0.8-5.387,0.938-8.478l-0.298-0.03
				C345.822,53.945,345.454,56.765,344.926,59.119z M348.896,50.908c0.123,1.545,0.185,3.274,0.185,5.152
				c0,0.942-0.017,1.918-0.049,2.915l0.198-0.028c0.021-0.501,0.03-1.018,0.03-1.551c0-0.939-0.1-3.123-0.295-6.498L348.896,50.908z
				 M351.495,50.685c0.365,1.956,0.604,4.182,0.711,6.637l0.146-0.021c-0.177-2.521-0.441-4.745-0.786-6.631L351.495,50.685z
				 M354.885,48.455l0.203,0.579c0.169,0.478,0.362,1.242,0.585,2.309c-0.004-1.04-0.025-2.006-0.063-2.888H354.885z
				 M372.002,49.848h5.704v-8.353h-6.491v8.353H372.002z M361.602,49.848h5.948v-8.353h-6.41v8.353H361.602z M369.259,28.319
				l0.603,0.841c2.426,3.392,5.503,6.152,9.153,8.213l0.302-0.502c-3.835-2.223-7.005-5.108-9.427-8.585l-0.266-0.381l0.188-0.345
				l-0.709-0.225c-2.077,3.368-5.257,6.503-9.465,9.333l0.38,0.519c3.696-2.568,6.598-5.269,8.628-8.033L369.259,28.319z
				 M364.376,37.082h9.567v-0.483h-9.567V37.082z M365.142,35.099h8.078c-1.458-1.279-2.786-2.699-3.979-4.254
				C368.093,32.288,366.723,33.708,365.142,35.099z M377.264,49.405h-5.606v-7.468h5.606V49.405z M373.157,47.905h2.606v-4.468
				h-2.606V47.905z M367.067,49.405h-5.486v-7.468h5.486V49.405z M363.081,47.905h2.486v-4.468h-2.486V47.905z M353.026,46.431
				H347.5v-5.607h5.526V46.431z M349,44.931h2.526v-2.607H349V44.931z M353.026,40.281H347.5v-5.344h5.526V40.281z M349,38.781
				h2.526v-2.344H349V38.781z M353.026,34.414H347.5v-5.445h5.526V34.414z M349,32.914h2.526v-2.445H349V32.914z"/>
		</g>
		<g>
			<path fill="#716F6E" d="M421.348,61.786h-35.932v-2.064h16.833v-5.604h-14.507v-2.064h14.507V47.32
				c-5.18,0.351-9.645,0.56-13.394,0.627l-0.445-1.942c3.885-1.564,7.526-4.107,10.925-7.627h-8.618v-2.023h25.37v2.023h-13.939
				c-2.32,2.751-5.301,5.199-8.942,7.344c5.395-0.094,11.93-0.593,19.604-1.497c-1.174-0.944-2.69-1.942-4.552-2.994l1.679-1.437
				c4.127,2.468,7.311,4.923,9.55,7.364l-1.619,1.457c-0.769-0.89-1.639-1.733-2.609-2.529l-10.783,0.991v4.977h14.384v2.064
				h-14.384v5.604h16.873V61.786z M420.012,37.75h-2.104v-5.341h-29.053v5.341h-2.104v-7.364h15.781
				c-0.202-0.58-0.77-1.699-1.7-3.358l2.145-0.708c0.675,1.092,1.356,2.448,2.044,4.066h14.991V37.75z"/>
			<path fill="#716F6E" d="M422.098,62.536h-37.432v-3.564h16.833v-4.104h-14.507v-3.564h14.507v-3.182
				c-4.835,0.318-9.081,0.511-12.63,0.575l-0.608,0.011l-0.725-3.16l0.594-0.239c3.286-1.323,6.435-3.399,9.381-6.181h-7.544v-3.523
				h26.87v3.523h-6.553l0.037,0.022c4.17,2.494,7.439,5.018,9.718,7.501l0.512,0.558l-2.751,2.475l-0.5-0.579
				c-0.674-0.78-1.44-1.534-2.282-2.244l-9.793,0.9v3.543h14.384v3.564h-14.384v4.104h16.873V62.536z M386.166,61.036h34.432v-0.564
				h-16.873v-7.104h14.384v-0.564h-14.384v-6.411l11.771-1.082l0.238,0.195c0.792,0.649,1.526,1.336,2.19,2.049l0.489-0.44
				c-2.062-2.109-4.882-4.258-8.4-6.399l-0.463,0.396c1.478,0.875,2.729,1.723,3.729,2.528l1.394,1.12l-1.775,0.209
				c-7.664,0.903-14.285,1.408-19.68,1.502l-2.849,0.05l2.455-1.446c3.552-2.091,6.495-4.507,8.75-7.181l0.225-0.267h13.538v-0.523
				h-23.87v0.523h9.635l-1.227,1.271c-3.284,3.401-6.845,5.94-10.593,7.555l0.168,0.732c3.598-0.078,7.882-0.284,12.748-0.613
				l0.801-0.054v6.286h-14.507v0.564h14.507v7.104h-16.833V61.036z M402.493,39.128c-1.807,2.089-4.011,4.021-6.576,5.765
				c4.319-0.171,9.316-0.571,14.913-1.196c-0.858-0.585-1.842-1.192-2.941-1.813l-0.932-0.526l2.604-2.229H402.493z M420.762,38.5
				h-3.604v-5.341h-27.553V38.5h-3.604v-8.864h15.378c-0.255-0.513-0.635-1.232-1.201-2.242l-0.445-0.793l3.571-1.179l0.311,0.504
				c0.628,1.016,1.266,2.262,1.899,3.71h15.248V38.5z M418.658,37h0.604v-5.864h-14.737l-0.194-0.457
				c-0.565-1.333-1.133-2.493-1.689-3.458l-0.714,0.235c0.7,1.279,1.132,2.161,1.313,2.683l0.348,0.997h-16.087V37h0.604v-5.341
				h30.553V37z"/>
		</g>
	</g>
</g>
</svg>
