<?xml version="1.0" encoding="utf-8"?>
<!-- Generator: Adobe Illustrator 16.0.0, SVG Export Plug-In . SVG Version: 6.00 Build 0)  -->
<!DOCTYPE svg PUBLIC "-//W3C//DTD SVG 1.1//EN" "http://www.w3.org/Graphics/SVG/1.1/DTD/svg11.dtd">
<svg version="1.1" id="圖層_1" xmlns="http://www.w3.org/2000/svg" xmlns:xlink="http://www.w3.org/1999/xlink" x="0px" y="0px"
	 width="445.394px" height="82.895px" viewBox="0 0 445.394 82.895" enable-background="new 0 0 445.394 82.895"
	 xml:space="preserve">
<g>
	<g>
		<g>
			<path fill="#716F6E" d="M35.071,75.597c-15.312,0-27.77-12.458-27.77-27.771c0-11.754,7.264-22.078,18.204-26.077v-9.6h3.443
				v12.094l-1.204,0.379c-10.168,3.208-17,12.533-17,23.203c0,13.414,10.913,24.328,24.327,24.328
				c13.415,0,24.329-10.914,24.329-24.328c0-10.48-6.678-19.752-16.616-23.073l-1.176-0.393V12.15h3.443v9.76
				c10.692,4.11,17.792,14.371,17.792,25.916C62.842,63.139,50.384,75.597,35.071,75.597z"/>
			<path fill="#716F6E" d="M47.48,13.872H22.664c-0.951,0-1.722-0.771-1.722-1.722s0.771-1.721,1.722-1.721H47.48
				c0.95,0,1.721,0.771,1.721,1.721S48.43,13.872,47.48,13.872z"/>
		</g>
		<g>
			<path fill="#DF8E2D" d="M33.68,41.156c-6.544,2.958-14.218-0.325-17.529-2.074c-1.78,3.007-2.807,6.474-2.807,10.174
				c0,0.139,0.008,0.275,0.01,0.412l0.215,2.566c1.513,10.041,10.563,17.76,21.504,17.76c12.002,0,21.73-9.284,21.73-20.738
				c0-4.388-0.452-8.4-2.891-11.752C48.837,35.392,40.933,37.878,33.68,41.156"/>
			<g>
				<path fill="#FFFFFF" d="M33.582,60.604c-0.374,0.359-1.046,0.883-2.288,0.883c-0.449,0-1.316-0.03-2.153-0.838
					c-0.823-0.808-1.361-2.123-1.361-4.531c0-1.869,0.434-2.946,0.882-3.649c0.269-0.418,0.508-0.628,0.658-0.777
					c0.554-0.463,1.227-0.703,1.944-0.718c0.269-0.015,1.166,0,1.884,0.494c0.135,0.089,0.374,0.239,0.628,0.553
					c1.226,1.45,1.196,3.858,1.196,4.232C34.973,57.704,34.674,59.528,33.582,60.604z M32.371,53.651
					c-0.06-0.135-0.344-0.853-1.062-0.822c-0.209,0.015-0.344,0.089-0.419,0.134c-0.299,0.18-0.508,0.494-0.688,1.211
					c-0.134,0.553-0.209,1.241-0.209,2.438c0,0.194,0,0.986,0.195,1.765c0.254,1.017,0.732,1.256,1.196,1.256
					c0.149,0,0.463-0.03,0.703-0.299c0.568-0.628,0.643-2.318,0.643-3.066C32.73,56.208,32.745,54.548,32.371,53.651z"/>
			</g>
			<g>
				<path fill="#FFFFFF" d="M38.812,55.643v-7.402c-0.209,0.089-0.344,0.149-0.553,0.194c-0.418,0.104-1.151,0.12-1.585,0.12
					l0.015-1.541l0.538-0.044c0.688-0.06,1.092-0.299,1.346-0.464c0.105-0.075,0.344-0.224,0.539-0.493
					c0.134-0.18,0.194-0.314,0.299-0.509h1.825v10.139H38.812z"/>
			</g>
			<g>
				<path fill="#DF8E2D" d="M34.324,31.614v-4.841c-0.137,0.059-0.225,0.098-0.362,0.127c-0.274,0.068-0.753,0.078-1.037,0.078
					l0.01-1.007l0.352-0.029c0.45-0.039,0.714-0.196,0.88-0.303c0.068-0.049,0.225-0.147,0.352-0.323
					c0.088-0.117,0.127-0.206,0.195-0.333h1.193v6.631H34.324z"/>
			</g>
			<g>
				<path fill="#DF8E2D" d="M40.707,35.48c-0.208,0.199-0.582,0.49-1.272,0.49c-0.25,0-0.732-0.017-1.198-0.465
					c-0.458-0.449-0.757-1.181-0.757-2.52c0-1.04,0.241-1.638,0.491-2.029c0.15-0.233,0.283-0.35,0.366-0.433
					c0.308-0.258,0.682-0.391,1.082-0.399c0.149-0.008,0.648,0,1.047,0.275c0.075,0.05,0.208,0.133,0.35,0.308
					c0.682,0.807,0.665,2.146,0.665,2.354C41.48,33.867,41.314,34.881,40.707,35.48z M40.034,31.613
					c-0.033-0.075-0.191-0.474-0.59-0.458c-0.117,0.008-0.191,0.05-0.233,0.075c-0.167,0.1-0.283,0.274-0.383,0.673
					c-0.075,0.308-0.116,0.69-0.116,1.355c0,0.108,0,0.549,0.108,0.981c0.142,0.565,0.408,0.699,0.666,0.699
					c0.083,0,0.258-0.017,0.391-0.167c0.316-0.349,0.358-1.289,0.358-1.705C40.233,33.035,40.242,32.112,40.034,31.613z"/>
			</g>
			<g>
				<path fill="#DF8E2D" d="M32.559,38.551c-0.257,0.247-0.72,0.607-1.574,0.607c-0.309,0-0.905-0.021-1.481-0.576
					c-0.565-0.555-0.936-1.46-0.936-3.116c0-1.285,0.298-2.026,0.606-2.509c0.185-0.288,0.35-0.432,0.453-0.535
					c0.38-0.319,0.843-0.483,1.337-0.494c0.185-0.01,0.802,0,1.296,0.339c0.092,0.062,0.257,0.165,0.432,0.38
					c0.843,0.998,0.823,2.654,0.823,2.911C33.515,36.556,33.309,37.811,32.559,38.551z M31.726,33.769
					c-0.042-0.092-0.237-0.586-0.73-0.565c-0.144,0.01-0.236,0.062-0.288,0.092c-0.206,0.124-0.35,0.339-0.473,0.833
					c-0.093,0.381-0.144,0.854-0.144,1.677c0,0.133,0,0.679,0.134,1.213c0.175,0.699,0.504,0.864,0.823,0.864
					c0.103,0,0.318-0.021,0.483-0.206c0.391-0.432,0.442-1.594,0.442-2.108C31.972,35.528,31.982,34.386,31.726,33.769z"/>
			</g>
		</g>
	</g>
	<g>
		<g>
			<path fill="#716F6E" d="M74.375,62.459V38.354h6.657c8.495,0,12.742,3.917,12.742,11.75c0,3.721-1.18,6.71-3.539,8.968
				c-2.359,2.259-5.517,3.388-9.473,3.388H74.375z M77.199,40.909v18.996h3.597c3.161,0,5.62-0.847,7.38-2.539
				c1.759-1.692,2.639-4.09,2.639-7.195c0-6.175-3.284-9.262-9.851-9.262H77.199z"/>
			<path fill="#706E6D" d="M80.763,62.609h-6.538V38.204h6.807c8.555,0,12.892,4.003,12.892,11.9c0,3.746-1.206,6.799-3.585,9.076
				C87.962,61.455,84.74,62.609,80.763,62.609z M74.525,62.309h6.238c3.897,0,7.05-1.125,9.369-3.346
				c2.317-2.218,3.492-5.199,3.492-8.859c0-7.697-4.237-11.6-12.592-11.6h-6.507V62.309z M80.796,60.055h-3.747V40.759h3.916
				c6.636,0,10,3.167,10,9.412c0,3.132-0.903,5.589-2.685,7.303C86.5,59.187,83.981,60.055,80.796,60.055z M77.349,59.754h3.447
				c3.105,0,5.553-0.84,7.276-2.496c1.721-1.655,2.593-4.04,2.593-7.087c0-6.131-3.173-9.112-9.701-9.112h-3.616V59.754z"/>
		</g>
		<g>
			<path fill="#716F6E" d="M108.745,62.459h-2.757V59.77h-0.067c-1.199,2.062-2.964,3.093-5.295,3.093
				c-1.715,0-3.057-0.454-4.026-1.361c-0.969-0.908-1.454-2.112-1.454-3.614c0-3.216,1.894-5.088,5.682-5.615l5.161-0.723
				c0-2.925-1.183-4.387-3.547-4.387c-2.074,0-3.945,0.706-5.615,2.118v-2.824c1.692-1.076,3.642-1.614,5.85-1.614
				c4.045,0,6.068,2.141,6.068,6.421V62.459z M105.988,53.751l-4.152,0.571c-1.277,0.18-2.241,0.496-2.891,0.95
				c-0.65,0.454-0.975,1.258-0.975,2.413c0,0.84,0.3,1.526,0.899,2.059s1.398,0.799,2.396,0.799c1.367,0,2.496-0.479,3.387-1.438
				c0.891-0.959,1.336-2.171,1.336-3.64V53.751z"/>
			<path fill="#706E6D" d="M100.626,63.013c-1.746,0-3.135-0.472-4.129-1.402c-0.997-0.934-1.501-2.187-1.501-3.724
				c0-3.288,1.955-5.227,5.812-5.763l5.03-0.705c-0.034-2.763-1.146-4.107-3.396-4.107c-2.027,0-3.884,0.701-5.518,2.083
				l-0.247,0.208v-3.229l0.069-0.044c1.708-1.086,3.703-1.637,5.931-1.637c4.126,0,6.218,2.211,6.218,6.571v11.346h-3.057V60.19
				C104.621,62.063,102.869,63.013,100.626,63.013z M102.441,47.012c2.453,0,3.697,1.526,3.697,4.537v0.13l-5.29,0.741
				c-3.737,0.52-5.553,2.308-5.553,5.466c0,1.451,0.473,2.63,1.407,3.505c0.937,0.876,2.256,1.32,3.924,1.32
				c2.262,0,4-1.015,5.165-3.018l0.043-0.075h0.304v2.689h2.457V51.264c0-4.22-1.936-6.271-5.918-6.271
				c-2.139,0-4.057,0.521-5.7,1.547v2.424C98.606,47.668,100.443,47.012,102.441,47.012z M101.265,60.693
				c-1.03,0-1.87-0.282-2.495-0.837c-0.63-0.56-0.95-1.29-0.95-2.171c0-1.201,0.35-2.054,1.039-2.536
				c0.666-0.465,1.661-0.793,2.956-0.975l4.323-0.595v1.886c0,1.5-0.463,2.758-1.376,3.742
				C103.845,60.193,102.668,60.693,101.265,60.693z M105.838,53.923l-3.982,0.548c-1.248,0.176-2.199,0.487-2.826,0.924
				c-0.604,0.422-0.911,1.193-0.911,2.29c0,0.803,0.278,1.439,0.849,1.946c0.569,0.505,1.341,0.761,2.296,0.761
				c1.317,0,2.419-0.467,3.277-1.39c0.86-0.926,1.296-2.116,1.296-3.537V53.923z"/>
		</g>
		<g>
			<path fill="#716F6E" d="M120.237,62.291c-0.65,0.358-1.507,0.538-2.572,0.538c-3.015,0-4.522-1.682-4.522-5.044V47.599h-2.958
				v-2.354h2.958v-4.203l2.757-0.891v5.094h4.337v2.354H115.9v9.699c0,1.155,0.196,1.978,0.588,2.471
				c0.393,0.493,1.042,0.739,1.95,0.739c0.695,0,1.294-0.19,1.799-0.571V62.291z"/>
			<path fill="#706E6D" d="M117.665,62.979c-3.1,0-4.672-1.748-4.672-5.194V47.749h-2.958v-2.653h2.958v-4.162l3.057-0.988v5.15
				h4.337v2.653h-4.337v9.549c0,1.115,0.187,1.915,0.555,2.377c0.361,0.453,0.978,0.683,1.833,0.683
				c0.658,0,1.233-0.182,1.708-0.541l0.24-0.181v2.743l-0.078,0.043C119.639,62.792,118.75,62.979,117.665,62.979z M110.334,47.449
				h2.958v10.336c0,3.293,1.43,4.894,4.372,4.894c0.991,0,1.806-0.16,2.422-0.478v-1.98c-0.478,0.291-1.031,0.438-1.649,0.438
				c-0.952,0-1.647-0.269-2.067-0.796c-0.418-0.525-0.621-1.364-0.621-2.565v-9.849h4.337v-2.054h-4.337v-5.038l-2.458,0.794v4.243
				h-2.958V47.449z"/>
		</g>
		<g>
			<path fill="#716F6E" d="M134.553,62.459h-2.757V59.77h-0.067c-1.199,2.062-2.964,3.093-5.295,3.093
				c-1.715,0-3.057-0.454-4.026-1.361c-0.969-0.908-1.454-2.112-1.454-3.614c0-3.216,1.894-5.088,5.682-5.615l5.161-0.723
				c0-2.925-1.183-4.387-3.547-4.387c-2.074,0-3.945,0.706-5.615,2.118v-2.824c1.692-1.076,3.642-1.614,5.85-1.614
				c4.045,0,6.068,2.141,6.068,6.421V62.459z M131.796,53.751l-4.152,0.571c-1.277,0.18-2.241,0.496-2.891,0.95
				c-0.65,0.454-0.975,1.258-0.975,2.413c0,0.84,0.3,1.526,0.899,2.059s1.398,0.799,2.396,0.799c1.367,0,2.496-0.479,3.387-1.438
				c0.891-0.959,1.336-2.171,1.336-3.64V53.751z"/>
			<path fill="#706E6D" d="M126.434,63.013c-1.746,0-3.135-0.472-4.129-1.402c-0.997-0.934-1.501-2.187-1.501-3.724
				c0-3.288,1.955-5.227,5.812-5.763l5.03-0.705c-0.034-2.763-1.146-4.107-3.396-4.107c-2.027,0-3.884,0.701-5.518,2.083
				l-0.247,0.208v-3.229l0.069-0.044c1.708-1.086,3.703-1.637,5.931-1.637c4.126,0,6.218,2.211,6.218,6.571v11.346h-3.057V60.19
				C130.429,62.063,128.677,63.013,126.434,63.013z M128.25,47.012c2.453,0,3.697,1.526,3.697,4.537v0.13l-5.29,0.741
				c-3.737,0.52-5.553,2.308-5.553,5.466c0,1.451,0.473,2.63,1.407,3.505c0.937,0.876,2.256,1.32,3.924,1.32
				c2.262,0,4-1.015,5.165-3.018l0.043-0.075h0.304v2.689h2.457V51.264c0-4.22-1.936-6.271-5.918-6.271
				c-2.139,0-4.057,0.521-5.7,1.547v2.424C124.414,47.668,126.251,47.012,128.25,47.012z M127.073,60.693
				c-1.03,0-1.87-0.282-2.495-0.837c-0.63-0.56-0.95-1.29-0.95-2.171c0-1.201,0.35-2.054,1.039-2.536
				c0.666-0.465,1.661-0.793,2.956-0.975l4.323-0.595v1.886c0,1.5-0.463,2.758-1.376,3.742
				C129.653,60.193,128.477,60.693,127.073,60.693z M131.646,53.923l-3.982,0.548c-1.248,0.176-2.199,0.487-2.826,0.924
				c-0.604,0.422-0.911,1.193-0.911,2.29c0,0.803,0.278,1.439,0.849,1.946c0.569,0.505,1.341,0.761,2.296,0.761
				c1.317,0,2.419-0.467,3.277-1.39c0.86-0.926,1.296-2.116,1.296-3.537V53.923z"/>
		</g>
		<g>
			<path fill="#716F6E" d="M153.782,38.354v2.42h-2.354v19.264h2.354v2.421h-7.531v-2.421h2.354V40.774h-2.354v-2.42H153.782z"/>
			<path fill="#706E6D" d="M153.932,62.609h-7.831v-2.722h2.354V40.924h-2.354v-2.72h7.831v2.72h-2.354v18.964h2.354V62.609z
				 M146.401,62.309h7.231v-2.12h-2.354V40.624h2.354v-2.121h-7.231v2.121h2.354v19.564h-2.354V62.309z"/>
		</g>
		<g>
			<path fill="#716F6E" d="M169.964,62.459h-2.757v-9.817c0-3.653-1.334-5.48-4.001-5.48c-1.378,0-2.519,0.518-3.421,1.555
				c-0.902,1.037-1.353,2.345-1.353,3.925v9.817h-2.757V45.246h2.757v2.857h0.067c1.3-2.174,3.183-3.261,5.648-3.261
				c1.883,0,3.323,0.608,4.32,1.824c0.997,1.216,1.496,2.973,1.496,5.27V62.459z"/>
			<path fill="#706E6D" d="M170.114,62.609h-3.057v-9.967c0-3.586-1.26-5.33-3.851-5.33c-1.327,0-2.44,0.506-3.308,1.503
				c-0.874,1.003-1.316,2.291-1.316,3.827v9.967h-3.057V45.096h3.057v2.594c1.315-1.99,3.186-2.998,5.565-2.998
				c1.921,0,3.414,0.632,4.436,1.878c1.016,1.238,1.53,3.043,1.53,5.365V62.609z M167.357,62.309h2.457V51.936
				c0-2.251-0.492-3.992-1.462-5.175c-0.963-1.174-2.377-1.769-4.204-1.769c-2.397,0-4.254,1.073-5.519,3.188l-0.044,0.073h-0.302
				v-2.857h-2.457v16.913h2.457v-9.667c0-1.61,0.467-2.964,1.39-4.024c0.927-1.065,2.116-1.606,3.534-1.606
				c2.754,0,4.151,1.894,4.151,5.63V62.309z"/>
		</g>
		<g>
			<path fill="#716F6E" d="M172.429,61.837v-2.958c1.502,1.109,3.155,1.664,4.959,1.664c2.421,0,3.631-0.808,3.631-2.421
				c0-0.46-0.104-0.849-0.311-1.168c-0.208-0.319-0.488-0.602-0.841-0.849s-0.768-0.468-1.244-0.664
				c-0.477-0.196-0.989-0.401-1.538-0.614c-0.762-0.303-1.432-0.608-2.009-0.916c-0.578-0.308-1.059-0.656-1.446-1.042
				c-0.387-0.386-0.678-0.826-0.874-1.319c-0.196-0.493-0.294-1.07-0.294-1.731c0-0.807,0.185-1.521,0.555-2.143
				c0.37-0.622,0.863-1.144,1.479-1.563c0.616-0.42,1.319-0.737,2.109-0.95c0.791-0.213,1.605-0.319,2.446-0.319
				c1.49,0,2.824,0.258,4,0.773v2.791c-1.267-0.829-2.723-1.244-4.371-1.244c-0.516,0-0.98,0.059-1.395,0.176
				c-0.415,0.118-0.771,0.283-1.067,0.496c-0.297,0.213-0.527,0.468-0.689,0.765s-0.244,0.625-0.244,0.983
				c0,0.448,0.081,0.824,0.244,1.126c0.163,0.302,0.4,0.571,0.714,0.807s0.695,0.448,1.143,0.639
				c0.448,0.191,0.958,0.398,1.53,0.622c0.762,0.292,1.446,0.591,2.051,0.899c0.605,0.308,1.121,0.656,1.547,1.042
				c0.426,0.387,0.753,0.833,0.983,1.336c0.229,0.504,0.344,1.104,0.344,1.799c0,0.852-0.188,1.591-0.563,2.219
				s-0.877,1.148-1.504,1.563c-0.628,0.414-1.351,0.723-2.168,0.924c-0.818,0.202-1.676,0.303-2.572,0.303
				C175.264,62.862,173.729,62.521,172.429,61.837z"/>
			<path fill="#706E6D" d="M177.035,63.013c-1.787,0-3.36-0.352-4.676-1.043l-0.08-0.042v-3.346l0.239,0.176
				c1.468,1.085,3.107,1.635,4.87,1.635c2.343,0,3.481-0.742,3.481-2.271c0-0.428-0.097-0.793-0.287-1.087
				c-0.196-0.301-0.465-0.573-0.801-0.807c-0.342-0.239-0.75-0.457-1.215-0.648c-0.476-0.196-0.987-0.4-1.535-0.613
				c-0.768-0.305-1.448-0.615-2.025-0.923c-0.586-0.313-1.085-0.672-1.481-1.069c-0.4-0.399-0.705-0.86-0.908-1.37
				c-0.202-0.508-0.305-1.109-0.305-1.787c0-0.831,0.194-1.577,0.576-2.22c0.38-0.639,0.893-1.181,1.524-1.611
				c0.627-0.428,1.352-0.754,2.155-0.971c0.8-0.215,1.636-0.324,2.485-0.324c1.504,0,2.87,0.264,4.061,0.786l0.09,0.039v3.166
				l-0.232-0.152c-1.236-0.809-2.679-1.219-4.289-1.219c-0.5,0-0.956,0.058-1.354,0.171c-0.396,0.112-0.739,0.271-1.021,0.474
				c-0.277,0.198-0.494,0.438-0.646,0.715c-0.149,0.272-0.225,0.579-0.225,0.911c0,0.421,0.076,0.776,0.226,1.056
				c0.151,0.282,0.378,0.537,0.672,0.757c0.303,0.227,0.677,0.436,1.112,0.621c0.447,0.19,0.956,0.397,1.526,0.621
				c0.762,0.292,1.457,0.596,2.064,0.905c0.613,0.312,1.144,0.67,1.58,1.064c0.438,0.398,0.782,0.865,1.019,1.385
				c0.238,0.522,0.358,1.148,0.358,1.862c0,0.875-0.196,1.647-0.584,2.296c-0.385,0.644-0.907,1.186-1.551,1.611
				c-0.641,0.423-1.386,0.74-2.215,0.944C178.818,62.909,177.94,63.013,177.035,63.013z M172.579,61.746
				c1.256,0.641,2.755,0.966,4.456,0.966c0.881,0,1.735-0.1,2.536-0.298c0.796-0.196,1.51-0.5,2.122-0.903
				c0.606-0.401,1.097-0.911,1.458-1.516c0.36-0.601,0.542-1.321,0.542-2.142c0-0.67-0.111-1.255-0.331-1.737
				c-0.221-0.483-0.54-0.917-0.948-1.288c-0.416-0.376-0.925-0.719-1.514-1.019c-0.598-0.304-1.283-0.605-2.037-0.893
				c-0.574-0.225-1.085-0.433-1.535-0.624c-0.457-0.194-0.852-0.415-1.174-0.657c-0.33-0.247-0.584-0.535-0.757-0.855
				c-0.173-0.323-0.261-0.726-0.261-1.198c0-0.383,0.088-0.738,0.262-1.056c0.173-0.315,0.419-0.59,0.733-0.814
				c0.31-0.222,0.685-0.396,1.114-0.519c0.425-0.121,0.909-0.182,1.436-0.182c1.57,0,2.988,0.377,4.221,1.122v-2.42
				c-1.131-0.479-2.426-0.722-3.851-0.722c-0.823,0-1.633,0.106-2.407,0.314c-0.771,0.208-1.465,0.52-2.064,0.929
				c-0.595,0.405-1.077,0.915-1.435,1.516c-0.354,0.595-0.534,1.291-0.534,2.066c0,0.639,0.096,1.203,0.284,1.676
				c0.188,0.472,0.47,0.899,0.841,1.269c0.375,0.375,0.85,0.717,1.411,1.016c0.567,0.303,1.237,0.609,1.993,0.909
				c0.549,0.213,1.062,0.418,1.54,0.615c0.484,0.2,0.913,0.429,1.272,0.68c0.367,0.257,0.664,0.556,0.881,0.89
				c0.222,0.343,0.335,0.764,0.335,1.25c0,1.706-1.272,2.571-3.781,2.571c-1.733,0-3.35-0.513-4.809-1.522V61.746z"/>
		</g>
		<g>
			<path fill="#716F6E" d="M187.77,40.875c-0.493,0-0.914-0.168-1.261-0.504c-0.348-0.336-0.521-0.762-0.521-1.277
				s0.174-0.944,0.521-1.286c0.347-0.342,0.768-0.513,1.261-0.513c0.504,0,0.933,0.171,1.286,0.513s0.53,0.771,0.53,1.286
				c0,0.493-0.177,0.913-0.53,1.261C188.702,40.701,188.274,40.875,187.77,40.875z M189.114,62.459h-2.757V45.246h2.757V62.459z"/>
			<path fill="#706E6D" d="M189.264,62.609h-3.057V45.096h3.057V62.609z M186.507,62.309h2.457V45.396h-2.457V62.309z
				 M187.77,41.025c-0.532,0-0.991-0.184-1.365-0.546c-0.376-0.364-0.567-0.831-0.567-1.385c0-0.555,0.19-1.023,0.566-1.393
				c0.375-0.369,0.834-0.556,1.366-0.556c0.542,0,1.01,0.187,1.39,0.555c0.382,0.37,0.575,0.839,0.575,1.394
				c0,0.532-0.193,0.992-0.574,1.368C188.78,40.835,188.312,41.025,187.77,41.025z M187.77,37.444c-0.457,0-0.834,0.154-1.155,0.47
				c-0.321,0.315-0.477,0.701-0.477,1.179c0,0.477,0.156,0.86,0.476,1.169c0.321,0.311,0.699,0.462,1.156,0.462
				c0.467,0,0.854-0.156,1.181-0.478c0.326-0.321,0.485-0.699,0.485-1.154c0-0.478-0.159-0.863-0.484-1.178
				C188.624,37.598,188.237,37.444,187.77,37.444z"/>
		</g>
		<g>
			<path fill="#716F6E" d="M207.666,61.08c0,6.321-3.026,9.481-9.078,9.481c-2.129,0-3.99-0.403-5.581-1.21v-2.757
				c1.938,1.075,3.788,1.613,5.547,1.613c4.236,0,6.354-2.253,6.354-6.758v-1.883h-0.067c-1.311,2.197-3.284,3.295-5.917,3.295
				c-2.141,0-3.864-0.765-5.169-2.295c-1.306-1.529-1.958-3.583-1.958-6.16c0-2.925,0.703-5.25,2.11-6.977
				c1.406-1.726,3.331-2.588,5.774-2.588c2.32,0,4.04,0.93,5.161,2.79h0.067v-2.387h2.757V61.08z M204.909,54.676v-2.538
				c0-1.367-0.462-2.539-1.387-3.513c-0.925-0.975-2.076-1.462-3.455-1.462c-1.704,0-3.037,0.619-4.001,1.857
				s-1.445,2.973-1.445,5.203c0,1.916,0.462,3.449,1.387,4.597c0.924,1.149,2.149,1.724,3.673,1.724
				c1.546,0,2.805-0.549,3.774-1.647S204.909,56.391,204.909,54.676z"/>
			<path fill="#706E6D" d="M198.588,70.712c-2.144,0-4.044-0.413-5.648-1.227l-0.082-0.042V66.34l0.223,0.124
				c1.908,1.058,3.75,1.594,5.475,1.594c4.175,0,6.204-2.161,6.204-6.607v-1.47c-1.333,2.013-3.294,3.032-5.834,3.032
				c-2.177,0-3.955-0.79-5.283-2.348c-1.323-1.551-1.994-3.656-1.994-6.258c0-2.947,0.721-5.326,2.144-7.071
				c1.43-1.754,3.411-2.644,5.89-2.644c2.225,0,3.931,0.852,5.078,2.533v-2.13h3.057V61.08
				C207.816,67.471,204.711,70.712,198.588,70.712z M193.158,69.259c1.545,0.765,3.372,1.152,5.431,1.152
				c6.007,0,8.928-3.052,8.928-9.331V45.396h-2.457v2.387h-0.302l-0.043-0.072c-1.086-1.803-2.78-2.718-5.032-2.718
				c-2.384,0-4.288,0.853-5.658,2.533c-1.377,1.69-2.076,4.006-2.076,6.882c0,2.529,0.647,4.568,1.923,6.062
				c1.269,1.488,2.97,2.242,5.055,2.242c2.565,0,4.513-1.084,5.788-3.222l0.044-0.073h0.302v2.033c0,4.584-2.188,6.908-6.504,6.908
				c-1.709,0-3.524-0.509-5.397-1.511V69.259z M199.681,60.693c-1.565,0-2.84-0.6-3.79-1.78c-0.942-1.17-1.42-2.748-1.42-4.691
				c0-2.254,0.497-4.036,1.477-5.295c0.989-1.271,2.375-1.915,4.119-1.915c1.415,0,2.614,0.508,3.563,1.509
				c0.947,0.999,1.428,2.215,1.428,3.616v2.538c0,1.744-0.502,3.197-1.492,4.319C202.573,60.122,201.266,60.693,199.681,60.693z
				 M200.068,47.312c-1.647,0-2.953,0.605-3.883,1.8c-0.938,1.205-1.414,2.924-1.414,5.11c0,1.873,0.456,3.388,1.354,4.503
				c0.89,1.106,2.086,1.667,3.556,1.667c1.495,0,2.727-0.537,3.662-1.597c0.94-1.065,1.417-2.452,1.417-4.12v-2.538
				c0-1.321-0.453-2.469-1.346-3.41C202.523,47.789,201.397,47.312,200.068,47.312z"/>
		</g>
		<g>
			<path fill="#716F6E" d="M225.849,62.459h-2.757v-9.918c0-3.586-1.334-5.379-4.001-5.379c-1.345,0-2.477,0.518-3.396,1.555
				s-1.378,2.368-1.378,3.992v9.75h-2.757V36.975h2.757v11.128h0.067c1.322-2.174,3.205-3.261,5.648-3.261
				c3.877,0,5.816,2.336,5.816,7.01V62.459z"/>
			<path fill="#706E6D" d="M225.999,62.609h-3.057V52.541c0-3.519-1.26-5.229-3.851-5.229c-1.294,0-2.398,0.506-3.283,1.504
				c-0.89,1.003-1.341,2.313-1.341,3.893v9.9h-3.057V36.825h3.057v10.87c1.334-1.993,3.205-3.002,5.565-3.002
				c3.959,0,5.966,2.409,5.966,7.16V62.609z M223.242,62.309h2.457V51.852c0-4.616-1.854-6.86-5.667-6.86
				c-2.376,0-4.233,1.073-5.52,3.189l-0.043,0.072h-0.302V37.125h-2.457v25.184h2.457v-9.6c0-1.655,0.477-3.032,1.416-4.092
				c0.944-1.065,2.125-1.605,3.508-1.605c2.754,0,4.151,1.86,4.151,5.529V62.309z"/>
		</g>
		<g>
			<path fill="#716F6E" d="M237.341,62.291c-0.65,0.358-1.507,0.538-2.572,0.538c-3.015,0-4.522-1.682-4.522-5.044V47.599h-2.958
				v-2.354h2.958v-4.203l2.757-0.891v5.094h4.337v2.354h-4.337v9.699c0,1.155,0.196,1.978,0.588,2.471
				c0.393,0.493,1.042,0.739,1.95,0.739c0.695,0,1.294-0.19,1.799-0.571V62.291z"/>
			<path fill="#706E6D" d="M234.769,62.979c-3.1,0-4.672-1.748-4.672-5.194V47.749h-2.958v-2.653h2.958v-4.162l3.057-0.988v5.15
				h4.337v2.653h-4.337v9.549c0,1.115,0.187,1.915,0.555,2.377c0.361,0.453,0.978,0.683,1.833,0.683
				c0.658,0,1.233-0.182,1.708-0.541l0.24-0.181v2.743l-0.078,0.043C236.743,62.792,235.853,62.979,234.769,62.979z M227.438,47.449
				h2.958v10.336c0,3.293,1.43,4.894,4.372,4.894c0.991,0,1.806-0.16,2.422-0.478v-1.98c-0.478,0.291-1.031,0.438-1.649,0.438
				c-0.952,0-1.647-0.269-2.067-0.796c-0.418-0.525-0.621-1.364-0.621-2.565v-9.849h4.337v-2.054h-4.337v-5.038l-2.458,0.794v4.243
				h-2.958V47.449z"/>
		</g>
		<g>
			<path fill="#716F6E" d="M238.292,61.837v-2.958c1.502,1.109,3.155,1.664,4.959,1.664c2.421,0,3.63-0.808,3.63-2.421
				c0-0.46-0.104-0.849-0.311-1.168s-0.487-0.602-0.84-0.849c-0.354-0.247-0.768-0.468-1.244-0.664
				c-0.477-0.196-0.989-0.401-1.538-0.614c-0.762-0.303-1.432-0.608-2.009-0.916c-0.578-0.308-1.059-0.656-1.446-1.042
				c-0.387-0.386-0.678-0.826-0.874-1.319c-0.196-0.493-0.294-1.07-0.294-1.731c0-0.807,0.185-1.521,0.555-2.143
				c0.37-0.622,0.863-1.144,1.479-1.563c0.616-0.42,1.319-0.737,2.109-0.95c0.791-0.213,1.605-0.319,2.446-0.319
				c1.49,0,2.823,0.258,4,0.773v2.791c-1.267-0.829-2.723-1.244-4.371-1.244c-0.516,0-0.98,0.059-1.395,0.176
				c-0.415,0.118-0.771,0.283-1.067,0.496c-0.297,0.213-0.527,0.468-0.689,0.765s-0.244,0.625-0.244,0.983
				c0,0.448,0.081,0.824,0.244,1.126c0.163,0.302,0.4,0.571,0.714,0.807s0.695,0.448,1.143,0.639
				c0.448,0.191,0.958,0.398,1.53,0.622c0.762,0.292,1.446,0.591,2.052,0.899c0.604,0.308,1.119,0.656,1.544,1.042
				c0.426,0.387,0.754,0.833,0.984,1.336c0.229,0.504,0.344,1.104,0.344,1.799c0,0.852-0.188,1.591-0.562,2.219
				s-0.877,1.148-1.503,1.563c-0.629,0.414-1.352,0.723-2.169,0.924c-0.818,0.202-1.676,0.303-2.572,0.303
				C241.128,62.862,239.593,62.521,238.292,61.837z"/>
			<path fill="#706E6D" d="M242.898,63.013c-1.787,0-3.36-0.352-4.676-1.043l-0.08-0.042v-3.346l0.239,0.176
				c1.468,1.085,3.107,1.635,4.87,1.635c2.342,0,3.48-0.742,3.48-2.271c0-0.428-0.097-0.794-0.287-1.087
				c-0.195-0.301-0.464-0.572-0.8-0.807c-0.342-0.239-0.751-0.457-1.215-0.648c-0.476-0.196-0.987-0.4-1.535-0.613
				c-0.768-0.305-1.448-0.615-2.025-0.923c-0.586-0.313-1.085-0.672-1.481-1.069c-0.4-0.399-0.705-0.86-0.908-1.37
				c-0.202-0.508-0.305-1.109-0.305-1.787c0-0.831,0.194-1.577,0.576-2.22c0.38-0.639,0.893-1.181,1.524-1.611
				c0.627-0.428,1.352-0.754,2.155-0.971c0.8-0.215,1.636-0.324,2.485-0.324c1.503,0,2.87,0.264,4.061,0.786l0.09,0.039v3.166
				l-0.232-0.152c-1.236-0.809-2.679-1.219-4.289-1.219c-0.5,0-0.956,0.058-1.354,0.171c-0.396,0.112-0.739,0.271-1.021,0.474
				c-0.277,0.198-0.494,0.438-0.646,0.715c-0.149,0.272-0.225,0.579-0.225,0.911c0,0.421,0.076,0.776,0.226,1.056
				c0.151,0.282,0.378,0.537,0.672,0.757c0.303,0.227,0.677,0.436,1.112,0.621c0.447,0.19,0.956,0.397,1.526,0.621
				c0.763,0.292,1.458,0.597,2.065,0.905c0.614,0.313,1.145,0.671,1.577,1.065c0.438,0.398,0.782,0.864,1.021,1.385
				c0.237,0.523,0.357,1.15,0.357,1.862c0,0.875-0.197,1.647-0.584,2.296c-0.384,0.643-0.905,1.185-1.549,1.611
				c-0.643,0.423-1.388,0.74-2.216,0.944C244.682,62.909,243.804,63.013,242.898,63.013z M238.442,61.746
				c1.256,0.641,2.755,0.966,4.456,0.966c0.881,0,1.735-0.1,2.536-0.298c0.795-0.195,1.509-0.5,2.123-0.903
				c0.606-0.402,1.097-0.912,1.457-1.516c0.359-0.602,0.541-1.322,0.541-2.142c0-0.669-0.11-1.253-0.33-1.737
				c-0.221-0.483-0.54-0.917-0.948-1.288c-0.414-0.375-0.922-0.718-1.512-1.019c-0.597-0.304-1.283-0.604-2.037-0.893
				c-0.574-0.225-1.085-0.433-1.535-0.624c-0.457-0.194-0.852-0.415-1.174-0.657c-0.33-0.247-0.584-0.535-0.757-0.855
				c-0.173-0.323-0.261-0.726-0.261-1.198c0-0.383,0.088-0.738,0.262-1.056c0.173-0.315,0.419-0.59,0.733-0.814
				c0.31-0.222,0.685-0.396,1.114-0.519c0.425-0.121,0.909-0.182,1.436-0.182c1.569,0,2.988,0.377,4.22,1.122v-2.42
				c-1.131-0.479-2.426-0.722-3.85-0.722c-0.823,0-1.633,0.106-2.407,0.314c-0.771,0.208-1.465,0.52-2.064,0.929
				c-0.595,0.405-1.077,0.915-1.435,1.516c-0.354,0.595-0.534,1.291-0.534,2.066c0,0.639,0.096,1.203,0.284,1.676
				c0.188,0.472,0.47,0.899,0.841,1.269c0.375,0.375,0.85,0.717,1.411,1.016c0.567,0.303,1.237,0.609,1.993,0.909
				c0.549,0.213,1.062,0.418,1.54,0.615c0.484,0.2,0.913,0.428,1.273,0.68c0.368,0.257,0.664,0.557,0.88,0.89
				c0.222,0.342,0.334,0.763,0.334,1.25c0,1.706-1.272,2.571-3.78,2.571c-1.733,0-3.35-0.513-4.809-1.522V61.746z"/>
		</g>
		<g>
			<path fill="#716F6E" d="M278.36,62.459h-3.363l-4.033-6.758c-0.371-0.627-0.729-1.162-1.076-1.605s-0.703-0.804-1.068-1.084
				c-0.363-0.28-0.756-0.484-1.176-0.614c-0.42-0.128-0.895-0.193-1.422-0.193h-2.318v10.254h-2.824V38.354h7.193
				c1.055,0,2.027,0.132,2.918,0.395s1.664,0.664,2.318,1.202c0.656,0.538,1.17,1.208,1.539,2.009
				c0.369,0.802,0.555,1.74,0.555,2.816c0,0.84-0.127,1.611-0.379,2.312c-0.252,0.7-0.609,1.325-1.074,1.874
				c-0.467,0.549-1.025,1.017-1.682,1.404s-1.393,0.687-2.211,0.899v0.067c0.404,0.18,0.754,0.384,1.051,0.614
				c0.297,0.23,0.58,0.501,0.85,0.815c0.268,0.313,0.535,0.669,0.797,1.067c0.264,0.398,0.559,0.86,0.883,1.387L278.36,62.459z
				 M263.903,40.909v8.741h3.832c0.707,0,1.359-0.106,1.959-0.319s1.117-0.519,1.555-0.917c0.438-0.397,0.779-0.885,1.025-1.462
				c0.246-0.577,0.369-1.224,0.369-1.941c0-1.289-0.418-2.294-1.252-3.018c-0.834-0.723-2.043-1.084-3.623-1.084H263.903z"/>
			<path fill="#706E6D" d="M278.63,62.609h-3.719l-4.077-6.832c-0.369-0.625-0.728-1.159-1.065-1.589
				c-0.339-0.432-0.689-0.788-1.042-1.058c-0.347-0.268-0.727-0.466-1.128-0.589c-0.404-0.124-0.868-0.187-1.378-0.187h-2.168
				v10.254h-3.125V38.204h7.344c1.063,0,2.06,0.135,2.961,0.401c0.906,0.268,1.703,0.682,2.371,1.23
				c0.671,0.55,1.203,1.244,1.579,2.062c0.378,0.819,0.569,1.788,0.569,2.879c0,0.852-0.131,1.647-0.388,2.362
				c-0.258,0.716-0.628,1.362-1.102,1.92c-0.478,0.562-1.056,1.044-1.72,1.436c-0.584,0.344-1.238,0.623-1.948,0.832
				c0.3,0.151,0.568,0.319,0.804,0.5c0.305,0.236,0.598,0.517,0.872,0.836c0.278,0.326,0.55,0.69,0.808,1.083
				c0.275,0.415,0.573,0.883,0.886,1.391L278.63,62.609z M275.082,62.309h3.008l-4.38-7.015c-0.312-0.506-0.607-0.971-0.881-1.383
				c-0.251-0.382-0.516-0.736-0.786-1.053c-0.261-0.303-0.539-0.571-0.827-0.794c-0.287-0.222-0.63-0.422-1.02-0.595l-0.09-0.04
				v-0.281l0.112-0.029c0.8-0.208,1.531-0.505,2.173-0.884c0.635-0.374,1.188-0.835,1.644-1.372
				c0.449-0.531,0.802-1.146,1.047-1.828c0.246-0.683,0.37-1.443,0.37-2.261c0-1.047-0.182-1.974-0.541-2.753
				c-0.357-0.775-0.861-1.434-1.497-1.955c-0.637-0.523-1.398-0.917-2.267-1.174c-0.873-0.258-1.84-0.389-2.875-0.389h-7.043v23.805
				h2.523V52.055h2.469c0.54,0,1.033,0.067,1.466,0.199c0.437,0.135,0.848,0.35,1.224,0.639c0.372,0.285,0.74,0.659,1.095,1.11
				c0.351,0.447,0.706,0.977,1.087,1.622L275.082,62.309z M267.735,49.8h-3.982v-9.041h4.016c1.611,0,2.863,0.377,3.722,1.121
				c0.864,0.75,1.304,1.803,1.304,3.131c0,0.734-0.129,1.407-0.382,2c-0.253,0.595-0.61,1.104-1.062,1.515
				c-0.45,0.41-0.991,0.729-1.605,0.947C269.131,49.689,268.456,49.8,267.735,49.8z M264.053,49.5h3.682
				c0.686,0,1.328-0.104,1.909-0.311c0.576-0.205,1.082-0.503,1.504-0.886c0.419-0.381,0.752-0.855,0.988-1.41
				c0.236-0.556,0.356-1.189,0.356-1.883c0-1.236-0.403-2.214-1.2-2.904c-0.802-0.695-1.987-1.047-3.524-1.047h-3.715V49.5z"/>
		</g>
		<g>
			<path fill="#716F6E" d="M292.485,54.542h-12.154c0.045,1.917,0.561,3.396,1.547,4.438s2.342,1.563,4.068,1.563
				c1.938,0,3.721-0.639,5.346-1.917v2.589c-1.514,1.099-3.514,1.647-6.002,1.647c-2.432,0-4.342-0.781-5.732-2.345
				c-1.389-1.563-2.084-3.763-2.084-6.598c0-2.678,0.76-4.861,2.277-6.547c1.52-1.687,3.404-2.53,5.656-2.53
				c2.254,0,3.996,0.729,5.229,2.185c1.232,1.457,1.85,3.479,1.85,6.068V54.542z M289.661,52.205
				c-0.012-1.591-0.395-2.83-1.152-3.715c-0.756-0.885-1.807-1.328-3.15-1.328c-1.301,0-2.404,0.465-3.312,1.395
				s-1.469,2.146-1.682,3.648H289.661z"/>
			<path fill="#706E6D" d="M285.29,63.013c-2.465,0-4.431-0.807-5.845-2.396c-1.408-1.585-2.122-3.839-2.122-6.698
				c0-2.703,0.779-4.94,2.316-6.647c1.542-1.712,3.482-2.58,5.768-2.58c2.289,0,4.086,0.753,5.343,2.238
				c1.251,1.479,1.886,3.553,1.886,6.165v1.596h-12.15c0.067,1.796,0.572,3.203,1.502,4.185c0.952,1.007,2.284,1.517,3.959,1.517
				c1.896,0,3.663-0.634,5.253-1.885l0.243-0.19v2.974l-0.062,0.045C289.847,62.448,287.798,63.013,285.29,63.013z M285.407,44.992
				c-2.196,0-4.062,0.834-5.545,2.48c-1.485,1.651-2.238,3.82-2.238,6.447c0,2.784,0.688,4.97,2.046,6.499
				c1.354,1.522,3.245,2.294,5.62,2.294c2.41,0,4.379-0.529,5.852-1.574v-2.209c-1.58,1.171-3.327,1.765-5.195,1.765
				c-1.761,0-3.166-0.542-4.178-1.61c-1.008-1.065-1.542-2.592-1.588-4.538l-0.003-0.153h12.157v-1.296
				c0-2.539-0.61-4.548-1.813-5.972C289.324,45.709,287.603,44.992,285.407,44.992z M289.812,52.355h-9.621l0.024-0.171
				c0.217-1.527,0.796-2.783,1.723-3.732c0.934-0.956,2.084-1.44,3.42-1.44c1.384,0,2.482,0.464,3.265,1.38
				c0.776,0.907,1.176,2.19,1.188,3.812L289.812,52.355z M280.539,52.055h8.97c-0.034-1.477-0.408-2.644-1.114-3.468
				c-0.723-0.846-1.744-1.275-3.036-1.275c-1.252,0-2.331,0.454-3.205,1.35C281.306,49.529,280.763,50.67,280.539,52.055z"/>
		</g>
		<g>
			<path fill="#716F6E" d="M293.924,61.837v-2.958c1.502,1.109,3.154,1.664,4.959,1.664c2.422,0,3.631-0.808,3.631-2.421
				c0-0.46-0.104-0.849-0.311-1.168s-0.486-0.602-0.84-0.849s-0.768-0.468-1.244-0.664s-0.99-0.401-1.539-0.614
				c-0.762-0.303-1.432-0.608-2.008-0.916c-0.578-0.308-1.059-0.656-1.445-1.042c-0.387-0.386-0.678-0.826-0.875-1.319
				c-0.195-0.493-0.293-1.07-0.293-1.731c0-0.807,0.184-1.521,0.555-2.143c0.369-0.622,0.861-1.144,1.479-1.563
				c0.615-0.42,1.32-0.737,2.109-0.95c0.791-0.213,1.605-0.319,2.445-0.319c1.49,0,2.824,0.258,4.002,0.773v2.791
				c-1.268-0.829-2.723-1.244-4.371-1.244c-0.516,0-0.98,0.059-1.395,0.176c-0.416,0.118-0.771,0.283-1.068,0.496
				s-0.527,0.468-0.689,0.765s-0.244,0.625-0.244,0.983c0,0.448,0.082,0.824,0.244,1.126c0.162,0.302,0.4,0.571,0.715,0.807
				s0.695,0.448,1.143,0.639c0.449,0.191,0.959,0.398,1.531,0.622c0.762,0.292,1.445,0.591,2.051,0.899
				c0.604,0.308,1.119,0.656,1.545,1.042c0.426,0.387,0.754,0.833,0.984,1.336c0.229,0.504,0.344,1.104,0.344,1.799
				c0,0.852-0.188,1.591-0.562,2.219s-0.877,1.148-1.504,1.563c-0.629,0.414-1.352,0.723-2.17,0.924
				c-0.816,0.202-1.674,0.303-2.57,0.303C296.76,62.862,295.225,62.521,293.924,61.837z"/>
			<path fill="#706E6D" d="M298.532,63.013c-1.787,0-3.36-0.352-4.677-1.043l-0.081-0.042v-3.346l0.239,0.176
				c1.469,1.085,3.107,1.635,4.87,1.635c2.342,0,3.48-0.742,3.48-2.271c0-0.428-0.096-0.794-0.286-1.087
				c-0.195-0.302-0.465-0.574-0.8-0.807c-0.343-0.239-0.752-0.458-1.216-0.648c-0.476-0.196-0.988-0.4-1.536-0.613
				c-0.768-0.305-1.448-0.616-2.023-0.923c-0.586-0.312-1.084-0.671-1.481-1.069s-0.703-0.858-0.908-1.37
				c-0.201-0.509-0.304-1.11-0.304-1.787c0-0.833,0.194-1.58,0.576-2.22c0.379-0.639,0.892-1.181,1.523-1.611
				c0.624-0.427,1.349-0.753,2.154-0.971c0.8-0.215,1.636-0.324,2.484-0.324c1.504,0,2.87,0.264,4.062,0.786l0.09,0.039v3.166
				l-0.232-0.152c-1.237-0.809-2.68-1.219-4.289-1.219c-0.5,0-0.955,0.058-1.354,0.171c-0.396,0.112-0.74,0.271-1.021,0.474
				c-0.278,0.199-0.496,0.439-0.646,0.714c-0.15,0.274-0.226,0.581-0.226,0.912c0,0.42,0.076,0.775,0.226,1.056
				c0.151,0.282,0.378,0.537,0.673,0.757c0.304,0.227,0.678,0.436,1.111,0.621c0.448,0.19,0.957,0.397,1.527,0.621
				c0.762,0.292,1.457,0.596,2.064,0.905c0.613,0.313,1.144,0.671,1.577,1.064c0.438,0.399,0.782,0.865,1.021,1.385
				c0.237,0.523,0.357,1.15,0.357,1.862c0,0.875-0.197,1.647-0.584,2.296c-0.384,0.643-0.905,1.185-1.55,1.611
				c-0.643,0.423-1.389,0.741-2.217,0.944C300.315,62.909,299.438,63.013,298.532,63.013z M294.075,61.746
				c1.256,0.641,2.756,0.966,4.457,0.966c0.882,0,1.734-0.1,2.534-0.298c0.796-0.195,1.51-0.5,2.124-0.903
				c0.606-0.401,1.097-0.912,1.457-1.516c0.359-0.602,0.541-1.322,0.541-2.142c0-0.669-0.11-1.253-0.33-1.737
				c-0.221-0.483-0.54-0.917-0.948-1.288c-0.414-0.375-0.923-0.718-1.513-1.019c-0.598-0.304-1.283-0.605-2.036-0.893
				c-0.575-0.225-1.086-0.433-1.536-0.624c-0.456-0.194-0.852-0.416-1.174-0.657c-0.33-0.248-0.585-0.535-0.757-0.856
				c-0.174-0.325-0.263-0.728-0.263-1.197c0-0.381,0.089-0.736,0.263-1.055c0.172-0.315,0.419-0.589,0.733-0.815
				c0.311-0.223,0.686-0.397,1.115-0.519c0.425-0.121,0.908-0.182,1.436-0.182c1.569,0,2.987,0.377,4.221,1.122v-2.42
				c-1.132-0.479-2.428-0.722-3.852-0.722c-0.822,0-1.632,0.106-2.406,0.314c-0.772,0.208-1.467,0.521-2.063,0.929
				c-0.595,0.404-1.077,0.915-1.435,1.516c-0.354,0.593-0.533,1.288-0.533,2.066c0,0.639,0.095,1.203,0.282,1.676
				c0.188,0.473,0.472,0.899,0.842,1.269c0.376,0.376,0.851,0.718,1.409,1.016c0.566,0.302,1.236,0.608,1.993,0.909
				c0.549,0.212,1.063,0.417,1.54,0.614c0.484,0.199,0.912,0.428,1.273,0.68c0.367,0.256,0.663,0.555,0.88,0.89
				c0.222,0.342,0.335,0.763,0.335,1.25c0,1.706-1.272,2.571-3.781,2.571c-1.733,0-3.35-0.513-4.809-1.522V61.746z"/>
		</g>
		<g>
			<path fill="#716F6E" d="M321.688,54.542h-12.154c0.045,1.917,0.561,3.396,1.547,4.438s2.342,1.563,4.068,1.563
				c1.938,0,3.721-0.639,5.346-1.917v2.589c-1.514,1.099-3.514,1.647-6.002,1.647c-2.432,0-4.342-0.781-5.732-2.345
				c-1.389-1.563-2.084-3.763-2.084-6.598c0-2.678,0.76-4.861,2.277-6.547c1.52-1.687,3.404-2.53,5.656-2.53
				c2.254,0,3.996,0.729,5.229,2.185c1.232,1.457,1.85,3.479,1.85,6.068V54.542z M318.864,52.205
				c-0.012-1.591-0.395-2.83-1.152-3.715c-0.756-0.885-1.807-1.328-3.15-1.328c-1.301,0-2.404,0.465-3.312,1.395
				s-1.469,2.146-1.682,3.648H318.864z"/>
			<path fill="#706E6D" d="M314.493,63.013c-2.465,0-4.431-0.807-5.845-2.396c-1.408-1.585-2.122-3.839-2.122-6.698
				c0-2.703,0.779-4.94,2.316-6.647c1.542-1.712,3.482-2.58,5.768-2.58c2.289,0,4.086,0.753,5.343,2.238
				c1.251,1.479,1.886,3.553,1.886,6.165v1.596h-12.15c0.067,1.796,0.572,3.203,1.502,4.185c0.952,1.007,2.284,1.517,3.959,1.517
				c1.896,0,3.663-0.634,5.253-1.885l0.243-0.19v2.974l-0.062,0.045C319.05,62.448,317.001,63.013,314.493,63.013z M314.61,44.992
				c-2.196,0-4.062,0.834-5.545,2.48c-1.485,1.651-2.238,3.82-2.238,6.447c0,2.784,0.688,4.97,2.046,6.499
				c1.354,1.522,3.245,2.294,5.62,2.294c2.41,0,4.379-0.529,5.852-1.574v-2.209c-1.58,1.171-3.327,1.765-5.195,1.765
				c-1.761,0-3.166-0.542-4.178-1.61c-1.008-1.065-1.542-2.592-1.588-4.538l-0.003-0.153h12.157v-1.296
				c0-2.539-0.61-4.548-1.813-5.972C318.527,45.709,316.806,44.992,314.61,44.992z M319.015,52.355h-9.621l0.024-0.171
				c0.217-1.527,0.796-2.783,1.723-3.732c0.934-0.956,2.084-1.44,3.42-1.44c1.384,0,2.482,0.464,3.265,1.38
				c0.776,0.907,1.176,2.19,1.188,3.812L319.015,52.355z M309.742,52.055h8.97c-0.034-1.477-0.408-2.644-1.114-3.468
				c-0.723-0.846-1.744-1.275-3.036-1.275c-1.252,0-2.331,0.454-3.205,1.35C310.509,49.529,309.966,50.67,309.742,52.055z"/>
		</g>
		<g>
			<path fill="#716F6E" d="M336.493,62.459h-2.758V59.77h-0.066c-1.199,2.062-2.965,3.093-5.295,3.093
				c-1.715,0-3.057-0.454-4.027-1.361c-0.969-0.908-1.453-2.112-1.453-3.614c0-3.216,1.893-5.088,5.682-5.615l5.16-0.723
				c0-2.925-1.182-4.387-3.547-4.387c-2.072,0-3.945,0.706-5.613,2.118v-2.824c1.691-1.076,3.641-1.614,5.85-1.614
				c4.045,0,6.068,2.141,6.068,6.421V62.459z M333.735,53.751l-4.152,0.571c-1.277,0.18-2.24,0.496-2.891,0.95
				c-0.65,0.454-0.975,1.258-0.975,2.413c0,0.84,0.299,1.526,0.898,2.059s1.398,0.799,2.396,0.799c1.367,0,2.496-0.479,3.387-1.438
				c0.891-0.959,1.336-2.171,1.336-3.64V53.751z"/>
			<path fill="#706E6D" d="M328.374,63.013c-1.745,0-3.135-0.472-4.13-1.402c-0.996-0.934-1.501-2.187-1.501-3.724
				c0-3.288,1.955-5.227,5.812-5.763l5.03-0.705c-0.034-2.763-1.146-4.107-3.396-4.107c-2.028,0-3.885,0.701-5.517,2.082
				l-0.247,0.209v-3.23l0.07-0.044c1.707-1.086,3.702-1.637,5.93-1.637c4.126,0,6.219,2.211,6.219,6.571v11.346h-3.059v-2.418
				C332.368,62.063,330.616,63.013,328.374,63.013z M330.188,47.012c2.453,0,3.697,1.526,3.697,4.537v0.13l-5.29,0.741
				c-3.736,0.52-5.552,2.308-5.552,5.466c0,1.451,0.473,2.63,1.405,3.505c0.938,0.876,2.258,1.32,3.925,1.32
				c2.263,0,4-1.015,5.165-3.018l0.044-0.075h0.303v2.689h2.457V51.264c0-4.22-1.936-6.271-5.918-6.271
				c-2.14,0-4.057,0.521-5.699,1.546v2.424C326.352,47.668,328.188,47.012,330.188,47.012z M329.012,60.693
				c-1.031,0-1.871-0.282-2.496-0.837c-0.63-0.559-0.949-1.289-0.949-2.171c0-1.202,0.35-2.055,1.039-2.536
				c0.667-0.465,1.661-0.793,2.956-0.975l4.323-0.595v1.886c0,1.5-0.463,2.759-1.376,3.742
				C331.592,60.193,330.417,60.693,329.012,60.693z M333.584,53.923l-3.981,0.548c-1.247,0.176-2.197,0.486-2.825,0.924
				c-0.604,0.422-0.91,1.192-0.91,2.29c0,0.804,0.277,1.439,0.848,1.946c0.569,0.505,1.342,0.761,2.297,0.761
				c1.317,0,2.42-0.467,3.276-1.39c0.86-0.926,1.296-2.116,1.296-3.537V53.923z"/>
		</g>
		<g>
			<path fill="#716F6E" d="M348.975,48.036c-0.48-0.37-1.176-0.555-2.084-0.555c-1.176,0-2.16,0.555-2.949,1.664
				c-0.791,1.109-1.186,2.622-1.186,4.539v8.775h-2.758V45.246h2.758v3.547h0.066c0.393-1.21,0.992-2.154,1.799-2.833
				c0.807-0.678,1.709-1.017,2.707-1.017c0.717,0,1.266,0.079,1.646,0.235V48.036z"/>
			<path fill="#706E6D" d="M342.907,62.609h-3.059V45.096h3.059v3.036c0.393-0.945,0.936-1.713,1.618-2.287
				c0.831-0.698,1.774-1.052,2.804-1.052c0.732,0,1.306,0.083,1.703,0.247l0.094,0.038v3.263l-0.242-0.186
				c-0.451-0.347-1.121-0.523-1.992-0.523c-1.12,0-2.071,0.539-2.827,1.601c-0.769,1.078-1.157,2.575-1.157,4.452V62.609z
				 M340.149,62.309h2.457v-8.625c0-1.94,0.408-3.497,1.214-4.625c0.815-1.146,1.849-1.727,3.071-1.727
				c0.799,0,1.447,0.143,1.934,0.424v-2.474c-0.357-0.125-0.86-0.189-1.496-0.189c-0.957,0-1.835,0.331-2.61,0.982
				c-0.781,0.657-1.371,1.587-1.753,2.764l-0.033,0.104h-0.326v-3.547h-2.457V62.309z"/>
		</g>
		<g>
			<path fill="#716F6E" d="M361.532,61.669c-1.322,0.796-2.891,1.193-4.705,1.193c-2.455,0-4.436-0.799-5.943-2.396
				s-2.262-3.667-2.262-6.211c0-2.835,0.812-5.113,2.438-6.833s3.795-2.58,6.506-2.58c1.514,0,2.848,0.28,4.002,0.84v2.824
				c-1.277-0.896-2.646-1.345-4.102-1.345c-1.76,0-3.203,0.63-4.33,1.891c-1.125,1.261-1.689,2.917-1.689,4.967
				c0,2.017,0.531,3.608,1.59,4.773c1.059,1.166,2.479,1.749,4.262,1.749c1.5,0,2.912-0.499,4.234-1.496V61.669z"/>
			<path fill="#706E6D" d="M356.827,63.013c-2.485,0-4.521-0.822-6.053-2.443c-1.527-1.617-2.303-3.742-2.303-6.313
				c0-2.862,0.834-5.195,2.479-6.937c1.647-1.743,3.873-2.627,6.615-2.627c1.529,0,2.897,0.288,4.067,0.855l0.085,0.041v3.207
				l-0.236-0.166c-1.246-0.874-2.597-1.317-4.016-1.317c-1.707,0-3.126,0.62-4.218,1.841c-1.096,1.228-1.651,2.865-1.651,4.867
				c0,1.968,0.521,3.54,1.551,4.673c1.023,1.128,2.42,1.699,4.15,1.699c1.46,0,2.854-0.493,4.145-1.466l0.24-0.181v3.008
				l-0.073,0.044C360.27,62.604,358.661,63.013,356.827,63.013z M357.565,44.992c-2.657,0-4.809,0.853-6.396,2.533
				c-1.591,1.684-2.396,3.948-2.396,6.73c0,2.493,0.747,4.548,2.221,6.108c1.472,1.558,3.435,2.348,5.834,2.348
				c1.746,0,3.277-0.379,4.555-1.128v-2.242c-1.275,0.896-2.648,1.352-4.084,1.352c-1.818,0-3.289-0.605-4.373-1.799
				c-1.08-1.189-1.629-2.829-1.629-4.874c0-2.078,0.582-3.783,1.728-5.067c1.151-1.288,2.646-1.941,4.442-1.941
				c1.393,0,2.72,0.407,3.951,1.212v-2.447C360.307,45.256,359.011,44.992,357.565,44.992z"/>
		</g>
		<g>
			<path fill="#716F6E" d="M378.303,62.459h-2.758v-9.918c0-3.586-1.334-5.379-4-5.379c-1.346,0-2.477,0.518-3.396,1.555
				c-0.918,1.037-1.379,2.368-1.379,3.992v9.75h-2.756V36.975h2.756v11.128h0.068c1.322-2.174,3.205-3.261,5.648-3.261
				c3.877,0,5.816,2.336,5.816,7.01V62.459z"/>
			<path fill="#706E6D" d="M378.454,62.609h-3.059V52.541c0-3.519-1.259-5.229-3.85-5.229c-1.294,0-2.398,0.506-3.284,1.504
				c-0.89,1.005-1.341,2.314-1.341,3.893v9.9h-3.057V36.825h3.057v10.871c1.334-1.994,3.205-3.004,5.566-3.004
				c3.959,0,5.967,2.409,5.967,7.16V62.609z M375.696,62.309h2.457V51.852c0-4.616-1.854-6.86-5.666-6.86
				c-2.376,0-4.233,1.073-5.521,3.189l-0.044,0.072h-0.303V37.125h-2.455v25.184h2.455v-9.6c0-1.653,0.477-3.03,1.417-4.092
				c0.945-1.065,2.126-1.605,3.509-1.605c2.754,0,4.15,1.86,4.15,5.529V62.309z"/>
		</g>
		<g>
			<path fill="#716F6E" d="M403.174,62.459h-12.508V38.354h2.824v21.551h9.684V62.459z"/>
			<path fill="#706E6D" d="M403.325,62.609h-12.809V38.204h3.125v21.55h9.684V62.609z M390.817,62.309h12.207v-2.254h-9.684V38.503
				h-2.523V62.309z"/>
		</g>
		<g>
			<path fill="#716F6E" d="M417.137,62.459h-2.756V59.77h-0.068c-1.199,2.062-2.963,3.093-5.295,3.093
				c-1.715,0-3.057-0.454-4.025-1.361c-0.971-0.908-1.455-2.112-1.455-3.614c0-3.216,1.895-5.088,5.682-5.615l5.162-0.723
				c0-2.925-1.184-4.387-3.547-4.387c-2.074,0-3.945,0.706-5.615,2.118v-2.824c1.691-1.076,3.643-1.614,5.85-1.614
				c4.045,0,6.068,2.141,6.068,6.421V62.459z M414.381,53.751l-4.152,0.571c-1.277,0.18-2.242,0.496-2.893,0.95
				c-0.648,0.454-0.975,1.258-0.975,2.413c0,0.84,0.301,1.526,0.9,2.059s1.396,0.799,2.395,0.799c1.367,0,2.496-0.479,3.387-1.438
				c0.893-0.959,1.338-2.171,1.338-3.64V53.751z"/>
			<path fill="#706E6D" d="M409.018,63.013c-1.746,0-3.135-0.472-4.128-1.402c-0.997-0.933-1.503-2.186-1.503-3.724
				c0-3.288,1.955-5.227,5.812-5.763l5.032-0.705c-0.034-2.763-1.146-4.107-3.396-4.107c-2.027,0-3.885,0.701-5.519,2.083
				l-0.247,0.208v-3.229l0.07-0.044c1.707-1.086,3.702-1.637,5.93-1.637c4.126,0,6.219,2.211,6.219,6.571v11.346h-3.057v-2.421
				C413.014,62.062,411.261,63.013,409.018,63.013z M410.834,47.012c2.453,0,3.697,1.526,3.697,4.537v0.13l-5.292,0.741
				c-3.736,0.52-5.552,2.308-5.552,5.466c0,1.452,0.474,2.631,1.407,3.505c0.936,0.876,2.256,1.32,3.923,1.32
				c2.263,0,4-1.015,5.165-3.018l0.044-0.075h0.305v2.689h2.455V51.264c0-4.22-1.936-6.271-5.918-6.271
				c-2.14,0-4.057,0.521-5.699,1.546v2.424C406.999,47.668,408.835,47.012,410.834,47.012z M409.657,60.693
				c-1.029,0-1.869-0.282-2.494-0.837c-0.631-0.561-0.951-1.29-0.951-2.171c0-1.2,0.35-2.053,1.039-2.536
				c0.667-0.465,1.661-0.793,2.958-0.975l4.323-0.595v1.886c0,1.5-0.464,2.76-1.379,3.742
				C412.237,60.193,411.061,60.693,409.657,60.693z M414.231,53.923l-3.981,0.548c-1.248,0.176-2.2,0.487-2.827,0.924
				c-0.604,0.423-0.91,1.193-0.91,2.29c0,0.791,0.285,1.445,0.85,1.946c0.569,0.505,1.341,0.761,2.295,0.761
				c1.317,0,2.42-0.467,3.276-1.39c0.861-0.925,1.298-2.115,1.298-3.537V53.923z"/>
		</g>
		<g>
			<path fill="#716F6E" d="M423.469,59.971h-0.068v2.488h-2.756V36.975h2.756v11.296h0.068c1.355-2.286,3.34-3.429,5.951-3.429
				c2.207,0,3.936,0.771,5.186,2.311c1.25,1.541,1.875,3.606,1.875,6.195c0,2.88-0.701,5.186-2.102,6.917
				c-1.402,1.731-3.318,2.597-5.75,2.597C426.354,62.862,424.635,61.898,423.469,59.971z M423.401,53.028v2.404
				c0,1.423,0.463,2.63,1.389,3.622c0.924,0.992,2.098,1.488,3.521,1.488c1.67,0,2.977-0.639,3.924-1.917
				c0.947-1.277,1.422-3.053,1.422-5.329c0-1.916-0.443-3.418-1.328-4.505c-0.887-1.087-2.086-1.63-3.598-1.63
				c-1.604,0-2.893,0.558-3.867,1.672C423.889,49.95,423.401,51.348,423.401,53.028z"/>
			<path fill="#706E6D" d="M428.629,63.013c-2.187,0-3.894-0.887-5.078-2.637v2.233h-3.057V36.825h3.057v11.031
				c1.372-2.1,3.345-3.164,5.869-3.164c2.244,0,4.028,0.796,5.302,2.366c1.267,1.562,1.909,3.677,1.909,6.29
				c0,2.901-0.719,5.26-2.136,7.012C433.071,62.12,431.097,63.013,428.629,63.013z M423.25,59.82h0.304l0.043,0.073
				c1.132,1.87,2.825,2.818,5.032,2.818c2.372,0,4.268-0.854,5.634-2.541c1.372-1.696,2.067-3.992,2.067-6.823
				c0-2.542-0.619-4.594-1.841-6.1c-1.215-1.497-2.92-2.256-5.069-2.256c-2.543,0-4.502,1.129-5.822,3.356l-0.043,0.073h-0.305
				V37.125h-2.455v25.184h2.455V59.82z M428.311,60.693c-1.461,0-2.683-0.518-3.631-1.536c-0.948-1.017-1.43-2.27-1.43-3.725v-2.404
				c0-1.709,0.505-3.154,1.5-4.292c1-1.144,2.34-1.724,3.98-1.724c1.552,0,2.802,0.567,3.714,1.686
				c0.903,1.11,1.362,2.658,1.362,4.6c0,2.296-0.488,4.119-1.452,5.417C431.383,60.027,430.022,60.693,428.311,60.693z
				 M428.731,47.312c-1.551,0-2.813,0.545-3.754,1.621c-0.946,1.083-1.426,2.46-1.426,4.095v2.404c0,1.376,0.453,2.561,1.348,3.52
				c0.891,0.956,2.038,1.44,3.412,1.44c1.611,0,2.891-0.624,3.804-1.855c0.924-1.246,1.392-3.009,1.392-5.24
				c0-1.871-0.436-3.355-1.294-4.41C431.36,47.842,430.188,47.312,428.731,47.312z"/>
		</g>
	</g>
</g>
</svg>
