<?xml version="1.0" encoding="utf-8"?>
<!-- Generator: Adobe Illustrator 16.0.0, SVG Export Plug-In . SVG Version: 6.00 Build 0)  -->
<!DOCTYPE svg PUBLIC "-//W3C//DTD SVG 1.1//EN" "http://www.w3.org/Graphics/SVG/1.1/DTD/svg11.dtd">
<svg version="1.1" id="圖層_1" xmlns="http://www.w3.org/2000/svg" xmlns:xlink="http://www.w3.org/1999/xlink" x="0px" y="0px"
	 width="167.31px" height="122.436px" viewBox="0 0 167.31 122.436" enable-background="new 0 0 167.31 122.436"
	 xml:space="preserve">
<g>
	<g>
		<polygon fill="#3E3A41" points="-155.63,23.542 -187.125,-47.464 -232.418,10.624 -276.507,-49.648 -275.421,-50.648 
			-232.384,8.186 -186.803,-50.273 -154.372,22.841 		"/>
	</g>
	<g>
		<rect x="-294.613" y="-71.062" fill="#D78931" width="37.297" height="41.827"/>
	</g>
	<g>
		<rect x="-165.714" y="11.177" fill="#39BABF" width="21.427" height="24.03"/>
	</g>
	<g>
		<rect x="-241.518" y="0.419" fill="#7F7F7F" width="18.2" height="20.409"/>
	</g>
	<g>
		<ellipse fill="#F2A919" cx="-223.318" cy="-38.318" rx="7.03" ry="7.883"/>
	</g>
	<g>
		<ellipse fill="#D78931" cx="-186.028" cy="-1.638" rx="7.029" ry="7.883"/>
	</g>
</g>
<g>
	<polygon fill="#39BABF" points="330.825,15.963 367.416,-4.413 403.312,14.501 403.312,73.154 367.562,97.02 330.825,75.103 	"/>
	<g>
		<g>
			<g enable-background="new    ">
				<g>
					<g>
						<path fill="#D78931" d="M367.562,39.459l-0.327-0.187L321.692,13.39l45.576-26.075l45.871,26.07L367.562,39.459z
							 M324.302,13.386L367.56,37.97l42.969-24.582l-43.256-24.586L324.302,13.386z"/>
					</g>
				</g>
				<g>
					<g>
						<path fill="#D78931" d="M366.758,90.243l0.149-51.899l45.584-26.079l-0.148,51.9L366.758,90.243z M368.214,39.086
							l-0.14,48.915l42.962-24.578l0.141-48.916L368.214,39.086z"/>
					</g>
				</g>
				<g>
					<g>
						<path fill="#D78931" d="M368.066,90.236l-45.869-26.07l0.149-51.893l45.869,26.071L368.066,90.236z M323.507,63.423
							l43.257,24.585l0.142-48.923l-43.258-24.584L323.507,63.423z"/>
					</g>
				</g>
			</g>
		</g>
		<g>
			<ellipse fill="#D78931" cx="367.271" cy="-11.941" rx="2.617" ry="2.576"/>
		</g>
		<g>
			<ellipse fill="#D78931" cx="411.834" cy="13.387" rx="2.618" ry="2.576"/>
		</g>
		<g>
			<ellipse fill="#D78931" cx="411.689" cy="63.794" rx="2.618" ry="2.576"/>
		</g>
		<g>
			<ellipse fill="#D78931" cx="367.416" cy="89.123" rx="2.617" ry="2.576"/>
		</g>
		<g>
			<ellipse fill="#D78931" cx="322.851" cy="63.795" rx="2.617" ry="2.576"/>
		</g>
		<g>
			<ellipse fill="#D78931" cx="322.997" cy="13.388" rx="2.617" ry="2.576"/>
		</g>
		<g>
			<ellipse fill="#D78931" cx="367.561" cy="38.715" rx="2.618" ry="2.576"/>
		</g>
	</g>
	<g>
		<g>
			<g enable-background="new    ">
				<g>
					<g>
						<path fill="#7F7F7F" d="M400.696,46.242l-0.329-0.186l-45.542-25.884l45.578-26.075l45.869,26.071L400.696,46.242z
							 M357.437,20.169l43.256,24.585l42.969-24.583L400.405-4.413L357.437,20.169z"/>
					</g>
				</g>
				<g>
					<g>
						<path fill="#7F7F7F" d="M399.891,97.027l0.151-51.9l45.584-26.078l-0.15,51.899L399.891,97.027z M401.347,45.869
							l-0.141,48.916l42.965-24.579l0.139-48.915L401.347,45.869z"/>
					</g>
				</g>
				<g>
					<g>
						<path fill="#7F7F7F" d="M401.201,97.02l-45.872-26.07l0.15-51.893l45.871,26.071L401.201,97.02z M356.64,70.207l43.259,24.585
							l0.14-48.923l-43.256-24.584L356.64,70.207z"/>
					</g>
				</g>
			</g>
		</g>
		<g>
			<ellipse fill="#7F7F7F" cx="400.404" cy="-5.158" rx="2.618" ry="2.577"/>
		</g>
		<g>
			<ellipse fill="#7F7F7F" cx="444.968" cy="20.17" rx="2.617" ry="2.577"/>
		</g>
		<g>
			<ellipse fill="#7F7F7F" cx="444.823" cy="70.577" rx="2.617" ry="2.577"/>
		</g>
		<g>
			<ellipse fill="#7F7F7F" cx="400.548" cy="95.906" rx="2.617" ry="2.577"/>
		</g>
		<g>
			<ellipse fill="#7F7F7F" cx="355.985" cy="70.578" rx="2.618" ry="2.577"/>
		</g>
		<g>
			<ellipse fill="#7F7F7F" cx="356.131" cy="20.171" rx="2.618" ry="2.576"/>
		</g>
		<g>
			<ellipse fill="#7F7F7F" cx="400.694" cy="45.498" rx="2.617" ry="2.577"/>
		</g>
	</g>
</g>
<g>
	<g>
		<path fill="#3E3A41" d="M107.559,103.033c-22.854,16.38-54.368,10.532-70.251-13.034C21.425,66.432,27.095,33.933,49.947,17.553
			c22.854-16.38,54.368-10.533,70.251,13.034C136.082,54.154,130.412,86.653,107.559,103.033z M50.834,18.869
			c-22.149,15.876-27.645,47.374-12.25,70.216c15.395,22.841,45.939,28.509,68.089,12.633c22.15-15.875,27.645-47.375,12.25-70.216
			C103.529,8.66,72.983,2.993,50.834,18.869z"/>
	</g>
	<g>
		<path fill="#7F7F7F" d="M131.22,32.843c-10.024-1.859-20.834,0.294-29.762,6.693l22.714,33.7L131.22,32.843z"/>
	</g>
	<g>
		<path fill="#39BABF" d="M101.458,39.536c-18.49,13.252-22.398,38.431-9.854,57.044c12.544,18.612,37.401,23.173,55.449,10.238
			c9.025-6.469,14.569-16.037,16.372-26.374l-39.253-7.208L101.458,39.536z"/>
	</g>
	<g>
		<path fill="#F6BD4C" d="M124.397,73.076l39.169,7.268c1.803-10.338-0.219-21.384-6.49-30.69
			c-6.272-9.306-15.608-15.11-25.632-16.971L124.397,73.076z"/>
	</g>
	<g>
		<path fill="#7F7F7F" d="M65.781,60.293c0,14.154-11.125,25.624-24.849,25.624S16.085,74.447,16.085,60.293
			c0-14.15,11.124-25.623,24.847-25.623S65.781,46.143,65.781,60.293z"/>
	</g>
	<g>
		<polygon fill="#D78931" points="4.21,99.295 3.112,98.163 77.656,21.291 78.753,22.422 		"/>
	</g>
</g>
<g>
	<g>
		<circle fill="#39BABF" cx="-159.189" cy="446.907" r="32.067"/>
	</g>
	<g>
		<circle fill="#F2A919" cx="-126.9" cy="446.907" r="20.333"/>
	</g>
	<g>
		<circle fill="#7F7F7F" cx="-137.811" cy="470.957" r="14.32"/>
	</g>
	<g>
		<rect x="-135.942" y="458.966" fill="#39BABF" width="8.908" height="17.815"/>
	</g>
	<g>
		<rect x="-122.581" y="441.151" fill="#39BABF" width="8.908" height="35.63"/>
	</g>
	<g>
		<polygon fill="#39BABF" points="-100.312,476.781 -100.312,445.604 -109.22,445.604 -109.22,450.282 -109.22,476.781 		"/>
	</g>
	<g>
		<rect x="-95.858" y="431.687" fill="#39BABF" width="8.907" height="45.095"/>
	</g>
	<g>
		<polygon fill="#D78931" points="-82.498,476.781 -73.59,476.781 -73.59,450.282 -73.59,423.336 -82.498,423.336 		"/>
	</g>
	<g>
		<rect x="-69.136" y="441.151" fill="#39BABF" width="8.908" height="35.63"/>
	</g>
	<g>
		<rect x="-55.775" y="431.687" fill="#F2A919" width="8.907" height="45.095"/>
	</g>
</g>
<g>
	<rect x="170.587" y="200.978" fill="#39BABF" width="149.647" height="106.891"/>
	<g>
		<defs>
			<rect id="SVGID_1_" x="170.587" y="200.978" width="149.647" height="106.891"/>
		</defs>
		<clipPath id="SVGID_2_">
			<use xlink:href="#SVGID_1_"  overflow="visible"/>
		</clipPath>
		<g clip-path="url(#SVGID_2_)">
			<polygon fill="#FFFFFF" points="213.429,287.351 148.839,244.29 149.579,243.178 213.259,285.631 277.479,221.411 
				342.085,286.018 341.141,286.963 277.479,223.301 			"/>
		</g>
		<g clip-path="url(#SVGID_2_)">
			<polygon fill="#7F7F7F" points="277.479,287.194 213.344,265.816 149.42,287.124 148.998,285.856 213.344,264.408 
				277.479,285.786 341.401,264.479 341.824,265.745 			"/>
		</g>
	</g>
	<g>
		<g>
			<g>
				<rect x="162.515" y="307.2" fill="#3E3A41" width="5.344" height="1.336"/>
			</g>
		</g>
		<g>
			<g>
				<rect x="162.515" y="296.512" fill="#3E3A41" width="5.344" height="1.336"/>
			</g>
		</g>
		<g>
			<g>
				<rect x="162.515" y="285.822" fill="#3E3A41" width="5.344" height="1.336"/>
			</g>
		</g>
		<g>
			<g>
				<rect x="162.515" y="275.133" fill="#3E3A41" width="5.344" height="1.337"/>
			</g>
		</g>
		<g>
			<g>
				<rect x="162.515" y="264.444" fill="#3E3A41" width="5.344" height="1.336"/>
			</g>
		</g>
		<g>
			<g>
				<rect x="162.515" y="253.755" fill="#3E3A41" width="5.344" height="1.336"/>
			</g>
		</g>
		<g>
			<g>
				<rect x="162.515" y="243.065" fill="#3E3A41" width="5.344" height="1.337"/>
			</g>
		</g>
		<g>
			<g>
				<rect x="162.515" y="232.377" fill="#3E3A41" width="5.344" height="1.336"/>
			</g>
		</g>
		<g>
			<g>
				<rect x="162.515" y="221.688" fill="#3E3A41" width="5.344" height="1.336"/>
			</g>
		</g>
		<g>
			<g>
				<rect x="162.515" y="210.998" fill="#3E3A41" width="5.344" height="1.337"/>
			</g>
		</g>
		<g>
			<g>
				<rect x="162.515" y="200.31" fill="#3E3A41" width="5.344" height="1.336"/>
			</g>
		</g>
	</g>
	<g>
		<circle fill="#F2A919" cx="225.941" cy="243.065" r="6.684"/>
	</g>
	<g>
		<circle fill="#D78931" cx="306.999" cy="296.512" r="6.684"/>
	</g>
</g>
<g>
	<g>
		<g>
			<path fill="#7F7F7F" d="M206.464,459.663l17.133-17.136c-8.764-8.765-21.152-14.188-34.251-14.188v24.221
				C195.391,452.561,202.077,455.276,206.464,459.663z"/>
		</g>
		<g>
			<path fill="#F6BD4C" d="M213.565,476.78c0,6.679-2.717,12.733-7.102,17.119l17.133,17.134
				c8.768-8.766,14.189-20.876,14.189-34.253c0-13.375-5.422-25.486-14.189-34.253l-17.133,17.136
				C210.849,464.049,213.565,470.104,213.565,476.78z"/>
		</g>
		<g>
			<path fill="#39BABF" d="M189.345,525.222c13.376,0,25.488-5.422,34.251-14.188l-17.133-17.134
				c-4.387,4.387-10.442,7.102-17.119,7.102c-13.355,0-24.221-10.864-24.221-24.221c0-13.354,10.112-24.22,24.221-24.22V428.34
				c-27.208,0-48.441,21.688-48.441,48.44C140.904,503.534,162.591,525.222,189.345,525.222z"/>
		</g>
	</g>
	<g>
		<g>
			
				<rect x="156.164" y="475.4" transform="matrix(-0.6557 -0.755 0.755 -0.6557 -114.9269 938.9285)" fill="#D78931" width="0.895" height="40.535"/>
		</g>
		<g>
			
				<rect x="114.504" y="495.219" transform="matrix(-0.6126 -0.7904 0.7904 -0.6126 -181.2778 902.4849)" fill="#7F7F7F" width="32.045" height="0.896"/>
		</g>
		<g>
			<circle fill="#D78931" cx="171.908" cy="482.372" r="10.748"/>
		</g>
		<g>
			<circle fill="#7F7F7F" cx="141.314" cy="508.962" r="3.583"/>
		</g>
		<g>
			<circle fill="#F6BD4C" cx="120.83" cy="482.736" r="6.68"/>
		</g>
	</g>
</g>
</svg>
