<?xml version="1.0" encoding="utf-8"?>
<!-- Generator: Adobe Illustrator 16.0.0, SVG Export Plug-In . SVG Version: 6.00 Build 0)  -->
<!DOCTYPE svg PUBLIC "-//W3C//DTD SVG 1.1//EN" "http://www.w3.org/Graphics/SVG/1.1/DTD/svg11.dtd">
<svg version="1.1" id="圖層_1" xmlns="http://www.w3.org/2000/svg" xmlns:xlink="http://www.w3.org/1999/xlink" x="0px" y="0px"
	 width="167.31px" height="122.436px" viewBox="0 0 167.31 122.436" enable-background="new 0 0 167.31 122.436"
	 xml:space="preserve">
<g>
	<g>
		<polygon fill="#3E3A41" points="-125.949,39.25 -160.034,-29.275 -209.049,26.783 -256.764,-31.382 -255.588,-32.347 
			-209.013,24.43 -159.685,-31.986 -124.586,38.573 		"/>
	</g>
	<g>
		<rect x="-276.358" y="-52.047" fill="#D78931" width="40.363" height="40.365"/>
	</g>
	<g>
		<rect x="-136.862" y="27.317" fill="#39BABF" width="23.188" height="23.188"/>
	</g>
	<g>
		<rect x="-218.898" y="16.935" fill="#7F7F7F" width="19.696" height="19.694"/>
	</g>
	<g>
		<circle fill="#F2A919" cx="-199.202" cy="-20.448" r="7.608"/>
	</g>
	<g>
		<circle fill="#D78931" cx="-158.845" cy="14.95" r="7.607"/>
	</g>
</g>
<g>
	<polygon fill="#39BABF" points="342.825,30.842 380.185,9.709 416.833,29.327 416.833,90.159 380.333,114.911 342.825,92.179 	"/>
	<g>
		<g>
			<g enable-background="new    ">
				<g>
					<g>
						<path fill="#D78931" d="M380.333,55.211l-0.334-0.193l-46.498-26.845l46.533-27.044l46.834,27.039L380.333,55.211z
							 M336.165,28.169l44.166,25.498l43.871-25.495L380.038,2.673L336.165,28.169z"/>
					</g>
				</g>
				<g>
					<g>
						<path fill="#D78931" d="M379.513,107.882l0.152-53.827l46.541-27.048l-0.152,53.828L379.513,107.882z M380.999,54.825
							l-0.143,50.732l43.863-25.491l0.145-50.733L380.999,54.825z"/>
					</g>
				</g>
				<g>
					<g>
						<path fill="#D78931" d="M380.849,107.875l-46.832-27.039l0.152-53.821l46.832,27.04L380.849,107.875z M335.354,80.066
							l44.164,25.499l0.145-50.74l-44.166-25.498L335.354,80.066z"/>
					</g>
				</g>
			</g>
		</g>
		<g>
			<circle fill="#D78931" cx="380.036" cy="1.902" r="2.672"/>
		</g>
		<g>
			<circle fill="#D78931" cx="425.535" cy="28.17" r="2.673"/>
		</g>
		<g>
			<circle fill="#D78931" cx="425.387" cy="80.451" r="2.673"/>
		</g>
		<g>
			<circle fill="#D78931" cx="380.185" cy="106.72" r="2.672"/>
		</g>
		<g>
			<circle fill="#D78931" cx="334.685" cy="80.452" r="2.672"/>
		</g>
		<g>
			<circle fill="#D78931" cx="334.833" cy="28.171" r="2.672"/>
		</g>
		<g>
			<circle fill="#D78931" cx="380.332" cy="54.44" r="2.673"/>
		</g>
	</g>
	<g>
		<g>
			<g enable-background="new    ">
				<g>
					<g>
						<path fill="#7F7F7F" d="M414.163,62.247l-0.336-0.192l-46.498-26.846l46.535-27.044l46.832,27.039L414.163,62.247z
							 M369.995,35.205l44.164,25.499l43.871-25.496L413.866,9.709L369.995,35.205z"/>
					</g>
				</g>
				<g>
					<g>
						<path fill="#7F7F7F" d="M413.341,114.918l0.154-53.828l46.541-27.047l-0.154,53.827L413.341,114.918z M414.827,61.86
							l-0.143,50.733l43.865-25.492l0.143-50.732L414.827,61.86z"/>
					</g>
				</g>
				<g>
					<g>
						<path fill="#7F7F7F" d="M414.679,114.911l-46.834-27.039l0.152-53.82l46.834,27.039L414.679,114.911z M369.183,87.102
							l44.166,25.498l0.143-50.74l-44.164-25.498L369.183,87.102z"/>
					</g>
				</g>
			</g>
		</g>
		<g>
			<circle fill="#7F7F7F" cx="413.865" cy="8.937" r="2.673"/>
		</g>
		<g>
			<circle fill="#7F7F7F" cx="459.364" cy="35.206" r="2.672"/>
		</g>
		<g>
			<circle fill="#7F7F7F" cx="459.216" cy="87.486" r="2.672"/>
		</g>
		<g>
			<circle fill="#7F7F7F" cx="414.013" cy="113.755" r="2.672"/>
		</g>
		<g>
			<circle fill="#7F7F7F" cx="368.514" cy="87.487" r="2.673"/>
		</g>
		<g>
			<circle fill="#7F7F7F" cx="368.662" cy="35.207" r="2.673"/>
		</g>
		<g>
			<circle fill="#7F7F7F" cx="414.161" cy="61.475" r="2.672"/>
		</g>
	</g>
</g>
<g>
	<g>
		<path fill="#3E3A41" d="M-151.256,271.268c-19.662,13.666-46.776,8.787-60.441-10.875s-8.787-46.775,10.875-60.441
			c19.662-13.666,46.776-8.788,60.441,10.874C-126.717,230.488-131.595,257.603-151.256,271.268z M-200.061,201.05
			c-19.057,13.245-23.785,39.524-10.54,58.581c13.245,19.057,39.525,23.785,58.582,10.54s23.785-39.525,10.54-58.582
			C-154.724,192.533-181.004,187.805-200.061,201.05z"/>
	</g>
	<g>
		<path fill="#7F7F7F" d="M-130.899,212.709c-8.625-1.551-17.925,0.246-25.606,5.583l19.542,28.117L-130.899,212.709z"/>
	</g>
	<g>
		<path fill="#39BABF" d="M-156.505,218.292c-15.909,11.057-19.271,32.063-8.478,47.592c10.793,15.528,32.179,19.334,47.707,8.542
			c7.765-5.396,12.534-13.379,14.086-22.003l-33.772-6.014L-156.505,218.292z"/>
	</g>
	<g>
		<path fill="#F6BD4C" d="M-136.77,246.275l33.699,6.063c1.552-8.625-0.188-17.841-5.583-25.605
			c-5.397-7.764-13.429-12.606-22.054-14.159L-136.77,246.275z"/>
	</g>
	<g>
		<circle fill="#7F7F7F" cx="-208.579" cy="235.61" r="21.378"/>
	</g>
	<g>
		
			<rect x="-209.247" y="190.26" transform="matrix(0.7071 0.7071 -0.7071 0.7071 105.5102 216.4966)" fill="#D78931" width="1.336" height="90.7"/>
	</g>
</g>
<g>
	<g>
		<path fill="#39BABF" d="M-146.372,372.223c0,20.112-16.306,36.415-36.417,36.415c-20.114,0-36.418-16.303-36.418-36.415
			c0-20.115,16.305-36.418,36.418-36.418C-162.677,335.804-146.372,352.108-146.372,372.223z"/>
	</g>
	<g>
		<circle fill="#F2A919" cx="-146.12" cy="372.223" r="23.092"/>
	</g>
	<g>
		<circle fill="#7F7F7F" cx="-158.511" cy="399.534" r="16.263"/>
	</g>
	<g>
		<rect x="-156.39" y="385.916" fill="#39BABF" width="10.116" height="20.233"/>
	</g>
	<g>
		<rect x="-141.215" y="365.686" fill="#39BABF" width="10.117" height="40.464"/>
	</g>
	<g>
		<polygon fill="#39BABF" points="-115.925,406.149 -115.925,370.743 -126.041,370.743 -126.041,376.055 -126.041,406.149 		"/>
	</g>
	<g>
		<rect x="-110.867" y="354.936" fill="#39BABF" width="10.117" height="51.213"/>
	</g>
	<g>
		<polygon fill="#D78931" points="-95.693,406.149 -85.577,406.149 -85.577,376.055 -85.577,345.453 -95.693,345.453 		"/>
	</g>
	<g>
		<rect x="-80.519" y="365.686" fill="#39BABF" width="10.116" height="40.464"/>
	</g>
	<g>
		<rect x="-65.345" y="354.936" fill="#F2A919" width="10.115" height="51.213"/>
	</g>
</g>
<g>
	<rect x="252.267" y="192.839" fill="#39BABF" width="143.432" height="102.275"/>
	<g>
		<defs>
			<rect id="SVGID_1_" x="252.267" y="192.839" width="143.432" height="102.275"/>
		</defs>
		<clipPath id="SVGID_2_">
			<use xlink:href="#SVGID_1_"  overflow="visible"/>
		</clipPath>
		<g clip-path="url(#SVGID_2_)">
			<polygon fill="#FFFFFF" points="293.329,275.482 231.422,234.281 232.132,233.217 293.166,273.837 354.718,212.39 
				416.641,274.207 415.735,275.112 354.718,214.198 			"/>
		</g>
		<g clip-path="url(#SVGID_2_)">
			<polygon fill="#7F7F7F" points="354.718,275.333 293.247,254.878 231.979,275.266 231.575,274.053 293.247,253.531 
				354.718,273.986 415.985,253.598 416.391,254.81 			"/>
		</g>
	</g>
	<g>
		<g>
			<g>
				<rect x="244.53" y="294.475" fill="#3E3A41" width="5.121" height="1.278"/>
			</g>
		</g>
		<g>
			<g>
				<rect x="244.53" y="284.248" fill="#3E3A41" width="5.121" height="1.278"/>
			</g>
		</g>
		<g>
			<g>
				<rect x="244.53" y="274.02" fill="#3E3A41" width="5.121" height="1.278"/>
			</g>
		</g>
		<g>
			<g>
				<rect x="244.53" y="263.792" fill="#3E3A41" width="5.121" height="1.279"/>
			</g>
		</g>
		<g>
			<g>
				<rect x="244.53" y="253.565" fill="#3E3A41" width="5.121" height="1.278"/>
			</g>
		</g>
		<g>
			<g>
				<rect x="244.53" y="243.337" fill="#3E3A41" width="5.121" height="1.278"/>
			</g>
		</g>
		<g>
			<g>
				<rect x="244.53" y="233.109" fill="#3E3A41" width="5.121" height="1.279"/>
			</g>
		</g>
		<g>
			<g>
				<rect x="244.53" y="222.882" fill="#3E3A41" width="5.121" height="1.278"/>
			</g>
		</g>
		<g>
			<g>
				<rect x="244.53" y="212.655" fill="#3E3A41" width="5.121" height="1.278"/>
			</g>
		</g>
		<g>
			<g>
				<rect x="244.53" y="202.427" fill="#3E3A41" width="5.121" height="1.279"/>
			</g>
		</g>
		<g>
			<g>
				<rect x="244.53" y="192.2" fill="#3E3A41" width="5.121" height="1.278"/>
			</g>
		</g>
	</g>
	<g>
		<ellipse fill="#F2A919" cx="305.321" cy="233.109" rx="6.406" ry="6.396"/>
	</g>
	<g>
		<ellipse fill="#D78931" cx="383.012" cy="284.248" rx="6.406" ry="6.395"/>
	</g>
</g>
<g>
	<g>
		<g>
			<path fill="#7F7F7F" d="M115.587,43.452l17.94-17.784c-9.177-9.097-22.149-14.725-35.865-14.725v25.138
				C103.993,36.081,110.994,38.899,115.587,43.452z"/>
		</g>
		<g>
			<path fill="#F6BD4C" d="M123.023,61.218c0,6.931-2.845,13.215-7.436,17.767l17.94,17.782
				c9.181-9.098,14.858-21.666,14.858-35.549c0-13.882-5.677-26.451-14.858-35.55l-17.94,17.784
				C120.178,48.004,123.023,54.289,123.023,61.218z"/>
		</g>
		<g>
			<path fill="#39BABF" d="M97.662,111.492c14.006,0,26.688-5.627,35.865-14.726l-17.94-17.782
				c-4.593,4.553-10.934,7.37-17.925,7.37c-13.985,0-25.362-11.275-25.362-25.137c0-13.86,10.589-25.137,25.362-25.137V10.943
				c-28.49,0-50.723,22.51-50.723,50.274C46.939,88.983,69.647,111.492,97.662,111.492z"/>
		</g>
	</g>
	<g>
		<g>
			<polygon fill="#D78931" points="79.096,66.67 79.71,67.371 47.675,94.969 47.061,94.266 			"/>
		</g>
		<g>
			<polygon fill="#7F7F7F" points="26.165,67.391 46.721,93.678 45.98,94.247 25.424,67.96 			"/>
		</g>
		<g>
			<path fill="#D78931" d="M68.176,66.241c0.435-6.146,5.813-10.778,12.014-10.35c6.2,0.432,10.876,5.762,10.441,11.907
				c-0.435,6.146-5.813,10.78-12.013,10.35C72.418,77.719,67.743,72.387,68.176,66.241z"/>
		</g>
		<g>
			<path fill="#7F7F7F" d="M43.626,94.357c0.145-2.049,1.938-3.593,4.004-3.449c2.067,0.143,3.625,1.921,3.48,3.969
				c-0.145,2.049-1.938,3.594-4.005,3.449C45.04,98.184,43.481,96.406,43.626,94.357z"/>
		</g>
		<g>
			<path fill="#F6BD4C" d="M18.941,66.914c0.27-3.82,3.613-6.699,7.466-6.433c3.854,0.268,6.76,3.582,6.489,7.401
				c-0.269,3.818-3.613,6.699-7.466,6.431C21.577,74.046,18.671,70.733,18.941,66.914z"/>
		</g>
	</g>
</g>
</svg>
