<?xml version="1.0" encoding="utf-8"?>
<!-- Generator: Adobe Illustrator 16.0.0, SVG Export Plug-In . SVG Version: 6.00 Build 0)  -->
<!DOCTYPE svg PUBLIC "-//W3C//DTD SVG 1.1//EN" "http://www.w3.org/Graphics/SVG/1.1/DTD/svg11.dtd">
<svg version="1.1" id="圖層_1" xmlns="http://www.w3.org/2000/svg" xmlns:xlink="http://www.w3.org/1999/xlink" x="0px" y="0px"
	 width="167.31px" height="122.436px" viewBox="0 0 167.31 122.436" enable-background="new 0 0 167.31 122.436"
	 xml:space="preserve">
<g>
	<g>
		<polygon fill="#3E3A41" points="152.722,101.238 118.637,32.714 69.621,88.771 21.906,30.606 23.082,29.642 69.657,86.419 
			118.985,30.003 154.084,100.562 		"/>
	</g>
	<g>
		<rect x="2.312" y="9.941" fill="#D78931" width="40.363" height="40.365"/>
	</g>
	<g>
		<rect x="141.809" y="89.306" fill="#39BABF" width="23.188" height="23.188"/>
	</g>
	<g>
		<rect x="59.772" y="78.924" fill="#7F7F7F" width="19.696" height="19.694"/>
	</g>
	<g>
		<circle fill="#F2A919" cx="79.468" cy="41.541" r="7.608"/>
	</g>
	<g>
		<circle fill="#D78931" cx="119.825" cy="76.938" r="7.607"/>
	</g>
</g>
<g>
	<polygon fill="#39BABF" points="342.825,30.842 380.185,9.709 416.833,29.327 416.833,90.159 380.333,114.911 342.825,92.179 	"/>
	<g>
		<g>
			<g enable-background="new    ">
				<g>
					<g>
						<path fill="#D78931" d="M380.333,55.211l-0.334-0.193l-46.498-26.845l46.533-27.044l46.834,27.039L380.333,55.211z
							 M336.165,28.169l44.166,25.498l43.871-25.495L380.038,2.673L336.165,28.169z"/>
					</g>
				</g>
				<g>
					<g>
						<path fill="#D78931" d="M379.513,107.882l0.152-53.827l46.541-27.048l-0.152,53.828L379.513,107.882z M380.999,54.825
							l-0.143,50.732l43.863-25.491l0.145-50.733L380.999,54.825z"/>
					</g>
				</g>
				<g>
					<g>
						<path fill="#D78931" d="M380.849,107.875l-46.832-27.039l0.152-53.821l46.832,27.04L380.849,107.875z M335.354,80.066
							l44.164,25.499l0.145-50.74l-44.166-25.498L335.354,80.066z"/>
					</g>
				</g>
			</g>
		</g>
		<g>
			<circle fill="#D78931" cx="380.036" cy="1.902" r="2.672"/>
		</g>
		<g>
			<circle fill="#D78931" cx="425.535" cy="28.17" r="2.673"/>
		</g>
		<g>
			<circle fill="#D78931" cx="425.387" cy="80.451" r="2.673"/>
		</g>
		<g>
			<circle fill="#D78931" cx="380.185" cy="106.72" r="2.672"/>
		</g>
		<g>
			<circle fill="#D78931" cx="334.685" cy="80.452" r="2.672"/>
		</g>
		<g>
			<circle fill="#D78931" cx="334.833" cy="28.171" r="2.672"/>
		</g>
		<g>
			<circle fill="#D78931" cx="380.332" cy="54.44" r="2.673"/>
		</g>
	</g>
	<g>
		<g>
			<g enable-background="new    ">
				<g>
					<g>
						<path fill="#7F7F7F" d="M414.163,62.247l-0.336-0.192l-46.498-26.846l46.535-27.044l46.832,27.039L414.163,62.247z
							 M369.995,35.205l44.164,25.499l43.871-25.496L413.866,9.709L369.995,35.205z"/>
					</g>
				</g>
				<g>
					<g>
						<path fill="#7F7F7F" d="M413.341,114.918l0.154-53.828l46.541-27.047l-0.154,53.827L413.341,114.918z M414.827,61.86
							l-0.143,50.733l43.865-25.492l0.143-50.732L414.827,61.86z"/>
					</g>
				</g>
				<g>
					<g>
						<path fill="#7F7F7F" d="M414.679,114.911l-46.834-27.039l0.152-53.82l46.834,27.039L414.679,114.911z M369.183,87.102
							l44.166,25.498l0.143-50.74l-44.164-25.498L369.183,87.102z"/>
					</g>
				</g>
			</g>
		</g>
		<g>
			<circle fill="#7F7F7F" cx="413.865" cy="8.937" r="2.673"/>
		</g>
		<g>
			<circle fill="#7F7F7F" cx="459.364" cy="35.206" r="2.672"/>
		</g>
		<g>
			<circle fill="#7F7F7F" cx="459.216" cy="87.486" r="2.672"/>
		</g>
		<g>
			<circle fill="#7F7F7F" cx="414.013" cy="113.755" r="2.672"/>
		</g>
		<g>
			<circle fill="#7F7F7F" cx="368.514" cy="87.487" r="2.673"/>
		</g>
		<g>
			<circle fill="#7F7F7F" cx="368.662" cy="35.207" r="2.673"/>
		</g>
		<g>
			<circle fill="#7F7F7F" cx="414.161" cy="61.475" r="2.672"/>
		</g>
	</g>
</g>
<g>
	<g>
		<path fill="#3E3A41" d="M-151.256,271.268c-19.662,13.666-46.776,8.787-60.441-10.875s-8.787-46.775,10.875-60.441
			c19.662-13.666,46.776-8.788,60.441,10.874C-126.717,230.488-131.595,257.603-151.256,271.268z M-200.061,201.05
			c-19.057,13.245-23.785,39.524-10.54,58.581c13.245,19.057,39.525,23.785,58.582,10.54s23.785-39.525,10.54-58.582
			C-154.724,192.533-181.004,187.805-200.061,201.05z"/>
	</g>
	<g>
		<path fill="#7F7F7F" d="M-130.899,212.709c-8.625-1.551-17.925,0.246-25.606,5.583l19.542,28.117L-130.899,212.709z"/>
	</g>
	<g>
		<path fill="#39BABF" d="M-156.505,218.292c-15.909,11.057-19.271,32.063-8.478,47.592c10.793,15.528,32.179,19.334,47.707,8.542
			c7.765-5.396,12.534-13.379,14.086-22.003l-33.772-6.014L-156.505,218.292z"/>
	</g>
	<g>
		<path fill="#F6BD4C" d="M-136.77,246.275l33.699,6.063c1.552-8.625-0.188-17.841-5.583-25.605
			c-5.397-7.764-13.429-12.606-22.054-14.159L-136.77,246.275z"/>
	</g>
	<g>
		<circle fill="#7F7F7F" cx="-208.579" cy="235.61" r="21.378"/>
	</g>
	<g>
		
			<rect x="-209.247" y="190.26" transform="matrix(0.7071 0.7071 -0.7071 0.7071 105.5102 216.4966)" fill="#D78931" width="1.336" height="90.7"/>
	</g>
</g>
<g>
	<g>
		<circle fill="#39BABF" cx="-159.189" cy="446.907" r="32.067"/>
	</g>
	<g>
		<circle fill="#F2A919" cx="-126.9" cy="446.907" r="20.333"/>
	</g>
	<g>
		<circle fill="#7F7F7F" cx="-137.811" cy="470.957" r="14.32"/>
	</g>
	<g>
		<rect x="-135.942" y="458.966" fill="#39BABF" width="8.908" height="17.815"/>
	</g>
	<g>
		<rect x="-122.581" y="441.151" fill="#39BABF" width="8.908" height="35.63"/>
	</g>
	<g>
		<polygon fill="#39BABF" points="-100.312,476.781 -100.312,445.604 -109.22,445.604 -109.22,450.282 -109.22,476.781 		"/>
	</g>
	<g>
		<rect x="-95.858" y="431.687" fill="#39BABF" width="8.907" height="45.095"/>
	</g>
	<g>
		<polygon fill="#D78931" points="-82.498,476.781 -73.59,476.781 -73.59,450.282 -73.59,423.336 -82.498,423.336 		"/>
	</g>
	<g>
		<rect x="-69.136" y="441.151" fill="#39BABF" width="8.908" height="35.63"/>
	</g>
	<g>
		<rect x="-55.775" y="431.687" fill="#F2A919" width="8.907" height="45.095"/>
	</g>
</g>
<g>
	<rect x="170.587" y="200.978" fill="#39BABF" width="149.647" height="106.891"/>
	<g>
		<defs>
			<rect id="SVGID_1_" x="170.587" y="200.978" width="149.647" height="106.891"/>
		</defs>
		<clipPath id="SVGID_2_">
			<use xlink:href="#SVGID_1_"  overflow="visible"/>
		</clipPath>
		<g clip-path="url(#SVGID_2_)">
			<polygon fill="#FFFFFF" points="213.429,287.351 148.839,244.29 149.579,243.178 213.259,285.631 277.479,221.411 
				342.085,286.018 341.141,286.963 277.479,223.301 			"/>
		</g>
		<g clip-path="url(#SVGID_2_)">
			<polygon fill="#7F7F7F" points="277.479,287.194 213.344,265.816 149.42,287.124 148.998,285.856 213.344,264.408 
				277.479,285.786 341.401,264.479 341.824,265.745 			"/>
		</g>
	</g>
	<g>
		<g>
			<g>
				<rect x="162.515" y="307.2" fill="#3E3A41" width="5.344" height="1.336"/>
			</g>
		</g>
		<g>
			<g>
				<rect x="162.515" y="296.512" fill="#3E3A41" width="5.344" height="1.336"/>
			</g>
		</g>
		<g>
			<g>
				<rect x="162.515" y="285.822" fill="#3E3A41" width="5.344" height="1.336"/>
			</g>
		</g>
		<g>
			<g>
				<rect x="162.515" y="275.133" fill="#3E3A41" width="5.344" height="1.337"/>
			</g>
		</g>
		<g>
			<g>
				<rect x="162.515" y="264.444" fill="#3E3A41" width="5.344" height="1.336"/>
			</g>
		</g>
		<g>
			<g>
				<rect x="162.515" y="253.755" fill="#3E3A41" width="5.344" height="1.336"/>
			</g>
		</g>
		<g>
			<g>
				<rect x="162.515" y="243.065" fill="#3E3A41" width="5.344" height="1.337"/>
			</g>
		</g>
		<g>
			<g>
				<rect x="162.515" y="232.377" fill="#3E3A41" width="5.344" height="1.336"/>
			</g>
		</g>
		<g>
			<g>
				<rect x="162.515" y="221.688" fill="#3E3A41" width="5.344" height="1.336"/>
			</g>
		</g>
		<g>
			<g>
				<rect x="162.515" y="210.998" fill="#3E3A41" width="5.344" height="1.337"/>
			</g>
		</g>
		<g>
			<g>
				<rect x="162.515" y="200.31" fill="#3E3A41" width="5.344" height="1.336"/>
			</g>
		</g>
	</g>
	<g>
		<circle fill="#F2A919" cx="225.941" cy="243.065" r="6.684"/>
	</g>
	<g>
		<circle fill="#D78931" cx="306.999" cy="296.512" r="6.684"/>
	</g>
</g>
<g>
	<g>
		<g>
			<path fill="#7F7F7F" d="M206.464,459.663l17.133-17.136c-8.764-8.765-21.152-14.188-34.251-14.188v24.221
				C195.391,452.561,202.077,455.276,206.464,459.663z"/>
		</g>
		<g>
			<path fill="#F6BD4C" d="M213.565,476.78c0,6.679-2.717,12.733-7.102,17.119l17.133,17.134
				c8.768-8.766,14.189-20.876,14.189-34.253c0-13.375-5.422-25.486-14.189-34.253l-17.133,17.136
				C210.849,464.049,213.565,470.104,213.565,476.78z"/>
		</g>
		<g>
			<path fill="#39BABF" d="M189.345,525.222c13.376,0,25.488-5.422,34.251-14.188l-17.133-17.134
				c-4.387,4.387-10.442,7.102-17.119,7.102c-13.355,0-24.221-10.864-24.221-24.221c0-13.354,10.112-24.22,24.221-24.22V428.34
				c-27.208,0-48.441,21.688-48.441,48.44C140.904,503.534,162.591,525.222,189.345,525.222z"/>
		</g>
	</g>
	<g>
		<g>
			
				<rect x="156.164" y="475.4" transform="matrix(-0.6557 -0.755 0.755 -0.6557 -114.9269 938.9285)" fill="#D78931" width="0.895" height="40.535"/>
		</g>
		<g>
			
				<rect x="114.504" y="495.219" transform="matrix(-0.6126 -0.7904 0.7904 -0.6126 -181.2778 902.4849)" fill="#7F7F7F" width="32.045" height="0.896"/>
		</g>
		<g>
			<circle fill="#D78931" cx="171.908" cy="482.372" r="10.748"/>
		</g>
		<g>
			<circle fill="#7F7F7F" cx="141.314" cy="508.962" r="3.583"/>
		</g>
		<g>
			<circle fill="#F6BD4C" cx="120.83" cy="482.736" r="6.68"/>
		</g>
	</g>
</g>
</svg>
