<?xml version="1.0" encoding="utf-8"?>
<!-- Generator: Adobe Illustrator 16.0.0, SVG Export Plug-In . SVG Version: 6.00 Build 0)  -->
<!DOCTYPE svg PUBLIC "-//W3C//DTD SVG 1.1//EN" "http://www.w3.org/Graphics/SVG/1.1/DTD/svg11.dtd">
<svg version="1.1" id="圖層_1" xmlns="http://www.w3.org/2000/svg" xmlns:xlink="http://www.w3.org/1999/xlink" x="0px" y="0px"
	 width="167.31px" height="122.436px" viewBox="0 0 167.31 122.436" enable-background="new 0 0 167.31 122.436"
	 xml:space="preserve">
<g>
	<g>
		<polygon fill="#3E3A41" points="-125.949,39.25 -160.034,-29.275 -209.049,26.783 -256.764,-31.382 -255.588,-32.347 
			-209.013,24.43 -159.685,-31.986 -124.586,38.573 		"/>
	</g>
	<g>
		<rect x="-276.358" y="-52.047" fill="#D78931" width="40.363" height="40.365"/>
	</g>
	<g>
		<rect x="-136.862" y="27.317" fill="#39BABF" width="23.188" height="23.188"/>
	</g>
	<g>
		<rect x="-218.898" y="16.935" fill="#7F7F7F" width="19.696" height="19.694"/>
	</g>
	<g>
		<circle fill="#F2A919" cx="-199.202" cy="-20.448" r="7.608"/>
	</g>
	<g>
		<circle fill="#D78931" cx="-158.845" cy="14.95" r="7.607"/>
	</g>
</g>
<g>
	<polygon fill="#39BABF" points="302.253,16.884 337.54,-3.076 372.157,15.453 372.157,72.911 337.681,96.29 302.253,74.819 	"/>
	<g>
		<g>
			<g enable-background="new    ">
				<g>
					<g>
						<path fill="#D78931" d="M337.681,39.902l-0.316-0.182l-43.918-25.356l43.953-25.544l44.234,25.54L337.681,39.902z
							 M295.962,14.36l41.717,24.084l41.438-24.082L337.401-9.722L295.962,14.36z"/>
					</g>
				</g>
				<g>
					<g>
						<path fill="#D78931" d="M336.905,89.652l0.145-50.842l43.959-25.548l-0.143,50.842L336.905,89.652z M338.31,39.537
							l-0.135,47.919l41.43-24.078l0.139-47.919L338.31,39.537z"/>
					</g>
				</g>
				<g>
					<g>
						<path fill="#D78931" d="M338.167,89.645l-44.234-25.54l0.145-50.836l44.234,25.541L338.167,89.645z M295.196,63.377
							l41.715,24.085l0.137-47.926l-41.717-24.084L295.196,63.377z"/>
					</g>
				</g>
			</g>
		</g>
		<g>
			<circle fill="#D78931" cx="337.4" cy="-10.451" r="2.524"/>
		</g>
		<g>
			<circle fill="#D78931" cx="380.375" cy="14.361" r="2.524"/>
		</g>
		<g>
			<circle fill="#D78931" cx="380.236" cy="63.741" r="2.524"/>
		</g>
		<g>
			<circle fill="#D78931" cx="337.54" cy="88.554" r="2.523"/>
		</g>
		<g>
			<circle fill="#D78931" cx="294.563" cy="63.742" r="2.523"/>
		</g>
		<g>
			<circle fill="#D78931" cx="294.704" cy="14.362" r="2.523"/>
		</g>
		<g>
			<circle fill="#D78931" cx="337.68" cy="39.173" r="2.524"/>
		</g>
	</g>
	<g>
		<g>
			<g enable-background="new    ">
				<g>
					<g>
						<path fill="#7F7F7F" d="M369.634,46.547l-0.316-0.182l-43.92-25.356l43.955-25.544l44.234,25.54L369.634,46.547z
							 M327.917,21.005L369.63,45.09l41.439-24.082L369.354-3.076L327.917,21.005z"/>
					</g>
				</g>
				<g>
					<g>
						<path fill="#7F7F7F" d="M368.858,96.297l0.145-50.843l43.961-25.546l-0.146,50.842L368.858,96.297z M370.261,46.182
							l-0.135,47.919l41.434-24.078l0.135-47.918L370.261,46.182z"/>
					</g>
				</g>
				<g>
					<g>
						<path fill="#7F7F7F" d="M370.122,96.29l-44.236-25.539l0.143-50.836l44.236,25.54L370.122,96.29z M327.149,70.024
							l41.715,24.084l0.135-47.926l-41.713-24.084L327.149,70.024z"/>
					</g>
				</g>
			</g>
		</g>
		<g>
			<circle fill="#7F7F7F" cx="369.354" cy="-3.806" r="2.524"/>
		</g>
		<g>
			<circle fill="#7F7F7F" cx="412.329" cy="21.006" r="2.523"/>
		</g>
		<g>
			<circle fill="#7F7F7F" cx="412.188" cy="70.386" r="2.523"/>
		</g>
		<g>
			<circle fill="#7F7F7F" cx="369.492" cy="95.199" r="2.524"/>
		</g>
		<g>
			<circle fill="#7F7F7F" cx="326.518" cy="70.387" r="2.524"/>
		</g>
		<g>
			<circle fill="#7F7F7F" cx="326.656" cy="21.007" r="2.524"/>
		</g>
		<g>
			<circle fill="#7F7F7F" cx="369.633" cy="45.818" r="2.524"/>
		</g>
	</g>
</g>
<g>
	<g>
		<path fill="#3E3A41" d="M-151.256,271.268c-19.662,13.666-46.776,8.787-60.441-10.875s-8.787-46.775,10.875-60.441
			c19.662-13.666,46.776-8.788,60.441,10.874C-126.717,230.488-131.595,257.603-151.256,271.268z M-200.061,201.05
			c-19.057,13.245-23.785,39.524-10.54,58.581c13.245,19.057,39.525,23.785,58.582,10.54s23.785-39.525,10.54-58.582
			C-154.724,192.533-181.004,187.805-200.061,201.05z"/>
	</g>
	<g>
		<path fill="#7F7F7F" d="M-130.899,212.709c-8.625-1.551-17.925,0.246-25.606,5.583l19.542,28.117L-130.899,212.709z"/>
	</g>
	<g>
		<path fill="#39BABF" d="M-156.505,218.292c-15.909,11.057-19.271,32.063-8.478,47.592c10.793,15.528,32.179,19.334,47.707,8.542
			c7.765-5.396,12.534-13.379,14.086-22.003l-33.772-6.014L-156.505,218.292z"/>
	</g>
	<g>
		<path fill="#F6BD4C" d="M-136.77,246.275l33.699,6.063c1.552-8.625-0.188-17.841-5.583-25.605
			c-5.397-7.764-13.429-12.606-22.054-14.159L-136.77,246.275z"/>
	</g>
	<g>
		<circle fill="#7F7F7F" cx="-208.579" cy="235.61" r="21.378"/>
	</g>
	<g>
		
			<rect x="-209.247" y="190.26" transform="matrix(0.7071 0.7071 -0.7071 0.7071 105.5102 216.4966)" fill="#D78931" width="1.336" height="90.7"/>
	</g>
</g>
<g>
	<g>
		<path fill="#39BABF" d="M-145.44,374.068c0,22.312-18.088,40.396-40.399,40.396c-22.312,0-40.4-18.084-40.4-40.396
			c0-22.314,18.087-40.4,40.4-40.4C-163.528,333.668-145.44,351.754-145.44,374.068z"/>
	</g>
	<g>
		<circle fill="#F2A919" cx="-145.161" cy="374.068" r="25.616"/>
	</g>
	<g>
		<circle fill="#7F7F7F" cx="-158.906" cy="404.366" r="18.041"/>
	</g>
	<g>
		<rect x="-156.553" y="389.259" fill="#39BABF" width="11.222" height="22.445"/>
	</g>
	<g>
		<rect x="-139.72" y="366.816" fill="#39BABF" width="11.223" height="44.888"/>
	</g>
	<g>
		<polygon fill="#D78931" points="-111.665,411.704 -111.665,372.426 -122.886,372.426 -122.886,378.319 -122.886,411.704 		"/>
	</g>
	<g>
		<rect x="-106.054" y="354.892" fill="#39BABF" width="11.223" height="56.812"/>
	</g>
	<g>
		<polygon fill="#D78931" points="-89.222,411.704 -77.999,411.704 -77.999,378.319 -77.999,344.371 -89.222,344.371 		"/>
	</g>
	<g>
		<rect x="-72.388" y="366.816" fill="#39BABF" width="11.222" height="44.888"/>
	</g>
</g>
<g>
	<rect x="21.5" y="14.371" fill="#39BABF" width="131.396" height="93.693"/>
	<g>
		<defs>
			<rect id="SVGID_1_" x="21.5" y="14.371" width="131.396" height="93.693"/>
		</defs>
		<clipPath id="SVGID_2_">
			<use xlink:href="#SVGID_1_"  overflow="visible"/>
		</clipPath>
		<g clip-path="url(#SVGID_2_)">
			<polygon fill="#FFFFFF" points="59.117,90.08 2.405,52.336 3.056,51.361 58.968,88.572 115.354,32.282 172.081,88.911 
				171.251,89.74 115.354,33.938 			"/>
		</g>
		<g clip-path="url(#SVGID_2_)">
			<polygon fill="#7F7F7F" points="115.354,89.943 59.042,71.205 2.916,89.881 2.545,88.771 59.042,69.971 115.354,88.709 
				171.48,70.032 171.852,71.143 			"/>
		</g>
	</g>
	<g>
		<g>
			<g>
				<rect x="14.414" y="107.479" fill="#3E3A41" width="4.691" height="1.171"/>
			</g>
		</g>
		<g>
			<g>
				<rect x="14.414" y="98.109" fill="#3E3A41" width="4.691" height="1.172"/>
			</g>
		</g>
		<g>
			<g>
				<rect x="14.414" y="88.74" fill="#3E3A41" width="4.691" height="1.171"/>
			</g>
		</g>
		<g>
			<g>
				<rect x="14.414" y="79.371" fill="#3E3A41" width="4.691" height="1.171"/>
			</g>
		</g>
		<g>
			<g>
				<rect x="14.414" y="70.002" fill="#3E3A41" width="4.691" height="1.171"/>
			</g>
		</g>
		<g>
			<g>
				<rect x="14.414" y="60.632" fill="#3E3A41" width="4.691" height="1.172"/>
			</g>
		</g>
		<g>
			<g>
				<rect x="14.414" y="51.263" fill="#3E3A41" width="4.691" height="1.172"/>
			</g>
		</g>
		<g>
			<g>
				<rect x="14.414" y="41.894" fill="#3E3A41" width="4.691" height="1.171"/>
			</g>
		</g>
		<g>
			<g>
				<rect x="14.414" y="32.524" fill="#3E3A41" width="4.691" height="1.171"/>
			</g>
		</g>
		<g>
			<g>
				<rect x="14.414" y="23.154" fill="#3E3A41" width="4.691" height="1.172"/>
			</g>
		</g>
		<g>
			<g>
				<rect x="14.414" y="13.786" fill="#3E3A41" width="4.691" height="1.171"/>
			</g>
		</g>
	</g>
	<g>
		<ellipse fill="#F2A919" cx="70.103" cy="51.263" rx="5.869" ry="5.859"/>
	</g>
	<g>
		<ellipse fill="#D78931" cx="141.274" cy="98.109" rx="5.868" ry="5.858"/>
	</g>
</g>
<g>
	<g>
		<g>
			<path fill="#7F7F7F" d="M129.595,296.301l17.94-17.784c-9.177-9.097-22.149-14.725-35.865-14.725v25.138
				C118,288.93,125.001,291.749,129.595,296.301z"/>
		</g>
		<g>
			<path fill="#F6BD4C" d="M137.031,314.067c0,6.931-2.845,13.215-7.436,17.767l17.94,17.782
				c9.181-9.098,14.858-21.666,14.858-35.549c0-13.882-5.677-26.451-14.858-35.55l-17.94,17.784
				C134.186,300.853,137.031,307.138,137.031,314.067z"/>
		</g>
		<g>
			<path fill="#39BABF" d="M111.669,364.341c14.006,0,26.688-5.627,35.865-14.726l-17.94-17.782
				c-4.593,4.553-10.934,7.37-17.925,7.37c-13.985,0-25.362-11.275-25.362-25.137c0-13.86,10.589-25.137,25.362-25.137v-25.138
				c-28.49,0-50.723,22.51-50.723,50.274C60.946,341.833,83.655,364.341,111.669,364.341z"/>
		</g>
	</g>
	<g>
		<g>
			<polygon fill="#D78931" points="93.104,319.519 93.718,320.22 61.683,347.818 61.068,347.115 			"/>
		</g>
		<g>
			<polygon fill="#7F7F7F" points="40.172,320.24 60.729,346.527 59.987,347.096 39.431,320.809 			"/>
		</g>
		<g>
			<path fill="#D78931" d="M82.183,319.09c0.435-6.146,5.813-10.778,12.014-10.35c6.2,0.432,10.876,5.762,10.441,11.907
				c-0.435,6.146-5.813,10.78-12.013,10.35C86.425,330.568,81.75,325.236,82.183,319.09z"/>
		</g>
		<g>
			<path fill="#7F7F7F" d="M57.633,347.207c0.145-2.049,1.938-3.593,4.004-3.449c2.067,0.143,3.625,1.921,3.48,3.969
				c-0.145,2.049-1.938,3.594-4.005,3.449C59.047,351.033,57.488,349.255,57.633,347.207z"/>
		</g>
		<g>
			<path fill="#F6BD4C" d="M32.949,319.763c0.27-3.82,3.613-6.699,7.466-6.433c3.854,0.268,6.76,3.582,6.489,7.401
				c-0.269,3.818-3.613,6.699-7.466,6.431C35.584,326.895,32.679,323.583,32.949,319.763z"/>
		</g>
	</g>
</g>
</svg>
